<svg  viewBox="0 0 276 225" fill="none" xmlns="http://www.w3.org/2000/svg">
<path d="M7.56982 224.861C7.56982 224.861 -6.64723 207.036 5.06068 192.866C16.7693 178.696 28.0241 184.215 34.7899 170.293C41.5558 156.37 13.4238 135.207 15.9329 119.317C18.4421 103.427 54.5895 91.5047 60.6294 76.697C66.6693 61.8894 41.4995 34.945 66.7683 14.6859C92.0371 -5.57318 124.751 20.542 144.261 9.94474C176.425 -7.52521 213.921 0.0798734 225.265 24.9305C239.581 56.2969 208.87 82.8424 214.479 103.263C220.087 123.684 258 131.389 266.549 150.581C275.098 169.774 262.436 174.819 263.576 186.105C265.062 200.835 280.302 209.695 273.983 224.86H7.56982V224.861Z" fill="url(#paint0_linear_275_3600)"/>
<path d="M149.871 224.861H131.218C129.133 224.861 127.441 223.17 127.441 221.084V191.862C127.441 189.777 129.132 188.086 131.218 188.086H149.871C151.956 188.086 153.647 189.776 153.647 191.862V221.084C153.647 223.17 151.956 224.861 149.871 224.861Z" fill="#00A098"/>
<path d="M203.732 90.6363C203.732 55.1734 174.565 26.5235 138.912 27.3663C104.972 28.1685 77.4522 56.1274 77.1587 90.0763C76.9784 110.849 86.812 129.326 102.12 140.99C110.295 147.219 115.06 156.933 115.06 167.211V184.178H165.83V167.211C165.83 156.906 170.642 147.198 178.832 140.942C193.965 129.38 203.732 111.153 203.732 90.6363Z" fill="url(#paint1_radial_275_3600)"/>
<path d="M162.312 221.07H118.779C115.61 221.07 113.04 218.5 113.04 215.33V180.602H168.051V215.33C168.051 218.5 165.482 221.07 162.312 221.07Z" fill="url(#paint2_linear_275_3600)"/>
<path d="M21.9736 224.493C21.8289 224.493 21.6929 224.404 21.6394 224.26C21.2911 223.323 21.0239 222.382 20.8451 221.467C20.8073 221.274 20.9334 221.087 21.1265 221.049C21.3174 221.011 21.5062 221.137 21.544 221.331C21.7157 222.208 21.9721 223.111 22.307 224.013C22.3754 224.198 22.2813 224.403 22.0968 224.471C22.0569 224.486 22.0149 224.493 21.9736 224.493ZM20.9976 217.501C20.9847 217.501 20.9712 217.5 20.9577 217.499C20.7625 217.478 20.6214 217.302 20.6428 217.106C20.7503 216.132 20.9676 215.172 21.2875 214.254C21.3523 214.068 21.5561 213.969 21.7413 214.035C21.9273 214.1 22.0249 214.303 21.9607 214.489C21.658 215.357 21.4535 216.263 21.3516 217.183C21.3317 217.366 21.1771 217.501 20.9976 217.501ZM23.6755 211C23.5986 211 23.5209 210.975 23.4554 210.924C23.3008 210.802 23.2744 210.578 23.3963 210.424C23.6876 210.055 23.9997 209.699 24.3245 209.366C24.6729 209.008 25.0327 208.662 25.3996 208.323C25.5442 208.189 25.7708 208.198 25.9033 208.343C26.0372 208.487 26.0279 208.713 25.8833 208.846C25.525 209.176 25.1745 209.514 24.8346 209.863C24.5276 210.177 24.2319 210.515 23.9569 210.865C23.885 210.954 23.781 211 23.6755 211ZM28.8919 206.166C28.7893 206.166 28.6881 206.122 28.6176 206.037C28.4922 205.886 28.5129 205.662 28.6639 205.536C29.3606 204.957 30.1023 204.333 30.8083 203.686C30.9536 203.553 31.1794 203.563 31.312 203.708C31.4452 203.853 31.4352 204.079 31.2899 204.212C30.5725 204.868 29.8223 205.5 29.1191 206.084C29.0529 206.139 28.9724 206.166 28.8919 206.166ZM33.9344 201.162C33.8603 201.162 33.7855 201.139 33.7221 201.09C33.5639 200.973 33.5319 200.749 33.6494 200.592C34.1552 199.915 34.6646 199.148 35.2082 198.25C35.3093 198.083 35.5281 198.027 35.6976 198.13C35.8657 198.231 35.9199 198.45 35.818 198.618C35.263 199.537 34.7401 200.322 34.2208 201.018C34.151 201.112 34.0434 201.162 33.9344 201.162ZM37.6219 195.073C37.5634 195.073 37.5036 195.058 37.448 195.027C37.2763 194.931 37.2151 194.714 37.3112 194.542C37.7259 193.801 38.2231 192.927 38.7632 192.068C38.8679 191.902 39.0894 191.851 39.254 191.956C39.4207 192.061 39.4706 192.281 39.3659 192.448C38.8337 193.293 38.3428 194.156 37.9325 194.89C37.8676 195.007 37.7465 195.073 37.6219 195.073ZM41.6385 189.212C41.5509 189.212 41.4625 189.179 41.3941 189.114C41.2509 188.979 41.2445 188.753 41.3799 188.61C41.6955 188.276 42.0239 187.958 42.3552 187.663C42.7385 187.324 43.1467 186.997 43.5684 186.695C43.7287 186.579 43.951 186.616 44.0657 186.776C44.1811 186.936 44.1441 187.158 43.9845 187.273C43.582 187.562 43.193 187.873 42.8275 188.196C42.5119 188.476 42.1984 188.781 41.8971 189.1C41.8273 189.174 41.7332 189.212 41.6385 189.212ZM47.5266 185.327C47.3849 185.327 47.2502 185.241 47.1954 185.101C47.1234 184.918 47.2132 184.711 47.3963 184.64C48.2483 184.304 49.1474 184.014 50.1455 183.752C50.335 183.7 50.5302 183.815 50.5801 184.005C50.6299 184.195 50.5167 184.39 50.3264 184.44C49.3561 184.695 48.4834 184.977 47.657 185.302C47.6143 185.319 47.5701 185.327 47.5266 185.327ZM54.4271 183.619C54.2533 183.619 54.1015 183.492 54.0752 183.316C54.0467 183.121 54.1806 182.94 54.3744 182.911C55.2037 182.786 56.1056 182.669 57.2134 182.541C57.41 182.524 57.586 182.659 57.6081 182.854C57.6309 183.049 57.4905 183.226 57.2953 183.249C56.1953 183.376 55.3013 183.492 54.4806 183.615C54.462 183.618 54.4442 183.619 54.4271 183.619ZM61.5057 182.779C61.3269 182.779 61.1737 182.645 61.1524 182.464C61.1296 182.269 61.2699 182.092 61.4651 182.069C62.5686 181.941 63.4627 181.823 64.2792 181.698C64.473 181.666 64.6553 181.802 64.6845 181.997C64.7138 182.191 64.5805 182.373 64.386 182.402C63.5611 182.528 62.6591 182.647 61.547 182.776C61.5335 182.778 61.5193 182.779 61.5057 182.779ZM68.5202 181.559C68.3635 181.559 68.2196 181.455 68.1768 181.295C68.1255 181.105 68.2381 180.91 68.4283 180.859C69.3951 180.599 70.2642 180.309 71.0871 179.973C71.2673 179.897 71.4767 179.986 71.5516 180.167C71.6264 180.35 71.5387 180.558 71.3563 180.632C70.5064 180.979 69.6095 181.278 68.6135 181.546C68.5822 181.554 68.5508 181.559 68.5202 181.559ZM74.9313 178.574C74.8237 178.574 74.7175 178.526 74.6477 178.434C74.5287 178.277 74.5594 178.054 74.7154 177.935C75.2747 177.51 75.8033 177.041 76.2863 176.54C76.4423 176.379 76.5933 176.215 76.7394 176.047C76.8683 175.898 77.0949 175.884 77.2424 176.013C77.3905 176.142 77.4062 176.367 77.2766 176.515C77.1227 176.692 76.9631 176.865 76.7985 177.036C76.2906 177.561 75.7349 178.055 75.1471 178.502C75.0816 178.551 75.0061 178.574 74.9313 178.574ZM79.4117 173.114C79.3533 173.114 79.2934 173.099 79.2386 173.068C79.0669 172.972 79.0049 172.756 79.1011 172.584C79.5413 171.794 79.9396 171.011 80.4148 170.071C80.5031 169.896 80.719 169.827 80.8935 169.914C81.0688 170.002 81.1393 170.216 81.051 170.392C80.6748 171.137 80.206 172.066 79.7237 172.931C79.6582 173.047 79.5371 173.114 79.4117 173.114ZM82.7522 166.822C82.6895 166.822 82.6254 166.806 82.5677 166.771C82.3996 166.668 82.3454 166.45 82.4473 166.282C82.5827 166.059 82.7209 165.838 82.8626 165.622C83.2431 165.039 83.6584 164.462 84.0973 163.907C84.2191 163.755 84.4428 163.728 84.5974 163.849C84.752 163.971 84.7776 164.195 84.6558 164.35C84.2305 164.887 83.828 165.447 83.4589 166.012C83.3207 166.222 83.1875 166.435 83.0564 166.65C82.9902 166.761 82.8726 166.822 82.7522 166.822ZM87.3067 161.381C87.2091 161.381 87.1122 161.341 87.0417 161.263C86.9106 161.117 86.9227 160.891 87.0688 160.76C87.7591 160.14 88.5107 159.528 89.3022 158.941C89.4596 158.823 89.6833 158.857 89.8009 159.014C89.9177 159.172 89.8849 159.395 89.7268 159.512C88.9531 160.086 88.2186 160.684 87.5447 161.289C87.477 161.351 87.3915 161.381 87.3067 161.381ZM93.0894 157.247C92.9669 157.247 92.8472 157.184 92.7809 157.07C92.6819 156.9 92.7396 156.682 92.9099 156.583C93.6943 156.127 94.542 155.667 95.4297 155.214C95.605 155.124 95.8194 155.194 95.9085 155.369C95.9975 155.545 95.9284 155.76 95.7532 155.849C94.8769 156.296 94.0405 156.75 93.2675 157.2C93.212 157.232 93.1507 157.247 93.0894 157.247ZM99.4592 154.065C99.3224 154.065 99.1913 153.986 99.1329 153.852C99.0538 153.672 99.135 153.462 99.3152 153.383C100.187 152.999 101.066 152.627 101.946 152.263C102.128 152.189 102.336 152.275 102.411 152.456C102.486 152.639 102.399 152.847 102.218 152.922C101.343 153.284 100.469 153.653 99.6024 154.036C99.5553 154.056 99.5069 154.065 99.4592 154.065ZM106.046 151.346C105.905 151.346 105.771 151.261 105.716 151.122C105.642 150.94 105.731 150.732 105.914 150.66L108.554 149.594C108.735 149.52 108.944 149.607 109.018 149.788C109.093 149.971 109.006 150.179 108.824 150.253L106.179 151.32C106.135 151.337 106.09 151.346 106.046 151.346ZM112.63 148.624C112.493 148.624 112.362 148.543 112.303 148.408C112.226 148.227 112.308 148.018 112.489 147.94C113.361 147.565 114.229 147.184 115.095 146.798C115.274 146.718 115.485 146.798 115.566 146.979C115.646 147.158 115.565 147.368 115.385 147.449C114.516 147.836 113.645 148.217 112.771 148.594C112.725 148.614 112.677 148.624 112.63 148.624ZM119.128 145.703C118.994 145.703 118.865 145.627 118.805 145.497C118.722 145.319 118.799 145.107 118.977 145.024C119.836 144.622 120.692 144.214 121.546 143.801C121.724 143.715 121.937 143.79 122.021 143.966C122.107 144.144 122.033 144.357 121.855 144.442C120.999 144.856 120.14 145.265 119.278 145.669C119.23 145.692 119.178 145.703 119.128 145.703ZM125.532 142.583C125.402 142.583 125.277 142.511 125.215 142.388C125.125 142.213 125.196 141.998 125.371 141.909C126.218 141.48 127.061 141.047 127.902 140.608C128.076 140.518 128.291 140.585 128.383 140.759C128.473 140.934 128.406 141.149 128.232 141.24C127.388 141.68 126.542 142.115 125.693 142.545C125.641 142.571 125.586 142.583 125.532 142.583ZM131.838 139.267C131.712 139.267 131.59 139.2 131.525 139.082C131.43 138.91 131.494 138.692 131.667 138.598L132.102 138.36C132.787 137.985 133.471 137.604 134.154 137.218C134.324 137.121 134.542 137.181 134.639 137.352C134.736 137.523 134.675 137.741 134.505 137.838C133.819 138.226 133.132 138.608 132.443 138.985L132.008 139.222C131.954 139.253 131.896 139.267 131.838 139.267ZM138.017 135.722C137.896 135.722 137.779 135.662 137.713 135.552C137.61 135.384 137.663 135.165 137.831 135.062C138.639 134.569 139.441 134.065 140.232 133.548C140.398 133.442 140.618 133.487 140.725 133.652C140.832 133.817 140.787 134.037 140.621 134.145C139.823 134.665 139.016 135.172 138.202 135.67C138.144 135.706 138.08 135.722 138.017 135.722ZM143.946 131.775C143.837 131.775 143.729 131.725 143.659 131.63C143.543 131.471 143.577 131.248 143.735 131.132C144.52 130.556 145.275 129.975 145.981 129.405C146.134 129.28 146.358 129.304 146.482 129.457C146.606 129.611 146.582 129.835 146.429 129.958C145.714 130.536 144.949 131.124 144.157 131.706C144.093 131.753 144.02 131.775 143.946 131.775ZM149.425 127.229C149.33 127.229 149.236 127.191 149.166 127.118C149.031 126.975 149.037 126.749 149.18 126.614C149.873 125.958 150.542 125.283 151.172 124.609C151.305 124.465 151.531 124.457 151.675 124.591C151.819 124.725 151.827 124.951 151.693 125.094C151.054 125.781 150.373 126.466 149.67 127.132C149.601 127.196 149.512 127.229 149.425 127.229ZM203.515 125.278C203.415 125.278 203.316 125.235 203.244 125.153C202.642 124.45 201.988 123.769 201.302 123.125C201.159 122.991 201.151 122.765 201.286 122.622C201.421 122.477 201.646 122.472 201.79 122.605C202.494 123.266 203.166 123.967 203.786 124.69C203.914 124.839 203.896 125.063 203.747 125.192C203.68 125.249 203.597 125.278 203.515 125.278ZM154.182 121.938C154.107 121.938 154.032 121.915 153.968 121.867C153.81 121.748 153.778 121.525 153.897 121.368C154.461 120.616 154.999 119.835 155.496 119.045C155.601 118.879 155.822 118.829 155.987 118.933C156.153 119.038 156.203 119.258 156.098 119.425C155.591 120.231 155.042 121.028 154.466 121.795C154.396 121.888 154.289 121.938 154.182 121.938ZM198.218 120.548C198.148 120.548 198.078 120.528 198.016 120.484C197.259 119.962 196.456 119.459 195.627 118.99C195.456 118.893 195.396 118.676 195.493 118.505C195.59 118.332 195.808 118.274 195.978 118.37C196.826 118.85 197.647 119.364 198.421 119.899C198.584 120.01 198.624 120.232 198.512 120.394C198.443 120.494 198.331 120.548 198.218 120.548ZM191.968 117.156C191.921 117.156 191.874 117.147 191.829 117.128C190.982 116.77 190.095 116.43 189.189 116.116C189.003 116.051 188.906 115.849 188.969 115.662C189.035 115.476 189.236 115.38 189.423 115.442C190.343 115.76 191.246 116.107 192.106 116.471C192.288 116.548 192.373 116.756 192.297 116.937C192.238 117.075 192.106 117.156 191.968 117.156ZM157.843 115.841C157.793 115.841 157.741 115.83 157.692 115.807C157.514 115.724 157.437 115.512 157.521 115.334C157.921 114.477 158.284 113.602 158.601 112.731C158.668 112.547 158.873 112.453 159.057 112.518C159.243 112.586 159.338 112.79 159.27 112.975C158.948 113.865 158.576 114.759 158.167 115.636C158.106 115.765 157.977 115.841 157.843 115.841ZM185.21 114.914C185.181 114.914 185.151 114.91 185.122 114.903C184.228 114.676 183.298 114.464 182.359 114.274C182.165 114.235 182.041 114.048 182.08 113.855C182.119 113.662 182.311 113.538 182.499 113.575C183.451 113.768 184.392 113.981 185.297 114.212C185.488 114.26 185.604 114.454 185.554 114.645C185.514 114.807 185.369 114.914 185.21 114.914ZM178.215 113.572C178.199 113.572 178.182 113.57 178.167 113.568C177.245 113.442 176.296 113.331 175.349 113.237C175.154 113.218 175.011 113.043 175.031 112.847C175.05 112.651 175.215 112.51 175.42 112.528C176.376 112.623 177.333 112.736 178.263 112.863C178.457 112.89 178.595 113.07 178.568 113.264C178.543 113.442 178.39 113.572 178.215 113.572ZM171.121 112.914C171.115 112.914 171.108 112.913 171.101 112.913C170.156 112.859 169.209 112.813 168.26 112.773C168.064 112.765 167.912 112.599 167.92 112.402C167.928 112.205 168.062 112.042 168.291 112.061C169.243 112.101 170.194 112.147 171.142 112.201C171.339 112.213 171.488 112.381 171.478 112.577C171.466 112.767 171.31 112.914 171.121 112.914ZM164.004 112.62C164.001 112.62 163.997 112.62 163.992 112.619L161.143 112.526C160.947 112.52 160.794 112.354 160.8 112.158C160.808 111.961 160.977 111.804 161.169 111.814L164.016 111.908C164.212 111.914 164.367 112.079 164.361 112.275C164.354 112.468 164.195 112.62 164.004 112.62ZM156.884 112.351C156.879 112.351 156.872 112.351 156.867 112.35C155.915 112.302 154.964 112.246 154.016 112.178C153.82 112.165 153.671 111.995 153.685 111.798C153.699 111.601 153.89 111.454 154.065 111.468C155.009 111.534 155.955 111.59 156.902 111.638C157.098 111.648 157.25 111.816 157.24 112.012C157.23 112.203 157.073 112.351 156.884 112.351ZM149.785 111.794C149.771 111.794 149.758 111.793 149.744 111.791C148.766 111.68 147.811 111.553 146.906 111.415C146.712 111.385 146.578 111.203 146.608 111.009C146.638 110.815 146.822 110.681 147.013 110.711C147.91 110.848 148.856 110.974 149.824 111.084C150.02 111.106 150.161 111.283 150.138 111.478C150.118 111.66 149.963 111.794 149.785 111.794ZM142.761 110.627C142.735 110.627 142.709 110.625 142.682 110.619C141.732 110.403 140.797 110.163 139.903 109.906C139.714 109.852 139.605 109.655 139.659 109.465C139.713 109.276 139.911 109.167 140.099 109.222C140.98 109.475 141.902 109.711 142.84 109.924C143.032 109.968 143.153 110.158 143.108 110.35C143.071 110.516 142.924 110.627 142.761 110.627ZM160.107 109.102C160.083 109.102 160.059 109.1 160.034 109.095C159.842 109.055 159.718 108.866 159.758 108.674C159.95 107.746 160.093 106.812 160.184 105.895C160.204 105.7 160.38 105.561 160.573 105.576C160.769 105.596 160.912 105.77 160.893 105.966C160.8 106.906 160.652 107.866 160.455 108.819C160.42 108.987 160.272 109.102 160.107 109.102ZM135.958 108.536C135.913 108.536 135.867 108.527 135.822 108.509C134.891 108.126 134.013 107.711 133.212 107.274C133.04 107.18 132.976 106.963 133.07 106.79C133.165 106.617 133.382 106.554 133.554 106.649C134.331 107.073 135.186 107.478 136.093 107.85C136.275 107.924 136.362 108.132 136.287 108.314C136.231 108.452 136.098 108.536 135.958 108.536ZM129.885 104.878C129.8 104.878 129.716 104.848 129.647 104.787C129.333 104.504 129.027 104.207 128.742 103.904C128.365 103.505 128.008 103.077 127.681 102.631C127.565 102.472 127.599 102.249 127.758 102.133C127.916 102.016 128.14 102.051 128.256 102.21C128.565 102.633 128.903 103.038 129.26 103.415C129.533 103.704 129.824 103.988 130.124 104.257C130.271 104.389 130.283 104.613 130.151 104.76C130.08 104.838 129.982 104.878 129.885 104.878ZM160.594 102.019C160.41 102.019 160.254 101.877 160.239 101.689C160.167 100.751 160.037 99.8178 159.85 98.9145C159.809 98.7214 159.933 98.5334 160.126 98.4935C160.316 98.4543 160.507 98.5768 160.547 98.7699C160.74 99.7031 160.876 100.666 160.95 101.635C160.965 101.83 160.818 102.002 160.622 102.017C160.613 102.019 160.603 102.019 160.594 102.019ZM126.069 98.9708C125.915 98.9708 125.773 98.8696 125.727 98.7143C125.443 97.7419 125.297 96.7637 125.292 95.8076C125.291 95.611 125.45 95.4507 125.646 95.45H125.648C125.844 95.45 126.003 95.6082 126.005 95.8041C126.009 96.6939 126.146 97.6058 126.411 98.5148C126.466 98.7036 126.358 98.901 126.169 98.9565C126.136 98.9665 126.102 98.9708 126.069 98.9708ZM158.917 95.1287C158.78 95.1287 158.649 95.0489 158.591 94.915C158.21 94.0437 157.768 93.2158 157.276 92.4557C157.169 92.2911 157.216 92.0703 157.381 91.9634C157.544 91.858 157.766 91.9029 157.873 92.0689C158.386 92.8618 158.847 93.7231 159.243 94.63C159.321 94.8102 159.239 95.0204 159.059 95.0995C159.013 95.1194 158.965 95.1287 158.917 95.1287ZM126.636 92.0482C126.581 92.0482 126.525 92.0354 126.473 92.0083C126.298 91.9178 126.23 91.7027 126.32 91.5281C126.76 90.6754 127.344 89.876 128.055 89.1515C128.193 89.0104 128.418 89.009 128.559 89.1465C128.699 89.284 128.701 89.5098 128.564 89.6502C127.903 90.3241 127.36 91.0658 126.953 91.8551C126.889 91.9777 126.765 92.0482 126.636 92.0482ZM154.778 89.4058C154.697 89.4058 154.615 89.378 154.548 89.3211C153.857 88.7347 153.089 88.2026 152.265 87.7395C152.094 87.6426 152.033 87.426 152.13 87.2543C152.227 87.0826 152.443 87.0214 152.615 87.1182C153.478 87.6041 154.284 88.1627 155.009 88.7789C155.159 88.9064 155.177 89.1308 155.05 89.2812C154.979 89.3631 154.879 89.4058 154.778 89.4058ZM131.78 87.2978C131.649 87.2978 131.523 87.2251 131.461 87.1004C131.373 86.9245 131.445 86.7107 131.621 86.6231C132.454 86.2085 133.362 85.8473 134.319 85.5481C134.506 85.4875 134.707 85.5937 134.765 85.7818C134.824 85.9698 134.72 86.1693 134.532 86.2277C133.61 86.5155 132.738 86.8632 131.939 87.2607C131.888 87.2864 131.834 87.2978 131.78 87.2978ZM148.496 86.1665C148.464 86.1665 148.431 86.1622 148.398 86.1529C147.532 85.9064 146.609 85.7069 145.657 85.5588C145.463 85.5288 145.33 85.3465 145.36 85.152C145.39 84.9575 145.571 84.8278 145.766 84.8549C146.747 85.0074 147.699 85.2132 148.593 85.4676C148.782 85.5217 148.892 85.7183 148.838 85.9079C148.794 86.0639 148.651 86.1665 148.496 86.1665ZM138.607 85.3814C138.428 85.3814 138.274 85.2467 138.253 85.0643C138.232 84.8691 138.373 84.6932 138.568 84.6711C139.301 84.5906 140.044 84.5429 140.775 84.5307C140.956 84.5272 141.141 84.5258 141.324 84.5258H141.453C141.649 84.5258 141.809 84.6853 141.809 84.882C141.809 85.0786 141.649 85.2382 141.453 85.2382H141.324C141.145 85.2382 140.966 85.2396 140.788 85.2432C140.078 85.2553 139.358 85.3009 138.647 85.3792C138.634 85.3807 138.62 85.3814 138.607 85.3814Z" fill="#00898C"/>
<path d="M237.654 146.253C237.153 146.253 236.651 146.242 236.15 146.22C235.953 146.211 235.801 146.045 235.809 145.849C235.817 145.653 235.977 145.506 236.18 145.508C236.686 145.53 237.188 145.542 237.698 145.541C238.133 145.541 238.568 145.532 239.001 145.517C239.006 145.517 239.01 145.517 239.014 145.517C239.204 145.517 239.363 145.668 239.37 145.86C239.377 146.057 239.223 146.222 239.027 146.229C238.569 146.245 238.133 146.257 237.654 146.253ZM243.262 145.798C243.092 145.798 242.941 145.675 242.912 145.5C242.879 145.306 243.011 145.123 243.205 145.091C244.133 144.936 245.06 144.739 245.96 144.505C246.151 144.457 246.345 144.571 246.394 144.76C246.443 144.951 246.329 145.145 246.139 145.195C245.218 145.433 244.27 145.635 243.322 145.793C243.302 145.797 243.282 145.798 243.262 145.798ZM231.915 145.783C231.896 145.783 231.877 145.782 231.858 145.778C230.923 145.628 229.974 145.438 229.038 145.214C228.846 145.168 228.728 144.976 228.774 144.784C228.82 144.593 229.009 144.472 229.204 144.521C230.123 144.741 231.054 144.927 231.972 145.075C232.166 145.106 232.298 145.289 232.266 145.482C232.238 145.659 232.087 145.783 231.915 145.783ZM225.024 144.003C224.985 144.003 224.945 143.996 224.905 143.983C224.014 143.664 223.115 143.306 222.235 142.918C222.055 142.839 221.973 142.628 222.053 142.448C222.131 142.269 222.343 142.186 222.522 142.267C223.387 142.648 224.269 142.999 225.144 143.312C225.33 143.379 225.426 143.582 225.36 143.768C225.307 143.913 225.171 144.003 225.024 144.003ZM250.101 143.854C249.961 143.854 249.828 143.771 249.772 143.633C249.697 143.451 249.783 143.243 249.965 143.168C250.852 142.802 251.707 142.399 252.509 141.968C252.681 141.876 252.898 141.94 252.991 142.113C253.085 142.286 253.019 142.502 252.846 142.596C252.024 143.037 251.145 143.452 250.236 143.827C250.192 143.846 250.146 143.854 250.101 143.854ZM218.566 141.019C218.506 141.019 218.445 141.004 218.389 140.972C217.559 140.494 216.739 139.983 215.95 139.451C215.786 139.341 215.743 139.119 215.853 138.957C215.963 138.793 216.185 138.751 216.347 138.86C217.122 139.382 217.929 139.885 218.743 140.354C218.913 140.453 218.972 140.67 218.875 140.841C218.809 140.955 218.689 141.019 218.566 141.019ZM256.234 140.279C256.131 140.279 256.029 140.234 255.958 140.149C255.834 139.996 255.856 139.772 256.008 139.647C256.746 139.041 257.422 138.391 258.019 137.715C258.149 137.568 258.374 137.553 258.522 137.684C258.669 137.814 258.683 138.039 258.553 138.187C257.932 138.891 257.227 139.567 256.459 140.198C256.394 140.253 256.314 140.279 256.234 140.279ZM212.74 136.935C212.658 136.935 212.576 136.907 212.509 136.851C211.775 136.229 211.06 135.577 210.386 134.913C210.245 134.775 210.244 134.55 210.381 134.409C210.52 134.268 210.745 134.268 210.885 134.405C211.548 135.056 212.249 135.696 212.97 136.306C213.121 136.434 213.138 136.658 213.012 136.809C212.941 136.891 212.84 136.935 212.74 136.935ZM260.649 134.761C260.596 134.761 260.542 134.749 260.492 134.724C260.315 134.637 260.242 134.424 260.329 134.248C260.723 133.448 261.069 132.6 261.386 131.654C261.448 131.468 261.65 131.366 261.837 131.431C262.023 131.493 262.123 131.695 262.061 131.882C261.734 132.857 261.376 133.735 260.968 134.562C260.906 134.688 260.78 134.761 260.649 134.761ZM207.766 131.85C207.663 131.85 207.559 131.804 207.488 131.717C206.886 130.968 206.309 130.191 205.776 129.406C205.665 129.243 205.706 129.022 205.87 128.912C206.031 128.803 206.254 128.842 206.364 129.006C206.888 129.775 207.453 130.537 208.043 131.271C208.166 131.424 208.142 131.648 207.989 131.772C207.924 131.824 207.845 131.85 207.766 131.85ZM262.803 127.991C262.778 127.991 262.755 127.989 262.73 127.984C262.537 127.944 262.414 127.756 262.452 127.563C262.629 126.701 262.785 125.835 262.933 124.974L262.968 124.775C262.999 124.58 263.187 124.445 263.377 124.481C263.571 124.513 263.702 124.696 263.67 124.89L263.635 125.096C263.486 125.964 263.328 126.837 263.15 127.706C263.117 127.875 262.969 127.991 262.803 127.991ZM57.863 126.884C57.8018 126.884 57.7398 126.868 57.6835 126.836C56.8984 126.375 56.2088 125.78 55.6339 125.066C55.5106 124.913 55.5341 124.689 55.688 124.565C55.8412 124.442 56.0656 124.465 56.1889 124.619C56.7096 125.265 57.3337 125.805 58.044 126.221C58.2135 126.32 58.2705 126.538 58.1708 126.709C58.1045 126.821 57.9856 126.884 57.863 126.884ZM54.1691 121.338C54.0039 121.338 53.8557 121.222 53.8208 121.054C53.6398 120.185 53.5479 119.255 53.5479 118.292L53.5486 118.147C53.55 117.952 53.7096 117.794 53.9048 117.794C53.9048 117.794 53.9062 117.794 53.9077 117.794C54.1043 117.795 54.2625 117.956 54.261 118.153L54.2603 118.289C54.2603 119.206 54.3472 120.087 54.5182 120.91C54.5588 121.102 54.4349 121.291 54.2425 121.331C54.2176 121.336 54.1934 121.338 54.1691 121.338ZM263.977 120.964C263.96 120.964 263.944 120.963 263.928 120.961C263.733 120.934 263.596 120.754 263.623 120.559C263.753 119.624 263.873 118.683 263.982 117.74C264.004 117.545 264.183 117.408 264.377 117.427C264.572 117.45 264.713 117.627 264.69 117.823C264.58 118.771 264.46 119.716 264.329 120.657C264.304 120.836 264.151 120.964 263.977 120.964ZM54.5111 114.286C54.4797 114.286 54.4477 114.282 54.4156 114.273C54.2261 114.221 54.115 114.024 54.167 113.835C54.2739 113.448 54.3943 113.068 54.5268 112.697C54.7091 112.185 54.9115 111.666 55.1466 111.111C55.2235 110.93 55.4323 110.845 55.6132 110.922C55.7942 110.998 55.8789 111.207 55.8027 111.388C55.574 111.93 55.376 112.436 55.1979 112.936C55.0711 113.29 54.9564 113.654 54.8538 114.024C54.8103 114.182 54.6671 114.286 54.5111 114.286ZM264.747 113.883C264.737 113.883 264.728 113.883 264.719 113.882C264.523 113.867 264.376 113.696 264.391 113.5C264.463 112.556 264.523 111.61 264.568 110.666C264.577 110.47 264.75 110.32 264.94 110.327C265.137 110.337 265.288 110.503 265.279 110.7C265.233 111.652 265.174 112.604 265.102 113.554C265.087 113.741 264.931 113.883 264.747 113.883ZM57.2938 107.721C57.2432 107.721 57.1926 107.711 57.1463 107.687C56.9697 107.6 56.8906 107.402 56.9782 107.225C57.4107 106.355 57.8281 105.516 58.2214 104.671C58.304 104.493 58.5149 104.416 58.6944 104.499C58.8732 104.582 58.9502 104.794 58.8668 104.972C58.4707 105.823 58.0511 106.666 57.6315 107.511C57.5674 107.639 57.4313 107.721 57.2938 107.721ZM265.028 106.765C264.831 106.765 264.671 106.606 264.671 106.409C264.671 105.459 264.655 104.504 264.621 103.572C264.614 103.376 264.768 103.21 264.964 103.203C265.146 103.189 265.326 103.35 265.333 103.546C265.367 104.486 265.384 105.449 265.384 106.409C265.384 106.606 265.225 106.765 265.028 106.765ZM60.1114 101.206C60.0772 101.206 60.0423 101.201 60.0074 101.191C59.8193 101.133 59.7132 100.934 59.7702 100.746C59.9868 100.035 60.1499 99.3618 60.2703 98.6879C60.3095 98.4663 60.3444 98.2447 60.3743 98.0232C60.4014 97.8287 60.5781 97.6926 60.7754 97.7182C60.9699 97.7453 61.1067 97.9249 61.0803 98.12C61.049 98.3509 61.0119 98.5824 60.9713 98.8132C60.8459 99.515 60.6757 100.215 60.452 100.953C60.4057 101.107 60.2639 101.206 60.1114 101.206ZM264.697 99.6496C264.516 99.6496 264.361 99.5121 264.343 99.3276C264.252 98.3808 264.139 97.434 264.008 96.5128C263.98 96.3183 264.116 96.1381 264.311 96.1103C264.502 96.0818 264.686 96.2179 264.713 96.4131C264.846 97.3449 264.96 98.3024 265.052 99.2592C265.071 99.4551 264.928 99.6297 264.732 99.6482C264.72 99.6496 264.708 99.6496 264.697 99.6496ZM60.7783 94.164C60.5987 94.164 60.4434 94.0279 60.4242 93.8455C60.3294 92.9472 60.1656 92.0196 59.9383 91.0878C59.892 90.8961 60.0088 90.7038 60.1998 90.6567C60.3907 90.609 60.5838 90.7266 60.6308 90.9182C60.8659 91.8807 61.0347 92.8396 61.133 93.7693C61.1537 93.9652 61.0119 94.1405 60.8167 94.1611C60.8032 94.1633 60.7904 94.164 60.7783 94.164ZM263.603 92.6131C263.44 92.6131 263.291 92.4998 263.256 92.3331C263.051 91.3998 262.82 90.4758 262.572 89.5867C262.519 89.3972 262.63 89.2006 262.819 89.1478C263.01 89.0937 263.205 89.2055 263.258 89.395C263.51 90.297 263.744 91.2338 263.952 92.1799C263.995 92.3723 263.873 92.5625 263.68 92.6045C263.655 92.6102 263.629 92.6131 263.603 92.6131ZM58.9295 87.3098C58.7906 87.3098 58.6588 87.2279 58.6011 87.0918C58.2506 86.259 57.8466 85.3998 57.3992 84.5392C57.3088 84.3647 57.3765 84.1495 57.551 84.059C57.7263 83.9693 57.94 84.0362 58.0312 84.2108C58.4871 85.0885 58.8996 85.9648 59.2572 86.8154C59.3335 86.9963 59.248 87.2058 59.067 87.282C59.0221 87.3012 58.9751 87.3098 58.9295 87.3098ZM261.58 85.7895C261.437 85.7895 261.302 85.7026 261.247 85.5608C260.91 84.6788 260.542 83.8033 260.152 82.9569C260.07 82.7781 260.147 82.5665 260.326 82.4839C260.503 82.4019 260.717 82.4796 260.799 82.6584C261.195 83.519 261.57 84.4102 261.913 85.3058C261.983 85.4896 261.891 85.6955 261.708 85.7653C261.666 85.7817 261.622 85.7895 261.58 85.7895ZM55.5605 81.0398C55.4429 81.0398 55.329 80.9821 55.2606 80.8766C54.8823 80.2896 54.494 79.7118 54.1 79.1455L53.6697 78.5321C53.5557 78.3711 53.5942 78.1488 53.7545 78.0355C53.9155 77.9215 54.1378 77.96 54.2511 78.1203L54.6849 78.7387C55.0839 79.3122 55.4764 79.8971 55.8597 80.4919C55.9659 80.6572 55.9188 80.8773 55.7528 80.9842C55.6937 81.022 55.6267 81.0398 55.5605 81.0398ZM258.48 79.3863C258.36 79.3863 258.242 79.325 258.175 79.2132C257.692 78.4088 257.174 77.6145 256.634 76.8522C256.521 76.6919 256.558 76.4689 256.719 76.3556C256.879 76.2431 257.101 76.2794 257.215 76.4404C257.766 77.2169 258.294 78.027 258.785 78.8463C258.887 79.0151 258.832 79.2338 258.663 79.335C258.606 79.3699 258.543 79.3863 258.48 79.3863ZM51.4413 75.2293C51.3323 75.2293 51.2247 75.1794 51.1549 75.0854L51.0872 74.9935C50.5436 74.2597 49.9993 73.5259 49.4629 72.7885C49.3468 72.6297 49.3824 72.4067 49.5413 72.2906C49.7001 72.1752 49.9231 72.2101 50.0392 72.3689C50.575 73.1049 51.1178 73.8372 51.66 74.5689L51.7284 74.6608C51.8452 74.8189 51.8125 75.0419 51.6543 75.1595C51.5888 75.2065 51.5147 75.2293 51.4413 75.2293ZM254.257 73.6655C254.16 73.6655 254.063 73.6256 253.992 73.5473C253.407 72.894 252.768 72.2243 252.041 71.4984C251.902 71.3594 251.902 71.1336 252.04 70.9947C252.179 70.855 252.406 70.8558 252.545 70.994C253.281 71.7292 253.928 72.4088 254.522 73.0721C254.653 73.2188 254.641 73.4433 254.495 73.5751C254.427 73.6356 254.342 73.6655 254.257 73.6655ZM47.3043 69.4302C47.1881 69.4302 47.0749 69.3739 47.0065 69.2699C46.4444 68.4157 45.9485 67.6185 45.4926 66.8334C45.3936 66.6632 45.4513 66.4452 45.6215 66.3461C45.7911 66.2471 46.0091 66.3041 46.1088 66.4751C46.5584 67.2488 47.0471 68.0346 47.6021 68.8781C47.7103 69.0419 47.6647 69.2628 47.5002 69.3711C47.4396 69.411 47.3712 69.4302 47.3043 69.4302ZM249.201 68.6508C249.114 68.6508 249.027 68.6188 248.958 68.5553L248.564 68.1884C247.999 67.6627 247.434 67.1369 246.874 66.6076C246.731 66.4729 246.725 66.2471 246.859 66.1039C246.995 65.9607 247.22 65.955 247.363 66.0897C247.922 66.6176 248.485 67.1419 249.049 67.6662L249.443 68.0331C249.587 68.1671 249.595 68.3922 249.461 68.5368C249.391 68.6123 249.296 68.6508 249.201 68.6508ZM244.09 63.6895C243.994 63.6895 243.899 63.6518 243.829 63.577C243.126 62.8246 242.507 62.1165 241.938 61.4112C241.815 61.258 241.838 61.0336 241.992 60.9104C242.144 60.7871 242.368 60.8106 242.493 60.9638C243.05 61.6549 243.658 62.3502 244.35 63.0897C244.484 63.2336 244.477 63.4587 244.334 63.5926C244.264 63.6582 244.176 63.6895 244.09 63.6895ZM43.8654 63.2022C43.7272 63.2022 43.5961 63.1217 43.5377 62.9864C43.2599 62.3402 43.0077 61.6905 42.7868 61.0543C42.6978 60.7971 42.613 60.5392 42.5332 60.2806C42.4755 60.0925 42.5809 59.893 42.769 59.8353C42.9585 59.7791 43.1566 59.8831 43.2143 60.0711C43.2912 60.3219 43.3731 60.572 43.46 60.8213C43.6752 61.4411 43.9217 62.0752 44.1924 62.7057C44.2701 62.8859 44.1867 63.0961 44.0058 63.1737C43.9602 63.193 43.9124 63.2022 43.8654 63.2022ZM239.787 58.0329C239.665 58.0329 239.545 57.9695 239.479 57.8548C239.028 57.0747 238.595 56.2383 238.154 55.2979C238.071 55.1198 238.148 54.9075 238.326 54.8242C238.503 54.7408 238.716 54.8171 238.8 54.9959C239.231 55.9177 239.655 56.7356 240.095 57.4979C240.194 57.6682 240.136 57.8862 239.965 57.9845C239.91 58.0172 239.848 58.0329 239.787 58.0329ZM41.9861 56.3566C41.8087 56.3566 41.6548 56.2241 41.6327 56.0438C41.5173 55.097 41.4546 54.1267 41.4453 53.1614C41.4439 52.9648 41.6013 52.8037 41.7987 52.8023H41.8015C41.9967 52.8023 42.1563 52.9598 42.1577 53.1557C42.1663 54.0947 42.2276 55.0379 42.3394 55.9583C42.3629 56.1536 42.224 56.3309 42.0288 56.3552C42.0145 56.3566 42.0003 56.3566 41.9861 56.3566ZM124.22 52.3628C123.624 52.3542 122.998 52.3286 122.378 52.2602C122.182 52.2388 122.041 52.0628 122.063 51.8669C122.085 51.6717 122.261 51.5356 122.456 51.552C123.051 51.6176 123.655 51.6674 124.221 51.6503C124.561 51.6503 124.9 51.6382 125.237 51.6147C125.434 51.5969 125.603 51.7487 125.617 51.9446C125.631 52.1405 125.483 52.3115 125.287 52.325C124.932 52.3499 124.577 52.3628 124.22 52.3628ZM236.807 51.5691C236.665 51.5691 236.531 51.4844 236.476 51.3447L236.135 50.4813C235.9 49.8864 235.664 49.2908 235.424 48.6981C235.351 48.5157 235.439 48.3084 235.621 48.2343C235.802 48.1602 236.011 48.2485 236.085 48.4309C236.325 49.0258 236.561 49.6221 236.796 50.2191L237.138 51.0811C237.211 51.2635 237.122 51.4708 236.939 51.5435C236.895 51.5613 236.851 51.5691 236.807 51.5691ZM129.403 51.3526C129.264 51.3526 129.132 51.2706 129.074 51.1346C128.998 50.9529 129.084 50.7441 129.265 50.6679L129.453 50.5867C130.221 50.2447 130.966 49.8137 131.669 49.3079C131.829 49.1932 132.052 49.2303 132.166 49.3884C132.281 49.548 132.245 49.771 132.086 49.8857C131.343 50.4207 130.555 50.8752 129.743 51.2371L129.541 51.3248C129.496 51.3433 129.449 51.3526 129.403 51.3526ZM118.258 51.3098C118.219 51.3098 118.18 51.3034 118.142 51.2906C117.259 50.9857 116.379 50.6181 115.528 50.1963L115.632 49.8508L115.794 49.5337C116.668 49.9662 117.52 50.3224 118.375 50.6173C118.56 50.6814 118.659 50.8838 118.595 51.0704C118.544 51.2179 118.406 51.3098 118.258 51.3098ZM42.1072 49.2559C42.0893 49.2559 42.0715 49.2545 42.0537 49.2516C41.8592 49.2224 41.7253 49.0408 41.7552 48.8463C41.8977 47.903 42.0922 46.9519 42.3323 46.0194C42.3814 45.8285 42.5788 45.7138 42.7662 45.7629C42.9571 45.8121 43.0718 46.0059 43.0226 46.1968C42.7882 47.1065 42.5994 48.0341 42.4598 48.9531C42.432 49.1298 42.2803 49.2559 42.1072 49.2559ZM111.958 48.0305C111.889 48.0305 111.819 48.0106 111.758 47.9686C111.019 47.4642 110.261 46.9113 109.439 46.2759C109.283 46.1555 109.255 45.9318 109.375 45.7764C109.496 45.6211 109.719 45.5919 109.875 45.7123C110.685 46.3385 111.431 46.8835 112.159 47.3794C112.321 47.4905 112.363 47.7121 112.252 47.8745C112.183 47.9764 112.071 48.0305 111.958 48.0305ZM134.949 46.9997C134.871 46.9997 134.791 46.9733 134.725 46.9206C134.573 46.7966 134.549 46.5722 134.673 46.4191C135.225 45.7373 135.771 44.9678 136.297 44.1308C136.402 43.9655 136.621 43.9142 136.788 44.0189C136.954 44.1236 137.004 44.3438 136.9 44.5098C136.359 45.3704 135.795 46.164 135.225 46.8679C135.156 46.9548 135.053 46.9997 134.949 46.9997ZM234.029 45.0113C233.898 45.0113 233.773 44.9386 233.71 44.8133C233.561 44.5126 233.407 44.2141 233.249 43.9184C232.966 43.3898 232.662 42.8634 232.343 42.3533C232.239 42.1866 232.29 41.9671 232.456 41.8624C232.622 41.7591 232.843 41.809 232.947 41.9764C233.274 42.4993 233.586 43.0393 233.876 43.5815C234.039 43.8835 234.195 44.1885 234.349 44.4962C234.436 44.6722 234.364 44.8859 234.188 44.9735C234.137 44.9999 234.083 45.0113 234.029 45.0113ZM106.343 43.6499C106.262 43.6499 106.181 43.6221 106.114 43.5658L105.232 42.8206C104.8 42.4551 104.369 42.0904 103.937 41.7278C103.786 41.6017 103.767 41.3765 103.893 41.2262C104.019 41.0766 104.244 41.0567 104.395 41.1828C104.827 41.5461 105.26 41.9116 105.692 42.2778L106.573 43.0222C106.723 43.149 106.742 43.3742 106.615 43.5238C106.546 43.6064 106.445 43.6499 106.343 43.6499ZM44.0442 42.4188C43.9979 42.4188 43.9509 42.4096 43.9053 42.3903C43.7244 42.3141 43.6396 42.1046 43.7158 41.9237C44.0898 41.0389 44.5116 40.1654 44.9682 39.3262C45.0616 39.1531 45.2781 39.089 45.4513 39.1837C45.6244 39.2778 45.6885 39.4943 45.5937 39.6667C45.1485 40.4853 44.7374 41.3388 44.3719 42.2015C44.3149 42.3369 44.1832 42.4188 44.0442 42.4188ZM138.645 40.9249C138.593 40.9249 138.54 40.9135 138.49 40.8892C138.314 40.803 138.24 40.5907 138.325 40.4133C138.692 39.6553 139.069 38.8361 139.509 37.8344C139.589 37.6549 139.8 37.5737 139.979 37.652C140.159 37.7311 140.241 37.9413 140.162 38.1215C139.717 39.131 139.337 39.9574 138.966 40.7232C138.904 40.8508 138.778 40.9249 138.645 40.9249ZM100.853 39.1111C100.776 39.1111 100.698 39.0861 100.632 39.0348C99.8894 38.4485 99.1385 37.8707 98.3798 37.3043C98.2223 37.1868 98.1895 36.9631 98.3078 36.8057C98.4261 36.6482 98.6491 36.6154 98.8065 36.7337C99.5702 37.3036 100.325 37.885 101.074 38.4756C101.229 38.5974 101.255 38.8211 101.133 38.9757C101.062 39.064 100.958 39.1111 100.853 39.1111ZM230.119 39.079C230.019 39.079 229.919 39.0362 229.848 38.9543C229.246 38.2497 228.597 37.5601 227.92 36.9047C227.779 36.7679 227.774 36.5421 227.911 36.401C228.049 36.2592 228.275 36.2564 228.415 36.3925C229.109 37.0636 229.773 37.7703 230.389 38.492C230.517 38.6416 230.499 38.866 230.35 38.9942C230.284 39.0512 230.202 39.079 230.119 39.079ZM47.5964 36.2635C47.5216 36.2635 47.446 36.24 47.3819 36.1908C47.2252 36.0719 47.1938 35.8489 47.3128 35.6921C47.8949 34.9227 48.5204 34.1804 49.1708 33.4851C49.3047 33.3412 49.5306 33.334 49.6745 33.4687C49.8184 33.6033 49.8255 33.8285 49.6909 33.9724C49.0568 34.6499 48.4477 35.373 47.8799 36.1224C47.8108 36.2151 47.7046 36.2635 47.5964 36.2635ZM95.1105 34.8964C95.0421 34.8964 94.973 34.8764 94.9117 34.8351C94.1138 34.2972 93.3123 33.7786 92.5308 33.2941C92.3634 33.1908 92.3121 32.9707 92.4154 32.804C92.5194 32.6366 92.7388 32.5853 92.9055 32.6886C93.6949 33.178 94.5042 33.7009 95.3092 34.2445C95.4724 34.3542 95.5158 34.5758 95.4054 34.7389C95.337 34.8415 95.2245 34.8964 95.1105 34.8964ZM141.539 34.4134C141.492 34.4134 141.443 34.4041 141.397 34.3841C141.217 34.3058 141.134 34.0963 141.212 33.9154L142.345 31.3008C142.424 31.1205 142.631 31.0372 142.814 31.1156C142.994 31.1939 143.077 31.4034 142.999 31.5843L141.866 34.1989C141.807 34.3329 141.676 34.4134 141.539 34.4134ZM224.9 34.2523C224.826 34.2523 224.753 34.2303 224.69 34.1832C223.939 33.6325 223.152 33.1068 222.346 32.6188C222.179 32.5162 222.125 32.2975 222.227 32.1293C222.329 31.9619 222.547 31.9071 222.717 32.0089C223.538 32.5076 224.344 33.0455 225.111 33.6083C225.27 33.7252 225.304 33.9474 225.188 34.1063C225.118 34.2018 225.01 34.2523 224.9 34.2523ZM188.341 31.5188L188.286 31.1633V30.8071C189.161 30.7914 190.038 30.6625 191.011 30.4145C191.204 30.3647 191.396 30.4808 191.445 30.6717C191.493 30.8627 191.378 31.0564 191.188 31.1049C190.16 31.3663 189.229 31.5024 188.341 31.5188ZM89.0129 31.2182C88.9566 31.2182 88.8996 31.2046 88.8469 31.1768C87.9998 30.7287 87.147 30.3041 86.3121 29.9166C86.134 29.8339 86.0563 29.6216 86.139 29.4435C86.2223 29.2647 86.4339 29.1863 86.612 29.2704C87.4584 29.6637 88.3225 30.0925 89.1803 30.5471C89.3541 30.639 89.4204 30.8548 89.3285 31.0287C89.2636 31.1491 89.1404 31.2182 89.0129 31.2182ZM52.5926 31.216C52.4857 31.216 52.3795 31.1683 52.309 31.0764C52.1893 30.9204 52.2193 30.6967 52.3753 30.577C53.1433 29.9885 53.9469 29.4421 54.7647 28.9541C54.9336 28.8529 55.1516 28.9085 55.2534 29.0773C55.3546 29.2462 55.299 29.4649 55.1302 29.566C54.3358 30.0405 53.5543 30.5713 52.8084 31.1433C52.7443 31.1918 52.6681 31.216 52.5926 31.216ZM218.744 30.6959C218.697 30.6959 218.647 30.686 218.601 30.6653C217.744 30.287 216.862 29.9401 215.976 29.6352C215.79 29.571 215.692 29.3687 215.755 29.1821C215.82 28.9961 216.023 28.8971 216.208 28.9612C217.112 29.2732 218.014 29.6273 218.888 30.0142C219.069 30.0932 219.15 30.3041 219.07 30.4837C219.012 30.6176 218.881 30.6959 218.744 30.6959ZM184.129 30.6895C184.082 30.6895 184.035 30.6803 183.991 30.661C183.138 30.2998 182.284 29.8147 181.45 29.2219C181.29 29.108 181.253 28.885 181.367 28.7254C181.481 28.5651 181.704 28.5288 181.863 28.642C182.654 29.2056 183.463 29.6644 184.269 30.0056C184.45 30.0826 184.535 30.2913 184.458 30.473C184.4 30.6083 184.268 30.6895 184.129 30.6895ZM195.149 29.7534C195.004 29.7534 194.867 29.6637 194.814 29.519C194.747 29.3345 194.842 29.13 195.027 29.0624C195.431 28.9149 195.837 28.7703 196.243 28.6342C196.747 28.4654 197.254 28.3115 197.764 28.1726C197.957 28.1191 198.151 28.2331 198.202 28.4226C198.253 28.6121 198.142 28.808 197.952 28.86C197.455 28.9961 196.959 29.145 196.469 29.3096C196.068 29.4435 195.669 29.586 195.27 29.7313C195.232 29.7463 195.19 29.7534 195.149 29.7534ZM211.974 28.5245C211.949 28.5245 211.925 28.5224 211.901 28.5174C210.981 28.3272 210.045 28.1768 209.119 28.0693C208.924 28.0465 208.783 27.8698 208.806 27.6746C208.83 27.4787 209.011 27.3369 209.202 27.3618C210.148 27.4715 211.104 27.6254 212.045 27.8192C212.237 27.8591 212.362 28.0472 212.322 28.2402C212.287 28.4091 212.138 28.5245 211.974 28.5245ZM82.5128 28.3172C82.4721 28.3172 82.4315 28.3108 82.3916 28.2958C81.5075 27.9759 80.6035 27.6824 79.7044 27.4245C79.5156 27.3704 79.4066 27.173 79.4608 26.9835C79.5149 26.794 79.7087 26.6843 79.9017 26.7399C80.8158 27.0021 81.7355 27.3006 82.6346 27.6261C82.8191 27.6931 82.9153 27.8976 82.8483 28.0828C82.7956 28.2274 82.6588 28.3172 82.5128 28.3172ZM202.05 28.0636C201.872 28.0636 201.718 27.9296 201.697 27.7487C201.675 27.5535 201.815 27.3761 202.01 27.3533C202.957 27.2428 203.925 27.1759 204.885 27.1559C204.888 27.1559 204.891 27.1559 204.893 27.1559C205.087 27.1559 205.245 27.3105 205.249 27.5043C205.253 27.7009 205.097 27.8641 204.901 27.8684C203.962 27.8883 203.016 27.9531 202.092 28.0614C202.078 28.0628 202.065 28.0636 202.05 28.0636ZM144.372 27.8769C144.325 27.8769 144.277 27.8676 144.23 27.8477C144.05 27.7693 143.967 27.5599 144.045 27.3789L145.179 24.7643C145.257 24.5841 145.464 24.5 145.647 24.5791C145.828 24.6568 145.91 24.8669 145.833 25.0472L144.699 27.6617C144.641 27.7971 144.51 27.8769 144.372 27.8769ZM58.7942 27.7643C58.6503 27.7643 58.5149 27.6767 58.4608 27.5342C58.3909 27.3504 58.4836 27.1445 58.6681 27.0747C59.5572 26.7377 60.4819 26.4421 61.4166 26.1963C61.6075 26.1472 61.8013 26.2597 61.8519 26.4499C61.9017 26.6401 61.7885 26.8353 61.5983 26.8852C60.6878 27.1253 59.7873 27.4131 58.921 27.7415C58.8789 27.7572 58.8362 27.7643 58.7942 27.7643ZM75.6408 26.4763C75.6208 26.4763 75.5994 26.4749 75.5788 26.4713C74.6491 26.3082 73.7087 26.1792 72.7825 26.0873C72.5866 26.0681 72.4434 25.8935 72.4634 25.6976C72.4826 25.5024 72.6621 25.3635 72.8531 25.3784C73.797 25.4718 74.7552 25.6036 75.702 25.7696C75.8958 25.8038 76.0255 25.9883 75.9913 26.1821C75.9606 26.3545 75.8103 26.4763 75.6408 26.4763ZM178.489 26.4286C178.392 26.4286 178.297 26.3894 178.226 26.3124C177.619 25.647 177.014 24.9246 176.38 24.1032C176.259 23.9472 176.288 23.7235 176.444 23.6031C176.598 23.4841 176.822 23.5112 176.943 23.6672C177.566 24.473 178.157 25.1811 178.752 25.8315C178.885 25.9769 178.875 26.202 178.73 26.3352C178.661 26.3972 178.575 26.4286 178.489 26.4286ZM65.7061 26.1172C65.5272 26.1172 65.3727 25.9826 65.352 25.8009C65.3299 25.6057 65.471 25.429 65.6662 25.4069C66.6058 25.3015 67.5726 25.236 68.5401 25.2132C68.7224 25.1968 68.8998 25.3642 68.9048 25.5608C68.9091 25.7575 68.7538 25.9206 68.5572 25.9256C67.6111 25.9477 66.6657 26.0118 65.7467 26.1158C65.7324 26.1165 65.7189 26.1172 65.7061 26.1172ZM147.205 21.3412C147.158 21.3412 147.11 21.3319 147.064 21.312C146.883 21.2336 146.801 21.0241 146.878 20.8432L147.544 19.3093C147.701 18.9503 147.859 18.5891 148.022 18.2272C148.102 18.0476 148.313 17.9671 148.493 18.0484C148.672 18.1289 148.752 18.3397 148.672 18.5193C148.51 18.879 148.353 19.2388 148.197 19.5943L147.532 21.1267C147.474 21.2607 147.343 21.3412 147.205 21.3412ZM174.186 20.7563C174.071 20.7563 173.959 20.7007 173.89 20.5974C173.505 20.0203 173.13 19.4454 172.763 18.8812C172.62 18.661 172.474 18.4402 172.324 18.2193C172.214 18.0569 172.255 17.8346 172.418 17.7242C172.58 17.6152 172.801 17.6551 172.912 17.8183C173.066 18.0434 173.214 18.2678 173.36 18.4922C173.726 19.0536 174.099 19.6264 174.483 20.2013C174.592 20.3652 174.547 20.586 174.384 20.695C174.323 20.737 174.254 20.7563 174.186 20.7563ZM170.019 14.9828C169.919 14.9828 169.82 14.9415 169.75 14.8603C169.112 14.1265 168.456 13.444 167.801 12.8313C167.658 12.6974 167.65 12.4715 167.785 12.3276C167.92 12.1837 168.145 12.1766 168.289 12.3105C168.961 12.9396 169.634 13.6399 170.288 14.3922C170.417 14.5404 170.401 14.7655 170.253 14.8952C170.185 14.9536 170.101 14.9828 170.019 14.9828ZM150.285 14.9194C150.222 14.9194 150.159 14.903 150.101 14.8688C149.933 14.7677 149.877 14.549 149.979 14.3801C150.521 13.4732 151.063 12.6945 151.637 11.9999C151.762 11.8482 151.987 11.8275 152.138 11.9522C152.29 12.0776 152.311 12.302 152.186 12.4537C151.636 13.1206 151.113 13.87 150.589 14.7463C150.524 14.8574 150.406 14.9194 150.285 14.9194ZM164.645 10.3507C164.583 10.3507 164.522 10.335 164.466 10.3022C163.621 9.81208 162.773 9.4345 161.943 9.18016C161.754 9.12246 161.649 8.92369 161.706 8.73561C161.764 8.54754 161.96 8.43996 162.151 8.49909C163.033 8.7691 163.932 9.16876 164.824 9.68669C164.994 9.78572 165.052 10.003 164.953 10.1733C164.887 10.2873 164.767 10.3507 164.645 10.3507ZM155.147 9.83345C155.021 9.83345 154.898 9.76577 154.835 9.6468C154.741 9.47368 154.806 9.25782 154.978 9.16378C155.473 8.89662 155.992 8.67364 156.52 8.50266C156.927 8.37015 157.345 8.26613 157.764 8.19275C157.947 8.16069 158.141 8.28822 158.175 8.482C158.209 8.67577 158.08 8.86029 157.886 8.89448C157.501 8.96216 157.116 9.05763 156.74 9.18016C156.252 9.33832 155.774 9.5435 155.318 9.79071C155.263 9.81921 155.205 9.83345 155.147 9.83345Z" fill="#00898C"/>
<path d="M201.583 55.2631C202.786 54.0605 206.793 52.9983 207.9 52.4055C209.006 51.8128 209.79 50.611 210.574 49.8266C211.358 49.0422 212.003 48.2585 212.003 47.7007C212.003 47.1429 211.559 46.8643 211.559 46.8643C212.443 45.9802 215.121 44.3032 214.337 43.5188C213.553 42.7352 209.471 46.62 209.471 46.62C209.703 45.4352 207.9 46.132 207.9 46.132C208.1 45.1211 206.183 45.7138 206.183 45.7138C206.183 44.8076 204.284 46.08 203.535 46.8287C202.786 47.5782 202.42 48.0833 202.42 48.8149C202.42 49.5466 199.006 52.5088 199.006 52.5088C199.597 54.4267 201.583 55.2631 201.583 55.2631Z" fill="#FCA475"/>
<path d="M208.498 49.5716C208.456 49.5716 208.416 49.5574 208.382 49.5282C208.307 49.4641 208.3 49.3508 208.364 49.2767C209.09 48.4417 209.919 47.7001 210.827 47.0725C211.052 46.9157 211.294 46.7782 211.577 46.8459C211.788 46.8965 211.967 47.0668 212.058 47.3019C212.131 47.4942 212.137 47.6987 212.137 47.8754C212.137 47.9737 212.057 48.0535 211.959 48.0535C211.86 48.0535 211.78 47.9737 211.78 47.8754C211.78 47.7243 211.776 47.5648 211.725 47.4294C211.688 47.3332 211.607 47.2199 211.494 47.1929C211.354 47.1622 211.188 47.2563 211.03 47.366C210.146 47.9765 209.34 48.6989 208.633 49.5111C208.597 49.551 208.547 49.5716 208.498 49.5716Z" fill="#E07E58"/>
<path d="M206.835 50.009C206.726 50.009 206.62 49.9869 206.526 49.942C206.25 49.8109 206.105 49.4882 206.204 49.2218C206.238 49.1292 206.342 49.0829 206.433 49.1171C206.525 49.1513 206.572 49.2538 206.537 49.3457C206.503 49.4384 206.57 49.5687 206.677 49.62C206.793 49.6749 206.954 49.6592 207.096 49.583C207.249 49.501 207.376 49.3636 207.49 49.2275C207.813 48.8399 208.088 48.3982 208.352 47.9715C208.539 47.6723 208.73 47.3624 208.94 47.0689L208.977 47.0183C209.088 46.8651 209.193 46.7198 209.241 46.5602C209.284 46.422 209.277 46.2382 209.168 46.1406C209.077 46.0601 208.917 46.0387 208.69 46.0765C208.445 46.1171 208.207 46.1919 207.984 46.298C207.895 46.3408 207.79 46.303 207.746 46.2139C207.704 46.1249 207.741 46.0187 207.83 45.9767C208.084 45.8563 208.354 45.7715 208.632 45.7259C208.975 45.6689 209.228 45.7188 209.404 45.8755C209.604 46.0537 209.674 46.3636 209.582 46.6649C209.515 46.8815 209.389 47.0575 209.265 47.2277L209.23 47.2776C209.027 47.5611 208.837 47.8661 208.655 48.1603C208.383 48.5984 208.103 49.0508 207.762 49.4569C207.625 49.6207 207.47 49.7882 207.263 49.8986C207.126 49.972 206.978 50.009 206.835 50.009Z" fill="#E07E58"/>
<path d="M205.598 49.8401C205.588 49.8401 205.579 49.8401 205.569 49.8401C205.219 49.8301 204.844 49.5972 204.823 49.2246C204.818 49.1263 204.894 49.0422 204.992 49.0372C205.086 49.0258 205.173 49.107 205.18 49.2053C205.188 49.3635 205.397 49.4789 205.579 49.4846C205.659 49.4853 205.774 49.476 205.872 49.4141C205.982 49.3435 206.06 49.2139 206.143 49.0757L206.166 49.0365C206.324 48.7772 206.503 48.53 206.675 48.2906C206.842 48.0576 207.016 47.8168 207.166 47.5703C207.513 46.999 207.665 46.4718 207.62 46.003C207.611 45.904 207.591 45.8413 207.56 45.8121C207.514 45.7679 207.405 45.7643 207.314 45.7672C206.961 45.7772 206.609 45.8228 206.265 45.9033C206.166 45.9296 206.073 45.8662 206.051 45.7708C206.028 45.6753 206.088 45.5791 206.183 45.557C206.551 45.4708 206.928 45.4217 207.304 45.411C207.416 45.411 207.645 45.4024 207.804 45.5528C207.933 45.6746 207.963 45.8484 207.974 45.9688C208.027 46.5152 207.858 47.1158 207.47 47.7548C207.313 48.0135 207.135 48.2607 206.963 48.4986C206.795 48.7323 206.62 48.9738 206.471 49.221C206.352 49.4183 206.244 49.5986 206.063 49.714C205.933 49.7974 205.773 49.8401 205.598 49.8401Z" fill="#E07E58"/>
<path d="M204.358 49.4926C204.322 49.4926 204.286 49.4905 204.252 49.4855C204.196 49.4784 204.114 49.4606 204.049 49.3958C203.996 49.3466 203.974 49.2825 203.959 49.2269C203.857 48.8408 203.922 48.4504 203.998 48.0828C204.086 47.6603 204.192 47.2421 204.297 46.8246C204.321 46.7292 204.42 46.6729 204.514 46.6957C204.609 46.7199 204.667 46.8161 204.643 46.9123C204.539 47.3255 204.435 47.7387 204.348 48.1554C204.28 48.481 204.222 48.8251 204.304 49.1364C204.488 49.1592 204.689 49.0709 204.856 48.9013C205.018 48.7361 205.131 48.5159 205.24 48.2851C205.609 47.5171 205.942 46.6907 205.895 45.8458C205.888 45.7182 205.857 45.6491 205.83 45.6377C205.81 45.6278 205.757 45.6335 205.738 45.6349C205.389 45.6648 205.054 45.8109 204.794 46.0467C204.721 46.1129 204.608 46.1065 204.543 46.0346C204.477 45.9619 204.482 45.8493 204.556 45.7831C204.872 45.4953 205.282 45.3172 205.708 45.2801C205.79 45.273 205.881 45.2716 205.971 45.3107C206.142 45.3841 206.237 45.558 206.251 45.8265C206.302 46.7505 205.95 47.6282 205.562 48.439C205.438 48.6976 205.31 48.9469 205.109 49.1514C204.893 49.3694 204.619 49.4926 204.358 49.4926Z" fill="#E07E58"/>
<path d="M191.722 208.658V215.801C194.509 216.951 197.262 215.941 197.262 215.941L197.82 209.216L191.722 208.658Z" fill="#FCA676"/>
<path d="M179.699 224.304C178.271 224.304 177.051 222.771 179.491 221.272C181.93 219.774 191.722 215.802 191.722 215.802C193.185 216.603 197.262 215.941 197.262 215.941C197.262 215.941 199.283 221.203 199.701 222.353C200.12 223.503 198.691 223.921 196.252 223.921C193.812 223.921 179.699 224.304 179.699 224.304Z" fill="#003A3A"/>
<path d="M210.852 209.25L211.402 216.361C214.278 217.506 216.953 216.5 216.953 216.5L216.993 209.805L210.852 209.25Z" fill="#FCA676"/>
<path d="M199.421 224.861C197.993 224.861 196.773 223.328 199.212 221.83C201.652 220.331 211.443 216.359 211.443 216.359C212.907 217.16 216.984 216.499 216.984 216.499C216.984 216.499 219.005 221.761 219.423 222.91C219.841 224.06 218.413 224.478 215.973 224.478C213.534 224.478 199.421 224.861 199.421 224.861Z" fill="#003A3A"/>
<path d="M198.198 127.67C195.411 133.245 189.072 168.48 189.072 174.584C189.072 180.687 190.78 213.918 190.78 213.918L198.616 214.537C198.616 214.537 200.409 175.669 201.431 172.975C202.454 170.28 204.591 165.704 204.591 165.704C204.591 165.704 208.355 201.735 209.005 205.452C209.655 209.169 210.851 215.151 210.851 215.151L217.821 214.408C217.821 214.408 217.322 177.529 217.694 171.767C218.066 166.006 222.809 134.839 222.809 128.502C219.777 125.47 201.451 125.811 198.198 127.67Z" fill="#009397"/>
<path d="M210.464 79.5745C207.454 77.3389 195.02 73.2125 191.86 71.8461C188.701 70.479 187.772 69.55 187.772 69.55L202.082 55.2396C198.551 53.2883 199.387 51.9874 199.387 51.9874C187.678 60.072 177.271 67.1342 176.713 69.2714C176.156 71.4087 175.877 73.0815 181.081 76.0551C186.284 79.0287 201.245 89.1572 204.59 89.1572C207.937 89.1572 214.584 82.635 210.464 79.5745Z" fill="url(#paint3_linear_275_3600)"/>
<path d="M210.464 79.5745C207.454 77.3389 195.02 73.2125 191.86 71.8461C188.701 70.479 187.772 69.55 187.772 69.55L202.082 55.2396C198.551 53.2883 199.387 51.9874 199.387 51.9874C187.678 60.072 177.271 67.1342 176.713 69.2714C176.156 71.4087 175.877 73.0815 181.081 76.0551C186.284 79.0287 201.245 89.1572 204.59 89.1572C207.937 89.1572 214.584 82.635 210.464 79.5745Z" fill="url(#paint4_linear_275_3600)"/>
<path d="M225.265 66.7943C223.503 69.9097 220.907 78.2835 220.907 78.2835C214.94 78.9902 211.488 77.4664 210.735 76.1121L214.199 67.5174L225.265 66.7943Z" fill="url(#paint5_linear_275_3600)"/>
<path d="M218.066 49.6948C214.218 51.042 212.664 53.4307 210.327 60.2942C208.798 64.7881 206.764 70.8451 208.673 71.4671C211.952 72.5343 220.237 71.3281 224.102 68.1073C227.967 64.8857 230.176 58.8857 229.538 55.734C228.901 52.5822 223.844 47.6722 218.066 49.6948Z" fill="url(#paint6_linear_275_3600)"/>
<path d="M219.768 61.7432C220.395 60.763 221.533 60.1674 222.683 60.3498C223.776 60.5229 224.595 61.2873 223.816 62.9579C222.4 65.9957 220.865 66.0413 220.62 66.7943C220.375 67.5473 219.88 69.9012 220.48 71.0831C221.082 72.2643 222.506 73.8195 222.664 73.8708C222.822 73.9221 224.585 67.1177 227.756 64.9484C230.063 64.6756 231.296 63.1752 231.212 60.2892C232.969 58.7874 232.627 55.1605 229.887 54.2685C229.542 49.0365 224.769 46.9278 222.726 48.3533C218.999 43.0515 208.499 47.3061 212.421 53.6587C214.255 56.6309 218.352 54.0541 218.352 54.0541C218.934 56.4621 221.51 56.1486 221.51 56.1486C218.723 59.3367 218.555 61.8423 219.061 62.1771C219.299 62.336 219.56 62.0695 219.768 61.7432Z" fill="#006A6B"/>
<path d="M221.027 77.901C214.569 79.1014 210.735 76.1128 210.735 76.1128C210.735 76.1128 203.474 78.8314 201.049 85.7996C196.322 99.3783 198.199 116.147 198.199 127.67C198.199 127.67 216.49 126.884 222.809 130.416C222.809 130.416 226.703 92.4094 225.264 87.0199C223.826 81.6305 223.257 80.1308 221.027 77.901Z" fill="url(#paint7_linear_275_3600)"/>
<path d="M221.027 77.901C214.569 79.1014 210.735 76.1128 210.735 76.1128C210.735 76.1128 203.474 78.8314 201.049 85.7996C196.322 99.3783 198.199 116.147 198.199 127.67C198.199 127.67 216.49 126.884 222.809 130.416C222.809 130.416 226.703 92.4094 225.264 87.0199C223.826 81.6305 223.257 80.1308 221.027 77.901Z" fill="url(#paint8_linear_275_3600)"/>
<path d="M210.886 76.2424C209.913 76.9776 208.828 78.4879 209.671 78.9759C210.515 79.4639 219.967 79.221 221.596 78.297C221.368 77.4891 221.006 77.4549 221.006 77.4549C218.692 77.3267 211.788 76.6919 210.886 76.2424Z" fill="white"/>
<path d="M225.266 127.534C224.199 127.163 223.828 125.955 222.016 125.955C220.204 125.955 217.77 127.064 217.247 127.064C216.725 127.064 216.15 128.283 217.021 128.501C216.899 128.501 211.602 129.991 211.602 129.991C211.602 129.991 210.452 130.392 210.609 131.089C210.766 131.785 211.672 131.733 211.672 131.733C210.766 131.785 210.195 132.903 210.594 133.301C210.994 133.701 211.968 133.458 211.968 133.458C211.201 133.737 211.306 134.626 211.951 134.922C212.595 135.218 214.268 134.747 214.268 134.747C213.519 135.026 213.745 136.23 214.878 136.107C216.011 135.984 219.855 134.782 220.947 134.619C222.039 134.457 225.791 131.983 226.406 131.367C227.022 130.752 227.591 129.788 227.591 129.788C227.591 129.788 226.796 127.163 225.266 127.534Z" fill="#FCA475"/>
<path d="M217.27 128.698C217.208 128.698 217.146 128.695 217.084 128.69C216.96 128.68 216.802 128.657 216.671 128.56C216.496 128.433 216.404 128.205 216.419 127.934C216.44 127.556 216.654 127.198 216.977 127C217.061 126.95 217.171 126.975 217.222 127.059C217.273 127.143 217.247 127.252 217.164 127.304C216.942 127.439 216.79 127.695 216.775 127.954C216.768 128.066 216.793 128.209 216.882 128.273C216.94 128.316 217.031 128.328 217.112 128.335C217.593 128.374 218.059 128.231 218.555 128.081C218.943 127.963 219.343 127.842 219.759 127.809C219.865 127.792 219.944 127.876 219.95 127.973C219.958 128.071 219.885 128.156 219.787 128.164C219.41 128.193 219.045 128.304 218.659 128.421C218.212 128.558 217.75 128.698 217.27 128.698Z" fill="#E07E58"/>
<path d="M211.911 131.856C211.729 131.856 211.543 131.841 211.357 131.803C211.215 131.773 211.065 131.733 210.929 131.649C210.577 131.433 210.432 130.952 210.606 130.576C210.647 130.488 210.754 130.45 210.843 130.49C210.932 130.532 210.971 130.638 210.929 130.727C210.832 130.936 210.919 131.225 211.116 131.346C211.205 131.401 211.319 131.43 211.43 131.453C211.866 131.543 212.324 131.485 212.715 131.414C212.898 131.382 213.045 131.363 213.183 131.345C213.37 131.322 213.53 131.3 213.737 131.25C214.488 131.067 215.379 130.791 216.245 130.472C216.337 130.436 216.439 130.485 216.473 130.577C216.507 130.669 216.459 130.771 216.367 130.805C215.49 131.129 214.585 131.409 213.822 131.595C213.595 131.65 213.417 131.673 213.229 131.697C213.096 131.714 212.954 131.733 212.778 131.764C212.513 131.813 212.218 131.856 211.911 131.856Z" fill="#E07E58"/>
<path d="M211.414 133.62C211.355 133.62 211.295 133.617 211.236 133.609C210.921 133.571 210.656 133.419 210.513 133.192C210.347 132.927 210.349 132.563 210.519 132.264C210.653 132.028 210.884 131.83 211.187 131.692C211.273 131.65 211.382 131.691 211.423 131.78C211.464 131.87 211.424 131.976 211.335 132.016C211.172 132.091 210.951 132.224 210.83 132.439C210.725 132.624 210.719 132.849 210.815 133.002C210.899 133.136 211.073 133.231 211.278 133.255C211.481 133.279 211.69 133.243 211.922 133.197C212.348 133.113 212.809 133.036 213.26 132.962C213.507 132.921 213.749 132.881 213.983 132.84C215.215 132.623 216.182 132.418 217.189 132.063C217.283 132.029 217.383 132.079 217.416 132.172C217.449 132.264 217.4 132.365 217.308 132.398C216.277 132.762 215.295 132.971 214.044 133.19C213.81 133.231 213.566 133.271 213.319 133.312C212.871 133.386 212.413 133.463 211.992 133.546C211.798 133.586 211.607 133.62 211.414 133.62Z" fill="#E07E58"/>
<path d="M212.801 135.183C212.637 135.183 212.472 135.17 212.308 135.143C211.881 135.071 211.588 134.919 211.41 134.677C211.264 134.476 211.217 134.21 211.283 133.948C211.349 133.686 211.514 133.473 211.738 133.365C211.825 133.322 211.933 133.359 211.976 133.447C212.019 133.536 211.982 133.642 211.894 133.685C211.767 133.746 211.669 133.877 211.629 134.034C211.59 134.191 211.615 134.353 211.699 134.466C211.818 134.63 212.037 134.736 212.367 134.792C213.021 134.901 213.668 134.736 214.352 134.561C214.538 134.514 214.724 134.466 214.91 134.424C215.911 134.201 216.849 133.947 217.626 133.693C217.724 133.661 217.82 133.713 217.85 133.806C217.881 133.9 217.83 134 217.737 134.03C216.951 134.288 216 134.546 214.989 134.772C214.806 134.813 214.623 134.86 214.44 134.906C213.906 135.043 213.358 135.183 212.801 135.183Z" fill="#E07E58"/>
<path d="M214.941 136.243C214.797 136.243 214.654 136.229 214.508 136.196C214.168 136.119 213.898 135.939 213.747 135.69C213.558 135.376 213.598 134.966 213.839 134.734C213.911 134.667 214.024 134.668 214.091 134.74C214.159 134.811 214.156 134.924 214.085 134.991C213.965 135.106 213.95 135.336 214.052 135.506C214.151 135.669 214.346 135.794 214.588 135.848C215.026 135.95 215.509 135.826 215.936 135.716L218.729 134.994C218.824 134.972 218.922 135.027 218.946 135.122C218.97 135.217 218.913 135.314 218.818 135.339L216.025 136.061C215.688 136.148 215.318 136.243 214.941 136.243Z" fill="#E07E58"/>
<path d="M221.927 79.5744C216.477 78.4652 212.77 87.4837 218.774 92.8019C223.061 96.5984 236.558 108.671 236.558 108.671L225.265 127.535C227.637 128.557 227.358 130.416 227.358 130.416C227.358 130.416 245.757 110.622 246.221 109.229C246.686 107.835 244.827 103.746 241.482 100.401C238.138 97.0558 227.916 80.7941 221.927 79.5744Z" fill="url(#paint9_linear_275_3600)"/>
<path d="M221.927 79.5744C216.477 78.4652 212.77 87.4837 218.774 92.8019C223.061 96.5984 236.558 108.671 236.558 108.671L225.265 127.535C227.637 128.557 227.358 130.416 227.358 130.416C227.358 130.416 245.757 110.622 246.221 109.229C246.686 107.835 244.827 103.746 241.482 100.401C238.138 97.0558 227.916 80.7941 221.927 79.5744Z" fill="url(#paint10_linear_275_3600)"/>
<path d="M206.13 178.361C206.046 178.361 205.971 178.302 205.955 178.216C204.34 169.566 202.573 142.408 202.556 142.136C202.549 142.037 202.624 141.952 202.721 141.946C202.837 141.929 202.905 142.014 202.911 142.111C202.929 142.385 204.695 169.521 206.306 178.15C206.324 178.247 206.26 178.34 206.164 178.358C206.152 178.361 206.14 178.361 206.13 178.361Z" fill="#3C4FA0"/>
<path d="M209.374 62.0552C210.611 61.6748 211.983 63.0448 212.702 64.0913C213.422 65.1378 215.727 64.9889 219.11 60.2934L219.902 61.5059C217.973 64.4062 216.732 70.8279 215.521 71.3131C214.31 71.799 210.385 72.4437 208.532 71.7583C206.679 71.073 206.535 69.7906 206.902 67.803C207.271 65.8153 208.777 62.8203 209.374 62.0552Z" fill="#052624"/>
<path d="M209.107 63.5221C209.926 63.9895 211.856 64.6228 211.672 65.0488C211.184 66.1752 208.699 65.7848 208.497 65.0424C208.294 64.3008 208.828 63.6618 209.107 63.5221Z" fill="url(#paint11_linear_275_3600)"/>
<path d="M96.5954 76.6969C112.315 76.6969 125.058 63.9538 125.058 48.2344C125.058 32.5149 112.315 19.7718 96.5954 19.7718C80.8759 19.7718 68.1328 32.5149 68.1328 48.2344C68.1328 63.9538 80.8759 76.6969 96.5954 76.6969Z" fill="url(#paint12_linear_275_3600)"/>
<path d="M96.5954 76.6969C112.315 76.6969 125.058 63.9538 125.058 48.2344C125.058 32.5149 112.315 19.7718 96.5954 19.7718C80.8759 19.7718 68.1328 32.5149 68.1328 48.2344C68.1328 63.9538 80.8759 76.6969 96.5954 76.6969Z" fill="url(#paint13_linear_275_3600)"/>
<path d="M96.5954 72.7409C110.13 72.7409 121.102 61.7689 121.102 48.2344C121.102 34.6998 110.13 23.7278 96.5954 23.7278C83.0608 23.7278 72.0889 34.6998 72.0889 48.2344C72.0889 61.7689 83.0608 72.7409 96.5954 72.7409Z" fill="url(#paint14_linear_275_3600)"/>
<path d="M103.513 47.6866H89.6787V40.5624C89.6787 38.054 91.712 36.0207 94.2204 36.0207H98.9708C101.479 36.0207 103.512 38.054 103.512 40.5624V47.6866H103.513Z" fill="#117974"/>
<path d="M100.65 34.5218C100.65 35.4679 100.322 36.342 99.7762 37.0331C99.0324 37.9692 97.8833 38.5726 96.5938 38.5726C95.3043 38.5726 94.1552 37.9692 93.4164 37.0331C92.8707 36.3413 92.543 35.4679 92.543 34.5218C92.543 34.0537 92.6206 33.6063 92.7667 33.1903C92.9177 32.7586 93.1357 32.3582 93.4164 32.0048C94.1545 31.0687 95.3043 30.4653 96.5938 30.4653C97.8833 30.4653 99.0324 31.0687 99.7762 32.0048C100.057 32.3582 100.276 32.7586 100.426 33.1903C100.572 33.6063 100.65 34.0537 100.65 34.5218Z" fill="url(#paint15_linear_275_3600)"/>
<path d="M90.728 52.2432H76.8936V45.119C76.8936 42.6106 78.9268 40.5773 81.4352 40.5773H86.1856C88.6941 40.5773 90.7273 42.6106 90.7273 45.119V52.2432H90.728Z" fill="url(#paint16_linear_275_3600)"/>
<path d="M90.728 52.2432H76.8936V45.119C76.8936 42.6106 78.9268 40.5773 81.4352 40.5773H86.1856C88.6941 40.5773 90.7273 42.6106 90.7273 45.119V52.2432H90.728Z" fill="url(#paint17_linear_275_3600)"/>
<path d="M87.8644 39.0784C87.8644 40.0252 87.5367 40.8987 86.991 41.5904C86.2472 42.5266 85.0981 43.13 83.8086 43.13C82.5192 43.13 81.37 42.5266 80.6312 41.5904C80.0855 40.8987 79.7578 40.0252 79.7578 39.0784C79.7578 38.6104 79.8355 38.163 79.9815 37.7469C80.1326 37.3152 80.3505 36.9148 80.6312 36.5615C81.3693 35.6253 82.5192 35.0219 83.8086 35.0219C85.0981 35.0219 86.2472 35.6253 86.991 36.5615C87.2717 36.9148 87.4904 37.3152 87.6407 37.7469C87.7861 38.1637 87.8644 38.6104 87.8644 39.0784Z" fill="url(#paint18_linear_275_3600)"/>
<path d="M116.297 52.2432H102.463V45.1191C102.463 42.6106 104.496 40.5774 107.005 40.5774H111.755C114.263 40.5774 116.297 42.6106 116.297 45.1191L116.297 52.2432Z" fill="url(#paint19_linear_275_3600)"/>
<path d="M113.434 39.0784C113.434 40.0252 113.106 40.8987 112.56 41.5904C111.817 42.5266 110.667 43.13 109.378 43.13C108.088 43.13 106.939 42.5266 106.201 41.5904C105.655 40.8987 105.327 40.0252 105.327 39.0784C105.327 38.6104 105.405 38.163 105.551 37.7469C105.702 37.3152 105.92 36.9148 106.201 36.5615C106.939 35.6253 108.088 35.0219 109.378 35.0219C110.667 35.0219 111.817 35.6253 112.56 36.5615C112.841 36.9148 113.06 37.3152 113.21 37.7469C113.355 38.1637 113.434 38.6104 113.434 39.0784Z" fill="url(#paint20_linear_275_3600)"/>
<path d="M103.513 56.408H89.6787V49.2838C89.6787 46.7754 91.712 44.7422 94.2204 44.7422H98.9708C101.479 44.7422 103.512 46.7754 103.512 49.2838V56.408H103.513Z" fill="url(#paint21_linear_275_3600)"/>
<path d="M103.513 56.408H89.6787V49.2838C89.6787 46.7754 91.712 44.7422 94.2204 44.7422H98.9708C101.479 44.7422 103.512 46.7754 103.512 49.2838V56.408H103.513Z" fill="url(#paint22_linear_275_3600)"/>
<path d="M100.65 43.2433C100.65 44.1893 100.322 45.0635 99.7762 45.7552C99.0324 46.6914 97.8833 47.2948 96.5938 47.2948C95.3043 47.2948 94.1552 46.6914 93.4164 45.7552C92.8707 45.0635 92.543 44.1901 92.543 43.2433C92.543 42.7752 92.6206 42.3278 92.7667 41.9118C92.9177 41.48 93.1357 41.0796 93.4164 40.7263C94.1545 39.7902 95.3043 39.1867 96.5938 39.1867C97.8833 39.1867 99.0324 39.7902 99.7762 40.7263C100.057 41.0796 100.276 41.48 100.426 41.9118C100.572 42.3278 100.65 42.7752 100.65 43.2433Z" fill="url(#paint23_linear_275_3600)"/>
<path d="M90.728 60.9655H76.8936V53.8413C76.8936 51.3328 78.9268 49.2996 81.4352 49.2996H86.1856C88.6941 49.2996 90.7273 51.3328 90.7273 53.8413V60.9655H90.728Z" fill="url(#paint24_linear_275_3600)"/>
<path d="M87.8644 47.8006C87.8644 48.7467 87.5367 49.6209 86.991 50.3126C86.2472 51.2488 85.0981 51.8522 83.8086 51.8522C82.5192 51.8522 81.37 51.2488 80.6312 50.3126C80.0855 49.6209 79.7578 48.7474 79.7578 47.8006C79.7578 47.3326 79.8355 46.8852 79.9815 46.4691C80.1326 46.0374 80.3505 45.637 80.6312 45.2837C81.3693 44.3475 82.5192 43.7441 83.8086 43.7441C85.0981 43.7441 86.2472 44.3475 86.991 45.2837C87.2717 45.637 87.4904 46.0374 87.6407 46.4691C87.7861 46.8852 87.8644 47.3326 87.8644 47.8006Z" fill="url(#paint25_linear_275_3600)"/>
<path d="M116.297 60.9654H102.463V53.8412C102.463 51.3328 104.496 49.2996 107.005 49.2996H111.755C114.263 49.2996 116.297 51.3328 116.297 53.8412L116.297 60.9654Z" fill="url(#paint26_linear_275_3600)"/>
<path d="M116.297 60.9654H102.463V53.8412C102.463 51.3328 104.496 49.2996 107.005 49.2996H111.755C114.263 49.2996 116.297 51.3328 116.297 53.8412L116.297 60.9654Z" fill="url(#paint27_linear_275_3600)"/>
<path d="M113.434 47.8007C113.434 48.7468 113.106 49.6209 112.56 50.3127C111.817 51.2488 110.667 51.8522 109.378 51.8522C108.088 51.8522 106.939 51.2488 106.201 50.3127C105.655 49.6209 105.327 48.7475 105.327 47.8007C105.327 47.3326 105.405 46.8852 105.551 46.4692C105.702 46.0375 105.92 45.6371 106.201 45.2837C106.939 44.3476 108.088 43.7442 109.378 43.7442C110.667 43.7442 111.817 44.3476 112.56 45.2837C112.841 45.6371 113.06 46.0375 113.21 46.4692C113.355 46.8852 113.434 47.3326 113.434 47.8007Z" fill="url(#paint28_linear_275_3600)"/>
<path d="M103.513 65.1188H89.6787V57.9946C89.6787 55.4862 91.712 53.453 94.2204 53.453H98.9708C101.479 53.453 103.512 55.4862 103.512 57.9946V65.1188H103.513Z" fill="#117974"/>
<path d="M100.65 51.954C100.65 52.9001 100.322 53.7743 99.7762 54.4653C99.0324 55.4014 97.8833 56.0049 96.5938 56.0049C95.3043 56.0049 94.1552 55.4014 93.4164 54.4653C92.8707 53.7736 92.543 52.9001 92.543 51.954C92.543 51.486 92.6206 51.0386 92.7667 50.6225C92.9177 50.1908 93.1357 49.7904 93.4164 49.4371C94.1545 48.5009 95.3043 47.8982 96.5938 47.8982C97.8833 47.8982 99.0324 48.5017 99.7762 49.4371C100.057 49.7904 100.276 50.1908 100.426 50.6225C100.572 51.0393 100.65 51.486 100.65 51.954Z" fill="url(#paint29_linear_275_3600)"/>
<path d="M46.6917 207.333H36.8418V224.861H46.6917V207.333Z" fill="url(#paint30_linear_275_3600)"/>
<path d="M46.6917 207.333H36.8418V224.861H46.6917V207.333Z" fill="url(#paint31_linear_275_3600)"/>
<path d="M60.6312 194.26H50.7812V224.861H60.6312V194.26Z" fill="url(#paint32_linear_275_3600)"/>
<path d="M60.6312 194.26H50.7812V224.861H60.6312V194.26Z" fill="url(#paint33_linear_275_3600)"/>
<path d="M60.6312 191.472H50.7812V194.26H60.6312V191.472Z" fill="url(#paint34_linear_275_3600)"/>
<path d="M74.5687 197.332H64.7188V224.861H74.5687V197.332Z" fill="url(#paint35_linear_275_3600)"/>
<path d="M74.5687 197.332H64.7188V224.861H74.5687V197.332Z" fill="url(#paint36_linear_275_3600)"/>
<path d="M88.5081 192.959H78.6582V224.861H88.5081V192.959Z" fill="url(#paint37_linear_275_3600)"/>
<path d="M88.5081 192.959H78.6582V224.861H88.5081V192.959Z" fill="url(#paint38_linear_275_3600)"/>
<path d="M102.447 167.126H92.5967V224.861H102.447V167.126Z" fill="url(#paint39_linear_275_3600)"/>
<path d="M102.447 167.126H92.5967V224.861H102.447V167.126Z" fill="url(#paint40_linear_275_3600)"/>
<path d="M102.447 167.126H92.5967V178.927H102.447V167.126Z" fill="url(#paint41_linear_275_3600)"/>
<path d="M46.6917 207.333H36.8418V213.234H46.6917V207.333Z" fill="url(#paint42_linear_275_3600)"/>
<path d="M163.955 38.3467C161.232 43.0686 156.131 46.2453 150.289 46.2453C141.576 46.2453 134.51 39.1802 134.51 30.4659C134.51 21.7516 141.575 14.6865 150.289 14.6865C154.241 14.6865 157.854 16.1399 160.617 18.5407L150.289 30.4659L163.955 38.3467Z" fill="url(#paint43_linear_275_3600)"/>
<path d="M166.062 30.4659C166.062 33.3377 165.298 36.0264 163.954 38.3467L150.288 30.4659L160.616 18.5415C163.954 21.4303 166.062 25.7041 166.062 30.4659Z" fill="url(#paint44_linear_275_3600)"/>
<path d="M166.062 30.4659C166.062 33.3377 165.298 36.0264 163.954 38.3467L150.288 30.4659L160.616 18.5415C163.954 21.4303 166.062 25.7041 166.062 30.4659Z" fill="url(#paint45_linear_275_3600)"/>
<path d="M84.8273 133.371V132.15C84.8273 130.981 84.0066 129.972 82.8617 129.734L82.8581 129.733C81.9918 129.553 81.3072 128.916 81.0158 128.08C80.8406 127.578 80.6382 127.089 80.4096 126.614C80.0256 125.816 80.0583 124.882 80.5435 124.141L80.5442 124.14C81.1854 123.162 81.0522 121.869 80.2258 121.042L79.3616 120.177C78.5345 119.35 77.2414 119.218 76.2633 119.859L76.2619 119.86C75.5209 120.346 74.587 120.378 73.7883 119.994C73.3139 119.765 72.8244 119.563 72.3222 119.387C71.4865 119.096 70.8496 118.411 70.6694 117.545L70.6686 117.542C70.4307 116.397 69.4219 115.577 68.2528 115.577H67.031C65.862 115.577 64.8532 116.397 64.6152 117.542L64.6145 117.546C64.4343 118.412 63.7974 119.097 62.9617 119.388C62.4594 119.563 61.97 119.766 61.4955 119.994C60.6976 120.378 59.7629 120.346 59.0227 119.86L59.0213 119.859C58.0438 119.218 56.7501 119.351 55.923 120.177L55.0588 121.042C54.2324 121.868 54.0992 123.162 54.7404 124.14C55.2262 124.881 55.2583 125.816 54.8743 126.613C54.6456 127.089 54.4426 127.579 54.2673 128.081C53.9759 128.917 53.2913 129.554 52.425 129.734H52.4236C51.2787 129.972 50.458 130.981 50.458 132.15V133.371C50.458 134.541 51.2787 135.549 52.4236 135.787L52.4257 135.788C53.292 135.968 53.9766 136.605 54.268 137.441C54.4433 137.943 54.6463 138.433 54.875 138.908C55.259 139.706 55.2262 140.641 54.7411 141.381L54.7404 141.382C54.0992 142.359 54.2324 143.653 55.0588 144.48L55.923 145.344C56.7501 146.171 58.0431 146.304 59.0213 145.663H59.022C59.7629 145.177 60.6969 145.145 61.4948 145.529C61.97 145.758 62.4594 145.96 62.9617 146.136C63.7974 146.427 64.4343 147.112 64.6145 147.978L64.6152 147.981C64.8532 149.126 65.862 149.947 67.031 149.947H68.2528C69.4219 149.947 70.4307 149.126 70.6686 147.981L70.6694 147.979C70.8496 147.113 71.4865 146.428 72.3222 146.137C72.8244 145.961 73.3146 145.758 73.789 145.53C74.5869 145.146 75.5216 145.178 76.2626 145.664H76.2633C77.2407 146.305 78.5345 146.171 79.3616 145.345L80.2258 144.481C81.0522 143.654 81.1854 142.361 80.5442 141.383L80.5428 141.38C80.0569 140.64 80.0249 139.706 80.4088 138.908C80.6368 138.433 80.8399 137.944 81.0151 137.442C81.3065 136.607 81.9911 135.97 82.8574 135.789L82.8617 135.789C84.0066 135.549 84.8273 134.541 84.8273 133.371ZM66.6057 138.742C64.0944 138.324 62.0712 136.296 61.6594 133.783C60.979 129.635 64.5198 126.095 68.6767 126.779C71.193 127.193 73.222 129.222 73.6323 131.739C74.3091 135.895 70.7556 139.431 66.6057 138.742Z" fill="url(#paint46_linear_275_3600)"/>
<path d="M110.86 127.201V126.187C110.86 125.216 110.179 124.379 109.228 124.181L109.226 124.181C108.506 124.031 107.938 123.502 107.696 122.809C107.551 122.392 107.383 121.986 107.193 121.592C106.875 120.93 106.901 120.154 107.304 119.54L107.305 119.538C107.837 118.727 107.727 117.653 107.041 116.967L106.323 116.249C105.637 115.563 104.563 115.453 103.751 115.985L103.751 115.986C103.136 116.389 102.36 116.416 101.697 116.097C101.303 115.907 100.897 115.739 100.481 115.593C99.7868 115.351 99.2581 114.783 99.1085 114.063L99.1078 114.061C98.9105 113.11 98.0727 112.429 97.1024 112.429H96.0879C95.1176 112.429 94.2798 113.11 94.0824 114.061L94.0817 114.063C93.9321 114.783 93.4035 115.351 92.7096 115.593C92.2928 115.738 91.886 115.906 91.4928 116.096C90.8302 116.414 90.0551 116.387 89.4403 115.984L89.4396 115.983C88.6281 115.451 87.5545 115.562 86.8677 116.248L86.1503 116.965C85.4643 117.651 85.3538 118.725 85.886 119.537C86.2893 120.152 86.3163 120.928 85.9972 121.59C85.8077 121.985 85.6388 122.391 85.4935 122.808C85.2513 123.502 84.6835 124.031 83.9639 124.181H83.9625C83.0121 124.378 82.3311 125.216 82.3311 126.186V127.2C82.3311 128.171 83.0121 129.009 83.9625 129.206L83.9646 129.207C84.6835 129.356 85.252 129.885 85.4942 130.579C85.6395 130.996 85.8084 131.402 85.9979 131.797C86.3163 132.46 86.29 133.235 85.8867 133.85V133.851C85.3546 134.662 85.465 135.736 86.151 136.423L86.8685 137.14C87.5545 137.826 88.6281 137.937 89.4403 137.404H89.441C90.0558 137.001 90.8316 136.974 91.4935 137.293C91.8874 137.483 92.2942 137.651 92.711 137.797C93.4049 138.039 93.9335 138.607 94.0831 139.327L94.0838 139.329C94.2812 140.279 95.119 140.96 96.0893 140.96H97.1038C98.0741 140.96 98.9119 140.279 99.1092 139.329L99.11 139.327C99.2596 138.608 99.7882 138.039 100.481 137.797C100.898 137.652 101.305 137.483 101.699 137.293C102.361 136.974 103.137 137.001 103.752 137.404H103.753C104.564 137.937 105.638 137.826 106.325 137.14L107.042 136.423C107.728 135.737 107.839 134.663 107.306 133.851L107.306 133.849C106.902 133.235 106.875 132.459 107.194 131.797C107.384 131.403 107.552 130.997 107.697 130.58C107.94 129.887 108.507 129.358 109.227 129.208L109.231 129.207C110.179 129.009 110.86 128.171 110.86 127.201ZM95.7352 131.658C93.6507 131.311 91.9708 129.628 91.6288 127.542C91.0646 124.099 94.0033 121.161 97.4536 121.728C99.5417 122.072 101.227 123.756 101.566 125.845C102.129 129.296 99.1791 132.231 95.7352 131.658Z" fill="url(#paint47_linear_275_3600)"/>
<path d="M110.86 127.201V126.187C110.86 125.216 110.179 124.379 109.228 124.181L109.226 124.181C108.506 124.031 107.938 123.502 107.696 122.809C107.551 122.392 107.383 121.986 107.193 121.592C106.875 120.93 106.901 120.154 107.304 119.54L107.305 119.538C107.837 118.727 107.727 117.653 107.041 116.967L106.323 116.249C105.637 115.563 104.563 115.453 103.751 115.985L103.751 115.986C103.136 116.389 102.36 116.416 101.697 116.097C101.303 115.907 100.897 115.739 100.481 115.593C99.7868 115.351 99.2581 114.783 99.1085 114.063L99.1078 114.061C98.9105 113.11 98.0727 112.429 97.1024 112.429H96.0879C95.1176 112.429 94.2798 113.11 94.0824 114.061L94.0817 114.063C93.9321 114.783 93.4035 115.351 92.7096 115.593C92.2928 115.738 91.886 115.906 91.4928 116.096C90.8302 116.414 90.0551 116.387 89.4403 115.984L89.4396 115.983C88.6281 115.451 87.5545 115.562 86.8677 116.248L86.1503 116.965C85.4643 117.651 85.3538 118.725 85.886 119.537C86.2893 120.152 86.3163 120.928 85.9972 121.59C85.8077 121.985 85.6388 122.391 85.4935 122.808C85.2513 123.502 84.6835 124.031 83.9639 124.181H83.9625C83.0121 124.378 82.3311 125.216 82.3311 126.186V127.2C82.3311 128.171 83.0121 129.009 83.9625 129.206L83.9646 129.207C84.6835 129.356 85.252 129.885 85.4942 130.579C85.6395 130.996 85.8084 131.402 85.9979 131.797C86.3163 132.46 86.29 133.235 85.8867 133.85V133.851C85.3546 134.662 85.465 135.736 86.151 136.423L86.8685 137.14C87.5545 137.826 88.6281 137.937 89.4403 137.404H89.441C90.0558 137.001 90.8316 136.974 91.4935 137.293C91.8874 137.483 92.2942 137.651 92.711 137.797C93.4049 138.039 93.9335 138.607 94.0831 139.327L94.0838 139.329C94.2812 140.279 95.119 140.96 96.0893 140.96H97.1038C98.0741 140.96 98.9119 140.279 99.1092 139.329L99.11 139.327C99.2596 138.608 99.7882 138.039 100.481 137.797C100.898 137.652 101.305 137.483 101.699 137.293C102.361 136.974 103.137 137.001 103.752 137.404H103.753C104.564 137.937 105.638 137.826 106.325 137.14L107.042 136.423C107.728 135.737 107.839 134.663 107.306 133.851L107.306 133.849C106.902 133.235 106.875 132.459 107.194 131.797C107.384 131.403 107.552 130.997 107.697 130.58C107.94 129.887 108.507 129.358 109.227 129.208L109.231 129.207C110.179 129.009 110.86 128.171 110.86 127.201ZM95.7352 131.658C93.6507 131.311 91.9708 129.628 91.6288 127.542C91.0646 124.099 94.0033 121.161 97.4536 121.728C99.5417 122.072 101.227 123.756 101.566 125.845C102.129 129.296 99.1791 132.231 95.7352 131.658Z" fill="url(#paint48_linear_275_3600)"/>
<path d="M50.7806 100.02C59.6113 100.02 66.7701 92.8614 66.7701 84.0306C66.7701 75.1998 59.6113 68.0411 50.7806 68.0411C41.9498 68.0411 34.791 75.1998 34.791 84.0306C34.791 92.8614 41.9498 100.02 50.7806 100.02Z" fill="url(#paint49_linear_275_3600)"/>
<path d="M50.781 97.4746C58.2059 97.4746 64.2251 91.4555 64.2251 84.0306C64.2251 76.6056 58.2059 70.5865 50.781 70.5865C43.356 70.5865 37.3369 76.6056 37.3369 84.0306C37.3369 91.4555 43.356 97.4746 50.781 97.4746Z" fill="url(#paint50_linear_275_3600)"/>
<path d="M52.5716 80.6532C52.5716 79.6587 51.6988 79.0296 50.3802 79.0296C49.0814 79.0296 48.0862 79.5981 47.4372 80.5314L44.9814 79.0902C46.0771 77.4259 47.985 76.3708 50.725 76.3708C53.7691 76.3708 55.88 77.7309 55.88 80.126C55.88 83.3732 52.4704 83.7387 52.4704 85.8895H49.4056C49.4056 83.0477 52.5716 82.4186 52.5716 80.6532ZM48.9995 89.1367C48.9995 88.1016 49.8117 87.3307 50.9472 87.3307C52.0843 87.3307 52.8957 88.1023 52.8957 89.1367C52.8957 90.1519 52.0836 90.984 50.9472 90.984C49.8117 90.984 48.9995 90.1519 48.9995 89.1367Z" fill="#FFC431"/>
<path d="M196.431 39.5279C201.656 39.5279 205.892 35.2921 205.892 30.067C205.892 24.8418 201.656 20.606 196.431 20.606C191.206 20.606 186.97 24.8418 186.97 30.067C186.97 35.2921 191.206 39.5279 196.431 39.5279Z" fill="url(#paint51_linear_275_3600)"/>
<path d="M196.43 38.0226C200.824 38.0226 204.386 34.4607 204.386 30.067C204.386 25.6732 200.824 22.1114 196.43 22.1114C192.036 22.1114 188.475 25.6732 188.475 30.067C188.475 34.4607 192.036 38.0226 196.43 38.0226Z" fill="url(#paint52_linear_275_3600)"/>
<path d="M195.551 32.2847C195.288 32.2847 195.023 32.2562 194.76 32.1992C193.801 31.9897 192.98 31.4191 192.45 30.5927C191.356 28.8864 191.853 26.6074 193.559 25.5131C195.266 24.4189 197.545 24.9168 198.639 26.6224C199.734 28.3286 199.235 30.6076 197.529 31.7019C196.93 32.0859 196.247 32.2847 195.551 32.2847ZM195.54 26.1956C195.095 26.1956 194.644 26.3189 194.242 26.5768C193.123 27.2949 192.796 28.7896 193.514 29.9088C193.862 30.4509 194.401 30.8256 195.03 30.9631C195.659 31.1006 196.304 30.9845 196.846 30.6369C197.966 29.9187 198.292 28.4241 197.574 27.3042C197.114 26.5867 196.335 26.1956 195.54 26.1956Z" fill="#FFC431"/>
<path d="M199.652 35.6424C199.444 35.6424 199.24 35.5398 199.119 35.3517L196.655 31.5104C196.466 31.2161 196.552 30.825 196.846 30.6369C197.139 30.4488 197.53 30.5336 197.719 30.8278L200.183 34.6692C200.372 34.9635 200.287 35.3546 199.993 35.5434C199.887 35.6103 199.769 35.6424 199.652 35.6424Z" fill="#FFC431"/>
<path d="M50.4589 155.176C51.0196 158.2 53.3855 160.565 56.409 161.126C53.3848 161.686 51.0196 164.052 50.4589 167.076C49.8982 164.052 47.5323 161.686 44.5088 161.126C47.5323 160.566 49.8982 158.2 50.4589 155.176Z" fill="url(#paint53_linear_275_3600)"/>
<path d="M50.4589 155.176C51.0196 158.2 53.3855 160.565 56.409 161.126C53.3848 161.686 51.0196 164.052 50.4589 167.076C49.8982 164.052 47.5323 161.686 44.5088 161.126C47.5323 160.566 49.8982 158.2 50.4589 155.176Z" fill="url(#paint54_linear_275_3600)"/>
<path d="M242.268 180.479C242.829 183.502 245.195 185.868 248.219 186.429C245.195 186.989 242.829 189.355 242.268 192.379C241.708 189.355 239.342 186.989 236.318 186.429C239.343 185.868 241.709 183.503 242.268 180.479Z" fill="url(#paint55_linear_275_3600)"/>
<path d="M242.268 180.479C242.829 183.502 245.195 185.868 248.219 186.429C245.195 186.989 242.829 189.355 242.268 192.379C241.708 189.355 239.342 186.989 236.318 186.429C239.343 185.868 241.709 183.503 242.268 180.479Z" fill="url(#paint56_linear_275_3600)"/>
<path d="M246.293 77.8218C246.854 80.8453 249.22 83.2113 252.243 83.772C249.219 84.3326 246.854 86.6986 246.293 89.7221C245.732 86.6979 243.366 84.3326 240.343 83.772C243.366 83.2113 245.732 80.8453 246.293 77.8218Z" fill="url(#paint57_linear_275_3600)"/>
<path d="M246.293 77.8218C246.854 80.8453 249.22 83.2113 252.243 83.772C249.219 84.3326 246.854 86.6986 246.293 89.7221C245.732 86.6979 243.366 84.3326 240.343 83.772C243.366 83.2113 245.732 80.8453 246.293 77.8218Z" fill="url(#paint58_linear_275_3600)"/>
<path d="M125.059 2.46416C125.619 5.48767 127.985 7.85361 131.009 8.41429C127.985 8.97496 125.619 11.3409 125.059 14.3644C124.498 11.3409 122.132 8.97496 119.108 8.41429C122.132 7.85361 124.498 5.48838 125.059 2.46416Z" fill="url(#paint59_linear_275_3600)"/>
<path d="M125.059 2.46416C125.619 5.48767 127.985 7.85361 131.009 8.41429C127.985 8.97496 125.619 11.3409 125.059 14.3644C124.498 11.3409 122.132 8.97496 119.108 8.41429C122.132 7.85361 124.498 5.48838 125.059 2.46416Z" fill="url(#paint60_linear_275_3600)"/>
<path d="M164.124 55.9391C164.499 57.9588 166.078 59.539 168.098 59.913C166.078 60.2877 164.498 61.8672 164.124 63.8869C163.75 61.8672 162.17 60.287 160.15 59.913C162.17 59.5383 163.75 57.9581 164.124 55.9391Z" fill="url(#paint61_linear_275_3600)"/>
<path d="M164.124 55.9391C164.499 57.9588 166.078 59.539 168.098 59.913C166.078 60.2877 164.498 61.8672 164.124 63.8869C163.75 61.8672 162.17 60.287 160.15 59.913C162.17 59.5383 163.75 57.9581 164.124 55.9391Z" fill="url(#paint62_linear_275_3600)"/>
<path d="M36.8411 114.92C37.2158 116.94 38.7959 118.52 40.8149 118.894C38.7952 119.269 37.2151 120.848 36.8411 122.868C36.4663 120.848 34.8862 119.268 32.8672 118.894C34.8869 118.52 36.467 116.94 36.8411 114.92Z" fill="url(#paint63_linear_275_3600)"/>
<path d="M36.8411 114.92C37.2158 116.94 38.7959 118.52 40.8149 118.894C38.7952 119.269 37.2151 120.848 36.8411 122.868C36.4663 120.848 34.8862 119.268 32.8672 118.894C34.8869 118.52 36.467 116.94 36.8411 114.92Z" fill="url(#paint64_linear_275_3600)"/>
<defs>
<linearGradient id="paint0_linear_275_3600" x1="136.442" y1="-10.9036" x2="137.975" y2="211.821" gradientUnits="userSpaceOnUse">
<stop stop-color="#F0FFFC"/>
<stop offset="0.9959" stop-color="#D4FFF5"/>
</linearGradient>
<radialGradient id="paint1_radial_275_3600" cx="0" cy="0" r="1" gradientUnits="userSpaceOnUse" gradientTransform="translate(135.527 44.8852) scale(130.516 130.516)">
<stop stop-color="#FFCB2A"/>
<stop offset="1" stop-color="#F8BD00"/>
</radialGradient>
<linearGradient id="paint2_linear_275_3600" x1="112.438" y1="201.782" x2="167.214" y2="199.733" gradientUnits="userSpaceOnUse">
<stop stop-color="#009297"/>
<stop offset="0.2805" stop-color="#00FFF1"/>
<stop offset="0.7459" stop-color="#009297"/>
<stop offset="1" stop-color="#00D3CD"/>
</linearGradient>
<linearGradient id="paint3_linear_275_3600" x1="183.262" y1="52.2245" x2="205.373" y2="93.8458" gradientUnits="userSpaceOnUse">
<stop stop-color="#9571CB"/>
<stop offset="0.9959" stop-color="#6237C0"/>
</linearGradient>
<linearGradient id="paint4_linear_275_3600" x1="176.038" y1="71.4415" x2="211.257" y2="70.5198" gradientUnits="userSpaceOnUse">
<stop stop-color="#009297"/>
<stop offset="0.2805" stop-color="#00FFF1"/>
<stop offset="0.7459" stop-color="#009297"/>
<stop offset="1" stop-color="#00D3CD"/>
</linearGradient>
<linearGradient id="paint5_linear_275_3600" x1="216.709" y1="77.7979" x2="218.033" y2="71.2945" gradientUnits="userSpaceOnUse">
<stop stop-color="#FFC085"/>
<stop offset="1" stop-color="#FA976E"/>
</linearGradient>
<linearGradient id="paint6_linear_275_3600" x1="210.778" y1="58.8407" x2="227.761" y2="64.3703" gradientUnits="userSpaceOnUse">
<stop stop-color="#FFC085"/>
<stop offset="1" stop-color="#FA976E"/>
</linearGradient>
<linearGradient id="paint7_linear_275_3600" x1="212.187" y1="78.3223" x2="211.49" y2="110.521" gradientUnits="userSpaceOnUse">
<stop stop-color="#9571CB"/>
<stop offset="0.9959" stop-color="#6237C0"/>
</linearGradient>
<linearGradient id="paint8_linear_275_3600" x1="197.527" y1="104.534" x2="225.194" y2="104.145" gradientUnits="userSpaceOnUse">
<stop offset="0.2805" stop-color="#00FFF1"/>
<stop offset="1" stop-color="#00D3CD"/>
</linearGradient>
<linearGradient id="paint9_linear_275_3600" x1="231.758" y1="74.7441" x2="229.946" y2="128.408" gradientUnits="userSpaceOnUse">
<stop stop-color="#9571CB"/>
<stop offset="0.9959" stop-color="#6237C0"/>
</linearGradient>
<linearGradient id="paint10_linear_275_3600" x1="215.358" y1="106.139" x2="245.861" y2="105.635" gradientUnits="userSpaceOnUse">
<stop stop-color="#009297"/>
<stop offset="0.2805" stop-color="#00FFF1"/>
<stop offset="0.7459" stop-color="#009297"/>
<stop offset="1" stop-color="#00D3CD"/>
</linearGradient>
<linearGradient id="paint11_linear_275_3600" x1="208.452" y1="64.6378" x2="211.684" y2="64.6378" gradientUnits="userSpaceOnUse">
<stop stop-color="#FFC085"/>
<stop offset="1" stop-color="#FA976E"/>
</linearGradient>
<linearGradient id="paint12_linear_275_3600" x1="96.4315" y1="17.1734" x2="96.7411" y2="75.7139" gradientUnits="userSpaceOnUse">
<stop stop-color="#9571CB"/>
<stop offset="0.9959" stop-color="#6237C0"/>
</linearGradient>
<linearGradient id="paint13_linear_275_3600" x1="67.5097" y1="49.5655" x2="124.229" y2="48.0044" gradientUnits="userSpaceOnUse">
<stop stop-color="#009297"/>
<stop offset="0.2805" stop-color="#00FFF1"/>
<stop offset="0.7459" stop-color="#009297"/>
<stop offset="1" stop-color="#00D3CD"/>
</linearGradient>
<linearGradient id="paint14_linear_275_3600" x1="96.4543" y1="21.4912" x2="96.7209" y2="71.8941" gradientUnits="userSpaceOnUse">
<stop stop-color="#F5F0FF"/>
<stop offset="0.9959" stop-color="#D2C1F7"/>
</linearGradient>
<linearGradient id="paint15_linear_275_3600" x1="96.5964" y1="30.6693" x2="96.5964" y2="40.8302" gradientUnits="userSpaceOnUse">
<stop stop-color="#FFC085"/>
<stop offset="1" stop-color="#FA976E"/>
</linearGradient>
<linearGradient id="paint16_linear_275_3600" x1="86.2921" y1="39.7915" x2="81.9896" y2="54.6453" gradientUnits="userSpaceOnUse">
<stop stop-color="#9571CB"/>
<stop offset="0.9959" stop-color="#6237C0"/>
</linearGradient>
<linearGradient id="paint17_linear_275_3600" x1="76.7421" y1="46.6831" x2="90.5222" y2="46.2333" gradientUnits="userSpaceOnUse">
<stop offset="0.2805" stop-color="#00FFF1"/>
<stop offset="1" stop-color="#00D3CD"/>
</linearGradient>
<linearGradient id="paint18_linear_275_3600" x1="83.8107" y1="35.2262" x2="83.8107" y2="45.3872" gradientUnits="userSpaceOnUse">
<stop stop-color="#FFC085"/>
<stop offset="1" stop-color="#FA976E"/>
</linearGradient>
<linearGradient id="paint19_linear_275_3600" x1="108.603" y1="40.5667" x2="109.834" y2="53.2302" gradientUnits="userSpaceOnUse">
<stop offset="0.0041" stop-color="#F2830B"/>
<stop offset="1" stop-color="#FAAD1E"/>
</linearGradient>
<linearGradient id="paint20_linear_275_3600" x1="109.38" y1="35.2262" x2="109.38" y2="45.3872" gradientUnits="userSpaceOnUse">
<stop stop-color="#FFC085"/>
<stop offset="1" stop-color="#FA976E"/>
</linearGradient>
<linearGradient id="paint21_linear_275_3600" x1="97.2869" y1="57.1824" x2="95.5572" y2="45.8891" gradientUnits="userSpaceOnUse">
<stop stop-color="#9571CB"/>
<stop offset="0.9959" stop-color="#6237C0"/>
</linearGradient>
<linearGradient id="paint22_linear_275_3600" x1="89.5273" y1="50.8479" x2="103.307" y2="50.3981" gradientUnits="userSpaceOnUse">
<stop stop-color="#009297"/>
<stop offset="0.7459" stop-color="#009297"/>
</linearGradient>
<linearGradient id="paint23_linear_275_3600" x1="96.5964" y1="39.3908" x2="96.5964" y2="49.5518" gradientUnits="userSpaceOnUse">
<stop stop-color="#FFC085"/>
<stop offset="1" stop-color="#FA976E"/>
</linearGradient>
<linearGradient id="paint24_linear_275_3600" x1="86.2921" y1="48.5132" x2="81.9896" y2="63.367" gradientUnits="userSpaceOnUse">
<stop offset="0.0041" stop-color="#F2830B"/>
<stop offset="1" stop-color="#FAAD1E"/>
</linearGradient>
<linearGradient id="paint25_linear_275_3600" x1="83.8107" y1="43.9478" x2="83.8107" y2="54.1088" gradientUnits="userSpaceOnUse">
<stop stop-color="#FFC085"/>
<stop offset="1" stop-color="#FA976E"/>
</linearGradient>
<linearGradient id="paint26_linear_275_3600" x1="108.603" y1="49.2883" x2="109.834" y2="61.9518" gradientUnits="userSpaceOnUse">
<stop stop-color="#9571CB"/>
<stop offset="0.9959" stop-color="#6237C0"/>
</linearGradient>
<linearGradient id="paint27_linear_275_3600" x1="102.311" y1="55.4053" x2="116.092" y2="54.9555" gradientUnits="userSpaceOnUse">
<stop offset="0.2805" stop-color="#00FFF1"/>
<stop offset="1" stop-color="#00D3CD"/>
</linearGradient>
<linearGradient id="paint28_linear_275_3600" x1="109.38" y1="43.9479" x2="109.38" y2="54.1089" gradientUnits="userSpaceOnUse">
<stop stop-color="#FFC085"/>
<stop offset="1" stop-color="#FA976E"/>
</linearGradient>
<linearGradient id="paint29_linear_275_3600" x1="96.5964" y1="48.1018" x2="96.5964" y2="58.2627" gradientUnits="userSpaceOnUse">
<stop stop-color="#FFC085"/>
<stop offset="1" stop-color="#FA976E"/>
</linearGradient>
<linearGradient id="paint30_linear_275_3600" x1="41.7671" y1="224.861" x2="41.7671" y2="207.333" gradientUnits="userSpaceOnUse">
<stop offset="0.0041" stop-color="#6237C0"/>
<stop offset="1" stop-color="#9571CB"/>
</linearGradient>
<linearGradient id="paint31_linear_275_3600" x1="36.734" y1="216.507" x2="46.5533" y2="216.355" gradientUnits="userSpaceOnUse">
<stop stop-color="#009297"/>
<stop offset="0.2805" stop-color="#00FFF1"/>
<stop offset="0.7459" stop-color="#009297"/>
<stop offset="1" stop-color="#00D3CD"/>
</linearGradient>
<linearGradient id="paint32_linear_275_3600" x1="55.706" y1="224.861" x2="55.706" y2="194.26" gradientUnits="userSpaceOnUse">
<stop offset="0.0041" stop-color="#6237C0"/>
<stop offset="1" stop-color="#9571CB"/>
</linearGradient>
<linearGradient id="paint33_linear_275_3600" x1="50.6734" y1="210.276" x2="60.4943" y2="210.189" gradientUnits="userSpaceOnUse">
<stop stop-color="#009297"/>
<stop offset="0.2805" stop-color="#00FFF1"/>
<stop offset="0.7459" stop-color="#009297"/>
<stop offset="1" stop-color="#00D3CD"/>
</linearGradient>
<linearGradient id="paint34_linear_275_3600" x1="55.8263" y1="194.951" x2="55.6172" y2="191.327" gradientUnits="userSpaceOnUse">
<stop offset="0.0041" stop-color="#F2830B"/>
<stop offset="1" stop-color="#FAAD1E"/>
</linearGradient>
<linearGradient id="paint35_linear_275_3600" x1="69.6436" y1="224.861" x2="69.6436" y2="197.333" gradientUnits="userSpaceOnUse">
<stop offset="0.0041" stop-color="#6237C0"/>
<stop offset="1" stop-color="#9571CB"/>
</linearGradient>
<linearGradient id="paint36_linear_275_3600" x1="64.6109" y1="211.74" x2="74.4316" y2="211.644" gradientUnits="userSpaceOnUse">
<stop stop-color="#009297"/>
<stop offset="0.2805" stop-color="#00FFF1"/>
<stop offset="0.7459" stop-color="#009297"/>
<stop offset="1" stop-color="#00D3CD"/>
</linearGradient>
<linearGradient id="paint37_linear_275_3600" x1="83.5832" y1="224.861" x2="83.5832" y2="192.959" gradientUnits="userSpaceOnUse">
<stop offset="0.0041" stop-color="#6237C0"/>
<stop offset="1" stop-color="#9571CB"/>
</linearGradient>
<linearGradient id="paint38_linear_275_3600" x1="78.5504" y1="209.656" x2="88.3713" y2="209.573" gradientUnits="userSpaceOnUse">
<stop stop-color="#009297"/>
<stop offset="0.2805" stop-color="#00FFF1"/>
<stop offset="0.7459" stop-color="#009297"/>
<stop offset="1" stop-color="#00D3CD"/>
</linearGradient>
<linearGradient id="paint39_linear_275_3600" x1="97.5219" y1="224.861" x2="97.5219" y2="167.126" gradientUnits="userSpaceOnUse">
<stop offset="0.0041" stop-color="#6237C0"/>
<stop offset="1" stop-color="#9571CB"/>
</linearGradient>
<linearGradient id="paint40_linear_275_3600" x1="92.4889" y1="197.344" x2="102.31" y2="197.298" gradientUnits="userSpaceOnUse">
<stop stop-color="#009297"/>
<stop offset="0.2805" stop-color="#00FFF1"/>
<stop offset="0.7459" stop-color="#009297"/>
<stop offset="1" stop-color="#00D3CD"/>
</linearGradient>
<linearGradient id="paint41_linear_275_3600" x1="97.9653" y1="180.713" x2="97.1946" y2="167.355" gradientUnits="userSpaceOnUse">
<stop offset="0.0041" stop-color="#F2830B"/>
<stop offset="1" stop-color="#FAAD1E"/>
</linearGradient>
<linearGradient id="paint42_linear_275_3600" x1="41.999" y1="214.303" x2="41.596" y2="207.317" gradientUnits="userSpaceOnUse">
<stop offset="0.0041" stop-color="#F2830B"/>
<stop offset="1" stop-color="#FAAD1E"/>
</linearGradient>
<linearGradient id="paint43_linear_275_3600" x1="149.905" y1="46.2937" x2="148.087" y2="14.7868" gradientUnits="userSpaceOnUse">
<stop offset="0.0041" stop-color="#F7BA00"/>
<stop offset="1" stop-color="#FAAD1E"/>
</linearGradient>
<linearGradient id="paint44_linear_275_3600" x1="160.068" y1="10.013" x2="157.771" y2="35.2738" gradientUnits="userSpaceOnUse">
<stop stop-color="#9571CB"/>
<stop offset="0.9959" stop-color="#6237C0"/>
</linearGradient>
<linearGradient id="paint45_linear_275_3600" x1="150.115" y1="28.9072" x2="165.836" y2="28.5626" gradientUnits="userSpaceOnUse">
<stop stop-color="#009297"/>
<stop offset="0.2805" stop-color="#00FFF1"/>
<stop offset="1" stop-color="#00D3CD"/>
</linearGradient>
<linearGradient id="paint46_linear_275_3600" x1="69.4561" y1="146.638" x2="65.6021" y2="117.134" gradientUnits="userSpaceOnUse">
<stop offset="0.0041" stop-color="#FCC517"/>
<stop offset="1" stop-color="#FAAD1E"/>
</linearGradient>
<linearGradient id="paint47_linear_275_3600" x1="97.6905" y1="114.365" x2="95.697" y2="136.824" gradientUnits="userSpaceOnUse">
<stop stop-color="#9571CB"/>
<stop offset="0.9959" stop-color="#6237C0"/>
</linearGradient>
<linearGradient id="paint48_linear_275_3600" x1="95.5155" y1="112.741" x2="96.284" y2="140.666" gradientUnits="userSpaceOnUse">
<stop stop-color="#009297"/>
<stop offset="0.2805" stop-color="#00FFF1"/>
<stop offset="0.7459" stop-color="#009297"/>
<stop offset="1" stop-color="#00D3CD"/>
</linearGradient>
<linearGradient id="paint49_linear_275_3600" x1="59.2165" y1="55.1159" x2="47.957" y2="93.7075" gradientUnits="userSpaceOnUse">
<stop stop-color="#FFE14D"/>
<stop offset="1" stop-color="#F7A523"/>
</linearGradient>
<linearGradient id="paint50_linear_275_3600" x1="57.8742" y1="59.7182" x2="48.4068" y2="92.1673" gradientUnits="userSpaceOnUse">
<stop stop-color="#FAAD1E"/>
<stop offset="0.9959" stop-color="#F2830B"/>
</linearGradient>
<linearGradient id="paint51_linear_275_3600" x1="201.423" y1="12.9577" x2="194.76" y2="35.7932" gradientUnits="userSpaceOnUse">
<stop stop-color="#FFE14D"/>
<stop offset="1" stop-color="#F7A523"/>
</linearGradient>
<linearGradient id="paint52_linear_275_3600" x1="200.627" y1="15.681" x2="195.025" y2="34.8819" gradientUnits="userSpaceOnUse">
<stop stop-color="#FAAD1E"/>
<stop offset="0.9959" stop-color="#F2830B"/>
</linearGradient>
<linearGradient id="paint53_linear_275_3600" x1="48.478" y1="156.724" x2="52.4407" y2="165.53" gradientUnits="userSpaceOnUse">
<stop stop-color="#9571CB"/>
<stop offset="0.9959" stop-color="#6237C0"/>
</linearGradient>
<linearGradient id="paint54_linear_275_3600" x1="44.3785" y1="161.404" x2="56.2357" y2="161.078" gradientUnits="userSpaceOnUse">
<stop stop-color="#00D3CD"/>
<stop offset="0.2541" stop-color="#009297"/>
<stop offset="0.7195" stop-color="#00FFF1"/>
<stop offset="1" stop-color="#009297"/>
</linearGradient>
<linearGradient id="paint55_linear_275_3600" x1="240.288" y1="182.027" x2="244.251" y2="190.833" gradientUnits="userSpaceOnUse">
<stop stop-color="#9571CB"/>
<stop offset="0.9959" stop-color="#6237C0"/>
</linearGradient>
<linearGradient id="paint56_linear_275_3600" x1="236.188" y1="186.707" x2="248.045" y2="186.381" gradientUnits="userSpaceOnUse">
<stop stop-color="#009297"/>
<stop offset="0.2805" stop-color="#00FFF1"/>
<stop offset="0.7459" stop-color="#009297"/>
<stop offset="1" stop-color="#00D3CD"/>
</linearGradient>
<linearGradient id="paint57_linear_275_3600" x1="244.312" y1="79.3704" x2="248.275" y2="88.1763" gradientUnits="userSpaceOnUse">
<stop stop-color="#9571CB"/>
<stop offset="0.9959" stop-color="#6237C0"/>
</linearGradient>
<linearGradient id="paint58_linear_275_3600" x1="240.213" y1="84.0502" x2="252.07" y2="83.7239" gradientUnits="userSpaceOnUse">
<stop stop-color="#00D3CD"/>
<stop offset="0.2541" stop-color="#009297"/>
<stop offset="0.7195" stop-color="#00FFF1"/>
<stop offset="1" stop-color="#009297"/>
</linearGradient>
<linearGradient id="paint59_linear_275_3600" x1="123.078" y1="4.01296" x2="127.04" y2="12.8188" gradientUnits="userSpaceOnUse">
<stop stop-color="#9571CB"/>
<stop offset="0.9959" stop-color="#6237C0"/>
</linearGradient>
<linearGradient id="paint60_linear_275_3600" x1="124.608" y1="2.59441" x2="124.929" y2="14.2416" gradientUnits="userSpaceOnUse">
<stop stop-color="#009297"/>
<stop offset="0.2805" stop-color="#00FFF1"/>
<stop offset="0.7459" stop-color="#009297"/>
<stop offset="1" stop-color="#00D3CD"/>
</linearGradient>
<linearGradient id="paint61_linear_275_3600" x1="162.802" y1="56.9731" x2="165.448" y2="62.8545" gradientUnits="userSpaceOnUse">
<stop stop-color="#9571CB"/>
<stop offset="0.9959" stop-color="#6237C0"/>
</linearGradient>
<linearGradient id="paint62_linear_275_3600" x1="160.063" y1="60.0988" x2="167.982" y2="59.8809" gradientUnits="userSpaceOnUse">
<stop stop-color="#00D3CD"/>
<stop offset="0.2541" stop-color="#009297"/>
<stop offset="0.7195" stop-color="#00FFF1"/>
<stop offset="1" stop-color="#009297"/>
</linearGradient>
<linearGradient id="paint63_linear_275_3600" x1="35.5185" y1="115.955" x2="38.1651" y2="121.836" gradientUnits="userSpaceOnUse">
<stop stop-color="#9571CB"/>
<stop offset="0.9959" stop-color="#6237C0"/>
</linearGradient>
<linearGradient id="paint64_linear_275_3600" x1="36.5402" y1="115.007" x2="36.7543" y2="122.786" gradientUnits="userSpaceOnUse">
<stop stop-color="#009297"/>
<stop offset="0.2805" stop-color="#00FFF1"/>
<stop offset="0.7459" stop-color="#009297"/>
<stop offset="1" stop-color="#00D3CD"/>
</linearGradient>
</defs>
</svg>
