<svg  viewBox="0 0 290 190" fill="none" xmlns="http://www.w3.org/2000/svg">
<path opacity="0.8" d="M289.352 63.2304V59.2552C289.352 53.505 286.222 48.5192 281.639 46.0316C285.707 43.584 288.443 39.0112 288.443 33.7702V29.9941C288.443 22.1735 282.351 15.8338 274.838 15.8338H251.594C253.066 14.2141 253.974 12.0337 253.974 9.62795C253.974 4.63633 250.088 0.590393 245.291 0.590393H109.368C104.572 0.590393 100.684 4.63678 100.684 9.62795C100.684 11.0747 100.3 13.649 101.601 13.649C109.15 13.649 118.973 13.649 118.973 13.649C122.648 13.649 125.628 16.0583 125.628 19.0296C125.628 22.001 122.648 24.4103 118.973 24.4103H14.8093C14.7756 24.4103 14.7431 24.4063 14.7094 24.4059C14.0009 26.1203 13.6069 28.0094 13.6069 29.9941V33.7702C13.6069 37.9771 15.3721 41.7545 18.1705 44.347H14.3252C6.41461 44.347 0.000976562 51.0219 0.000976562 59.2552V63.2304C0.000976562 70.7803 5.3952 77.0155 12.3903 77.999H70.9129C75.0314 77.999 78.3704 81.474 78.3704 85.7601C78.3704 90.047 75.0314 93.522 70.9129 93.522H14.3252V153.373C14.3252 161.35 20.5398 167.82 28.2051 167.82H48.7599C47.1946 169.927 46.2609 172.57 46.2609 175.441C46.2609 182.335 51.6303 187.923 58.2536 187.923H245.973C252.598 187.923 257.966 182.335 257.966 175.441C257.966 172.57 257.032 169.928 255.468 167.82L175.502 167.628C171.383 167.628 168.044 164.151 168.044 159.865C168.044 155.578 171.383 152.103 175.502 152.103H289.352V90.7744C289.352 84.4947 285.501 79.1541 280.126 77.1627C285.519 75.0237 289.352 69.5945 289.352 63.2304Z" fill="white"/>
<path d="M275.033 22.719H273.927C273.223 22.719 272.594 22.266 272.369 21.5906C272.193 21.0766 271.986 20.5778 271.76 20.0927C271.447 19.4476 271.577 18.6775 272.074 18.1693L272.855 17.3739C273.439 16.7822 273.439 15.8178 272.855 15.2296L270.344 12.6713C269.76 12.0782 268.816 12.0782 268.238 12.6713L267.453 13.4676C266.957 13.9749 266.197 14.1047 265.564 13.7935C265.087 13.5587 264.597 13.348 264.09 13.1702C263.428 12.9367 262.986 12.2996 262.986 11.5833V10.4589C262.986 9.61862 262.317 8.94193 261.494 8.94193H257.941C257.116 8.94193 256.448 9.61862 256.448 10.4589V11.5833C256.448 12.2992 256.006 12.9367 255.342 13.1702C254.835 13.348 254.344 13.5592 253.869 13.7935C253.238 14.1047 252.481 13.9749 251.98 13.4676L251.199 12.6713C250.617 12.0782 249.672 12.0782 249.091 12.6713L246.578 15.2296C245.995 15.8178 245.995 16.7822 246.578 17.3739L247.359 18.1693C247.858 18.6775 247.99 19.4476 247.68 20.0927C247.449 20.5773 247.243 21.0762 247.07 21.5906C246.839 22.2664 246.212 22.719 245.507 22.719H244.405C243.58 22.719 242.913 23.3988 242.913 24.2378V27.8511C242.913 28.6905 243.581 29.369 244.405 29.369H245.507C246.212 29.369 246.839 29.819 247.07 30.4957C247.243 31.0096 247.449 31.5098 247.68 31.9927C247.99 32.6427 247.858 33.4127 247.359 33.9165L246.578 34.7097C245.995 35.3063 245.995 36.2636 246.578 36.8549L249.091 39.4136C249.672 40.0045 250.617 40.0045 251.199 39.4136L251.98 38.6213C252.481 38.1154 253.238 37.9811 253.869 38.295C254.344 38.5315 254.836 38.7356 255.342 38.9161C256.006 39.1477 256.448 39.788 256.448 40.5025V41.6273C256.448 42.4668 257.117 43.1439 257.941 43.1439H261.494C262.317 43.1439 262.986 42.4668 262.986 41.6273V40.5025C262.986 39.7875 263.428 39.1477 264.09 38.9161C264.597 38.7351 265.087 38.5311 265.564 38.295C266.197 37.9811 266.957 38.1158 267.453 38.6213L268.238 39.4136C268.817 40.0045 269.76 40.0045 270.344 39.4136L272.855 36.8549C273.439 36.2636 273.439 35.3063 272.855 34.7097L272.074 33.9165C271.577 33.4132 271.447 32.6427 271.76 31.9927C271.986 31.5103 272.193 31.0101 272.369 30.4957C272.594 29.819 273.223 29.369 273.927 29.369H275.033C275.856 29.369 276.523 28.691 276.523 27.8511V24.2378C276.523 23.3988 275.856 22.719 275.033 22.719Z" fill="#00D3CD"/>
<path d="M268.696 26.0415C268.696 31.0073 264.677 35.0323 259.717 35.0323C254.758 35.0323 250.738 31.0073 250.738 26.0415C250.738 21.0796 254.758 17.0537 259.717 17.0537C264.677 17.0537 268.696 21.0796 268.696 26.0415Z" stroke="white" stroke-width="0.289931" stroke-miterlimit="10"/>
<path d="M264.809 26.0415C264.809 28.8577 262.531 31.1394 259.718 31.1394C256.907 31.1394 254.627 28.8577 254.627 26.0415C254.627 23.2289 256.907 20.9477 259.718 20.9477C262.531 20.9477 264.809 23.2289 264.809 26.0415Z" stroke="white" stroke-width="0.289931" stroke-miterlimit="10" stroke-dasharray="1.16 1.16"/>
<path d="M59.3178 32.3434L58.4867 26.8316C58.2935 25.5543 57.0657 24.6806 55.7416 24.8798L53.9644 25.1475C52.8349 25.3182 51.7213 24.7829 51.2042 23.8047C50.8 23.0662 50.3572 22.3513 49.8792 21.6715C49.2325 20.7632 49.2618 19.5543 49.9432 18.6628L51.015 17.257C51.8194 16.2162 51.5969 14.7449 50.522 13.9896L45.9002 10.6999C44.8262 9.93561 43.3106 10.165 42.5137 11.2112L41.4366 12.6153C40.7574 13.5072 39.5674 13.8917 38.4765 13.5703C37.6601 13.3293 36.8214 13.1279 35.9668 12.979C34.8515 12.7847 33.9906 11.9181 33.8263 10.8271L33.5673 9.11353C33.3745 7.83528 32.1477 6.96385 30.8236 7.16348L25.118 8.02513C23.7925 8.2252 22.8757 9.42165 23.0672 10.6977L23.3261 12.4134C23.4918 13.5049 22.925 14.584 21.9114 15.1011C21.1403 15.4972 20.4003 15.9383 19.6904 16.4109C18.7448 17.0382 17.4988 17.0218 16.5811 16.3682L15.1411 15.3492C14.0692 14.584 12.5528 14.8121 11.755 15.8605L8.30457 20.3684C7.50414 21.4079 7.72668 22.8786 8.79806 23.6389L10.2337 24.6619C11.1545 25.3133 11.5423 26.4595 11.1922 27.5177C10.9324 28.3113 10.7174 29.1227 10.5566 29.9492C10.3425 31.0359 9.4377 31.8753 8.30813 32.0469L6.53493 32.3145C5.2108 32.5155 4.29444 33.7124 4.48633 34.9911L5.31696 40.5029C5.51107 41.7829 6.73881 42.6521 8.06382 42.449L9.83746 42.1831C10.9661 42.0141 12.0793 42.5477 12.6034 43.524C13.0005 44.2643 13.4456 44.9752 13.9275 45.659C14.5747 46.5709 14.5419 47.7771 13.8543 48.669L12.7829 50.0642C11.9838 51.1148 12.2045 52.578 13.2773 53.3401L17.9026 56.6244C18.9731 57.39 20.4895 57.1584 21.2886 56.1153L22.3631 54.7153C23.0494 53.8247 24.2332 53.4348 25.3223 53.7603C26.1414 54.0057 26.9756 54.2026 27.8302 54.3534C28.9504 54.545 29.8117 55.4124 29.9761 56.5008L30.2341 58.2161C30.4269 59.4939 31.6555 60.3667 32.9801 60.1688L38.687 59.3072C40.0103 59.1067 40.9275 57.9076 40.7334 56.628L40.4744 54.9162C40.3114 53.8234 40.8764 52.7439 41.8852 52.229C42.6576 51.8306 43.3999 51.398 44.1083 50.9196C45.0571 50.2887 46.3071 50.3101 47.2203 50.9601L48.6622 51.9765C49.7309 52.7412 51.2451 52.5127 52.0482 51.4656L55.4951 46.9595C56.2973 45.9151 56.0765 44.4515 55.0007 43.6867L53.5642 42.669C52.6492 42.019 52.265 40.8755 52.6145 39.8133C52.8704 39.0188 53.084 38.2078 53.2506 37.3835C53.4576 36.296 54.3615 35.4562 55.4951 35.285L57.271 35.0164C58.5929 34.8155 59.5114 33.6226 59.3178 32.3434ZM34.8435 46.0183C26.9218 47.8385 19.3253 42.4356 18.7874 34.6065C18.3641 28.4456 22.7305 22.7377 28.9606 21.3109C36.8756 19.4898 44.4784 24.8891 45.0154 32.7236C45.4342 38.8792 41.0688 44.5844 34.8435 46.0183Z" fill="#00D3CD"/>
<path d="M38.3887 75.796L37.8907 72.4961C37.7748 71.7313 37.0401 71.2085 36.2472 71.3276L35.183 71.4877C34.5065 71.5895 33.8397 71.2694 33.5301 70.6838C33.2881 70.2415 33.0229 69.8133 32.7368 69.4065C32.3491 68.8627 32.3673 68.1389 32.775 67.6049L33.4164 66.7633C33.8979 66.1404 33.7647 65.2592 33.1211 64.8074L30.3538 62.8378C29.7106 62.3803 28.8031 62.5177 28.3265 63.1442L27.6811 63.9849C27.2747 64.5185 26.5622 64.7492 25.9092 64.5562C25.4202 64.4122 24.9182 64.2913 24.4065 64.2023C23.7389 64.0863 23.2232 63.5674 23.125 62.9139L22.97 61.8881C22.8545 61.1225 22.1198 60.6006 21.327 60.7206L17.9112 61.2363C17.1174 61.3564 16.5688 62.0727 16.683 62.8369L16.838 63.864C16.9375 64.5176 16.5981 65.1636 15.9909 65.4735C15.5294 65.7109 15.0861 65.9745 14.661 66.2578C14.0947 66.6335 13.3489 66.6237 12.7995 66.2324L11.9373 65.622C11.2959 65.164 10.388 65.3005 9.91045 65.9283L7.84453 68.6271C7.36526 69.2495 7.49851 70.1303 8.13992 70.5851L8.99987 71.1978C9.55111 71.5877 9.78342 72.2738 9.57332 72.9078C9.41785 73.3831 9.28903 73.8686 9.19309 74.3634C9.06472 75.0139 8.52326 75.5167 7.8472 75.6194L6.78559 75.7791C5.99272 75.8995 5.44414 76.6163 5.55919 77.3819L6.05668 80.6818C6.17261 81.4478 6.90774 81.9685 7.70106 81.8471L8.76311 81.6879C9.43872 81.5861 10.1055 81.9058 10.4195 82.4904C10.6571 82.9337 10.9236 83.3596 11.2124 83.7691C11.6001 84.3147 11.5802 85.0371 11.1684 85.5711L10.527 86.4061C10.0486 87.0352 10.181 87.9111 10.8228 88.3673L13.5919 90.3338C14.2328 90.7917 15.1412 90.6534 15.6196 90.0288L16.2628 89.1902C16.6737 88.6571 17.3826 88.4233 18.0347 88.618C18.525 88.7652 19.0247 88.883 19.536 88.9737C20.2067 89.0884 20.722 89.6077 20.8206 90.2591L20.9752 91.2857C21.0907 92.0517 21.8262 92.5737 22.6196 92.4554L26.0367 91.9397C26.8287 91.8196 27.3777 91.1007 27.2618 90.3355L27.1063 89.3103C27.009 88.6558 27.3471 88.0098 27.9511 87.7012C28.4135 87.4634 28.8582 87.2042 29.2824 86.9178C29.85 86.5395 30.599 86.5528 31.1453 86.9418L32.0088 87.5505C32.6484 88.008 33.555 87.8715 34.0361 87.2442L36.0998 84.5467C36.5804 83.9212 36.4476 83.0449 35.8039 82.5869L34.9436 81.9769C34.3959 81.5879 34.1658 80.9032 34.375 80.2674C34.5282 79.7916 34.6562 79.3057 34.7557 78.8126C34.88 78.1613 35.4211 77.6589 36.0998 77.5557L37.1632 77.3952C37.9543 77.2765 38.5046 76.562 38.3887 75.796ZM23.7354 83.9839C18.9923 85.0736 14.4443 81.8386 14.1222 77.1511C13.8686 73.4626 16.4831 70.0454 20.2129 69.1908C24.952 68.1007 29.504 71.3334 29.8256 76.024C30.0757 79.7094 27.4625 83.1249 23.7354 83.9839Z" fill="#009297"/>
<path d="M128.2 145.316V171.026H138.539V161.326C138.539 157.93 141.287 155.18 144.677 155.18C148.067 155.18 150.816 157.931 150.816 161.326V171.026H161.155V145.316H128.2Z" fill="#04A0A0"/>
<path d="M194.919 169.408H94.4375V176.201H194.919V169.408Z" fill="#004242"/>
<path d="M262.552 17.5822H26.8037V149.649H262.552V17.5822Z" fill="#004242"/>
<path d="M255.139 22.2204H34.2178V136.277H255.139V22.2204Z" fill="white"/>
<path opacity="0.8" d="M239.124 135.608C230.373 133.493 222.02 130.085 213.869 126.304C205.692 122.511 197.478 118.704 189.424 114.65C146.225 92.9167 107.826 60.531 78.1053 22.2204H34.2178V136.277H242.11C241.113 136.066 240.115 135.847 239.124 135.608Z" fill="white"/>
<path d="M255.285 136.277H34.0723V138.364H255.285V136.277Z" fill="#04A0A0"/>
<path d="M219.964 44.578C212.295 36.6084 202.1 32.2188 191.256 32.2188C180.412 32.2188 170.215 36.608 162.547 44.578L144.691 63.1364L126.834 44.578C119.167 36.6084 108.971 32.2188 98.1267 32.2188C87.2818 32.2188 77.0873 36.608 69.4184 44.578C53.5884 61.0303 53.5884 87.8007 69.4184 104.254C77.3334 112.48 87.73 116.593 98.1267 116.593C108.523 116.593 118.92 112.48 126.834 104.254L144.691 85.6946L162.547 104.254C170.462 112.48 180.859 116.593 191.256 116.593C201.652 116.593 212.049 112.479 219.964 104.254C227.632 96.2838 231.855 85.6866 231.855 74.4157C231.855 63.1445 227.632 52.5481 219.964 44.578ZM115.99 92.9821C111.219 97.9409 104.875 100.672 98.1276 100.672C91.379 100.672 85.0347 97.9404 80.2637 92.9813C75.4918 88.0225 72.8648 81.429 72.8648 74.4157C72.8648 67.4025 75.4918 60.8089 80.2637 55.8498C85.0347 50.8906 91.3786 48.1594 98.1271 48.1594C104.875 48.1594 111.219 50.8906 115.99 55.8498L133.854 74.4157L115.99 92.9821ZM133.854 74.4157L115.99 92.9821L133.854 74.4157ZM209.119 92.9821C199.269 103.22 183.242 103.22 173.392 92.9821L155.528 74.4157L173.392 55.8498C178.164 50.8906 184.507 48.1594 191.256 48.1594C198.002 48.1594 204.348 50.8906 209.119 55.8498C213.891 60.8089 216.518 67.4025 216.518 74.4157C216.518 81.4294 213.891 88.0225 209.119 92.9821Z" fill="#00FFF1"/>
<path d="M169.014 88.5605L132.764 50.8604L120.729 60.8391L157.777 99.0835L169.014 88.5605Z" fill="#008184"/>
<path d="M220.81 45.4868C216.643 48.7196 212.658 52.1964 209.533 56.3024C214.039 61.2073 216.518 67.6119 216.518 74.4162C216.518 81.4299 213.891 88.023 209.119 92.9826C205.137 97.1205 200.147 99.5841 194.963 100.377C198.545 104.614 202.11 109.212 204.981 114.119C210.454 112.085 215.589 108.801 219.964 104.254C227.632 96.2838 231.855 85.6866 231.855 74.4157C231.855 63.5668 227.941 53.3448 220.81 45.4868Z" fill="#009297"/>
<path d="M68.5453 45.5953C72.7126 48.8281 76.6974 52.3049 79.8219 56.4109C75.3165 61.3158 72.837 67.7204 72.837 74.5247C72.837 81.5384 75.4648 88.1319 80.2363 93.0915C84.2175 97.229 89.2084 99.6926 94.3921 100.485C90.8097 104.722 87.2451 109.32 84.3748 114.227C78.9019 112.194 73.7667 108.909 69.3919 104.362C61.7234 96.3923 57.501 85.7955 57.501 74.5242C57.5005 63.6758 61.4143 53.4538 68.5453 45.5953Z" fill="#009297"/>
<path d="M113.986 94.9834L150.382 57.3917L162.272 67.2616L125.587 105.723L113.986 94.9834Z" fill="#009297"/>
<path d="M115.573 25.3801H88.6455V52.331H115.573V25.3801Z" fill="#FFBF00"/>
<path d="M100.274 41.8265C96.0026 37.3969 94.9095 31.3689 94.7811 25.3795H88.6455V52.3304H115.573V47.0676C109.991 47.3708 104.254 45.9547 100.274 41.8265Z" fill="#FFA607"/>
<path d="M99.9887 46.2913L92.6684 39.5488C92.0706 38.9988 92.0319 38.0673 92.5814 37.4698C93.1299 36.8718 94.0596 36.8335 94.6579 37.3822L99.8088 42.1279L109.641 31.3791C110.191 30.7797 111.119 30.7388 111.718 31.2857C112.317 31.8344 112.356 32.7663 111.809 33.3651L99.9887 46.2913Z" fill="white"/>
<path d="M205.384 25.745H178.23V51.3656H205.384V25.745Z" fill="#009297"/>
<path d="M184.247 38.1471C185.73 38.1471 185.939 37.3321 185.939 36.6003C185.939 36.0152 185.855 35.4297 185.772 34.8445C185.688 34.2594 185.605 33.6948 185.605 33.1097C185.605 31.1868 186.858 30.3713 188.633 30.3713H189.071V31.5211H188.695C187.463 31.5211 187.045 32.1898 187.045 33.3187C187.045 33.7993 187.108 34.3008 187.192 34.8028C187.275 35.3252 187.338 35.8271 187.338 36.3913C187.359 37.7292 186.774 38.3979 185.834 38.6491V38.6909C186.774 38.9207 187.359 39.6316 187.338 40.969C187.338 41.5337 187.275 42.0561 187.192 42.5576C187.108 43.08 187.045 43.5611 187.045 44.0626C187.045 45.2328 187.526 45.8811 188.695 45.8811H189.071V47.0304H188.633C186.899 47.0304 185.605 46.2781 185.605 44.1671C185.605 43.6024 185.688 43.0173 185.772 42.4531C185.855 41.8885 185.939 41.3243 185.939 40.7601C185.939 40.1118 185.73 39.2133 184.247 39.2133V38.1471Z" fill="white"/>
<path d="M199.365 39.2127C197.882 39.2127 197.673 40.1112 197.673 40.7595C197.673 41.3241 197.757 41.8879 197.84 42.4526C197.924 43.0168 198.007 43.6019 198.007 44.1665C198.007 46.2775 196.692 47.0298 194.979 47.0298H194.541V45.8805H194.896C196.065 45.8596 196.567 45.2323 196.567 44.062C196.567 43.5605 196.483 43.0795 196.42 42.557C196.337 42.0555 196.253 41.5331 196.253 40.9684C196.253 39.6306 196.838 38.9201 197.757 38.6903V38.6485C196.838 38.3977 196.253 37.7286 196.253 36.3908C196.253 35.8266 196.337 35.325 196.42 34.8022C196.483 34.3007 196.567 33.7987 196.567 33.3181C196.567 32.1892 196.128 31.5414 194.917 31.5205H194.541V30.3708H194.959C196.734 30.3708 198.008 31.1862 198.008 33.1091C198.008 33.6942 197.924 34.2589 197.841 34.844C197.757 35.4291 197.674 36.0142 197.674 36.5997C197.674 37.3316 197.883 38.1465 199.365 38.1465V39.2127H199.365Z" fill="white"/>
<path d="M248.629 189.625C265.802 189.625 279.722 187.336 279.722 184.512C279.722 181.688 265.802 179.399 248.629 179.399C231.457 179.399 217.536 181.688 217.536 184.512C217.536 187.336 231.457 189.625 248.629 189.625Z" fill="#00D3CD"/>
<path d="M223.952 89.0729L223.963 183.727C223.963 184.379 224.483 184.904 225.123 184.902C225.763 184.898 226.281 184.367 226.282 183.715L226.281 176.676L241.807 176.601L241.809 183.641C241.809 184.293 242.33 184.819 242.968 184.817C243.608 184.813 244.126 184.281 244.126 183.629L244.115 88.9768C244.116 88.3224 243.597 87.7977 242.957 87.7999C242.317 87.8022 241.797 88.3352 241.799 88.9875V97.7898L226.27 97.8637V89.0613C226.269 88.4091 225.75 87.8835 225.111 87.8857C224.471 87.8897 223.953 88.4206 223.952 89.0729ZM226.279 167.079L241.807 167.005L241.809 174.56L226.281 174.635L226.279 167.079ZM226.279 157.484L241.805 157.409L241.806 164.962L226.28 165.038L226.279 157.484ZM226.276 147.887L241.806 147.812V155.368L226.277 155.442L226.276 147.887ZM226.277 138.292L241.803 138.216L241.804 145.77L226.277 145.846V138.292ZM226.275 128.696L241.803 128.621L241.805 136.176L226.276 136.25L226.275 128.696ZM226.274 119.101L241.802 119.025L241.803 126.579L226.274 126.654L226.274 119.101ZM226.272 109.504L241.801 109.429L241.801 116.984L226.274 117.057L226.272 109.504ZM226.273 99.9071L241.8 99.8342V107.386L226.272 107.462L226.273 99.9071Z" fill="#008184"/>
<path d="M272.993 170.595C273.643 169.401 273.428 168.571 273.197 167.387C274.408 167.169 275.614 166.807 276.601 166.277L278.011 167.991C278.109 168.112 278.201 168.301 278.26 168.449C278.405 168.805 278.307 169.154 278.111 169.546C277.911 169.945 277.6 170.27 277.251 170.564C277.13 170.661 277.007 170.764 276.883 170.868C276.567 171.05 276.299 171.324 276.048 171.607C275.876 171.775 275.714 171.948 275.567 172.131C274.768 173.001 273.897 173.808 272.963 174.538C272.342 175.022 271.505 175.498 270.897 175.174C270.633 175.038 271.923 172.559 272.993 170.595Z" fill="#141D30"/>
<path d="M264.758 95.0943C268.214 99.7414 269.749 105.664 270.11 111.65C271.17 129.235 270.286 133.377 271.388 139.012C273.509 149.871 276.421 157.916 277.819 166.792C274.763 168.058 275.946 167.726 271.809 169.203C267.224 153.163 263.934 148.482 260.79 137.483C257.561 126.192 256.565 110.533 257.484 98.4618C257.511 98.0812 257.558 97.6673 257.835 97.3778C258.055 97.1466 258.376 97.0479 258.677 96.9608C260.86 96.3343 263.043 95.707 264.758 95.0943Z" fill="#00FFF1"/>
<path d="M267.664 111.642C267.781 115.684 267.899 119.727 268.014 123.769C268.194 129.961 268.373 136.185 269.571 142.169C270.417 146.402 271.762 150.476 273.105 154.536C274.403 158.465 275.311 163.375 276.61 167.304" stroke="#26395E" stroke-width="0.289931" stroke-miterlimit="10"/>
<path opacity="0.3" d="M262.83 117.869C266.406 118.41 265.841 122.881 265.567 125.447C265.15 129.37 265.922 133.906 266.854 137.737C267.356 139.8 268.032 141.821 268.676 143.843C270.477 149.492 272.421 155.161 273.599 160.983C273.936 162.65 274.832 166.162 274.063 168.382C275.62 167.793 275.527 167.743 277.819 166.792C276.421 157.916 273.509 149.871 271.387 139.012C270.285 133.377 271.17 129.235 270.109 111.651C269.749 105.665 268.214 99.7419 264.758 95.0948C263.043 95.7075 260.86 96.3348 258.677 96.9622C258.375 97.0489 258.055 97.148 257.834 97.3792C257.558 97.6682 257.511 98.0826 257.483 98.4632C256.958 105.355 257.06 113.414 257.843 121.164C259.072 119.364 260.785 117.561 262.83 117.869Z" fill="#00FFF1"/>
<path d="M236.661 152.012C233.453 154.694 227.875 155.489 229.974 156.29C232.073 157.09 232.098 156.825 235.735 156.549C239.374 156.274 239.462 156.875 239.551 155.604C239.64 154.334 239.348 151.774 239.348 151.774C239.348 151.774 239.87 149.328 236.661 152.012Z" fill="#141D30"/>
<path d="M263.961 95.0845L245.029 110.551C243.891 111.479 242.736 112.43 241.862 113.669C240.403 115.742 239.898 118.382 239.476 120.907C237.741 131.317 236.648 141.786 235.555 152.246C236.993 152.68 238.432 153.116 239.868 153.551C243.542 144.44 246.223 134.901 247.823 125.236C248.07 123.741 248.308 122.193 249.048 120.873C250.308 118.622 252.653 117.467 254.867 116.582C268.114 111.296 269.985 111.537 273.153 108.022C277.522 103.172 276.388 99.294 275.711 96.056C272.249 94.6443 268.043 94.8631 263.961 95.0845Z" fill="#00FFF1"/>
<path opacity="0.3" d="M275.71 96.0559C274.899 95.7251 274.046 95.4868 273.165 95.3134C273.766 96.1533 274.22 97.1448 274.503 98.1216C275.461 101.419 275.348 105.202 272.66 107.715C268.872 111.259 263.392 112.299 258.484 113.234C253.504 114.181 248.263 115.323 245.487 120.021C241.921 126.056 242.154 133.6 241.211 140.367C240.851 142.948 240.268 150.414 237.312 152.778C238.164 153.035 239.017 153.293 239.868 153.551C243.542 144.439 246.223 134.9 247.823 125.236C248.07 123.74 248.308 122.193 249.048 120.873C250.308 118.621 252.653 117.466 254.867 116.581C268.114 111.295 269.986 111.537 273.153 108.022C277.521 103.172 276.387 99.294 275.71 96.0559Z" fill="#00FFF1"/>
<path d="M261.773 68.1447C259.385 68.3168 257.112 77.4704 256.86 79.906C256.534 83.0627 254.904 91.3715 254.689 97.1608C254.674 97.5765 254.671 98.0291 254.928 98.3497C255.183 98.6658 255.613 98.7516 256.007 98.8125C263.394 99.9694 270.977 99.7702 278.295 98.2332C275.674 90.4779 276.27 82.0179 275.211 73.8833C274.996 72.2174 274.642 70.4331 273.437 69.2967C272.206 68.1341 270.396 67.9442 268.725 67.9002C265.978 67.8246 263.227 68.0389 261.773 68.1447Z" fill="#00D3CD"/>
<path d="M259.587 75.7778C259.287 77.7149 258.925 79.0599 259.358 81.0602C259.712 82.6803 260.195 84.2453 260.906 85.729" stroke="#26395E" stroke-width="0.289931" stroke-miterlimit="10"/>
<path d="M261.856 74.4808C262.004 76.2299 261.992 77.7002 262.451 79.4693" stroke="#26395E" stroke-width="0.289931" stroke-miterlimit="10"/>
<path opacity="0.3" d="M275.211 73.8832C274.996 72.2173 274.642 70.4331 273.437 69.2966C272.358 68.2776 270.836 68.0064 269.351 67.925C268.721 68.5741 268.17 69.2575 267.689 69.9729C266.871 71.65 265.979 73.3097 265.503 75.0957C265.181 76.3006 265.032 77.5503 264.666 78.7446C264.199 81.4055 263.219 84.4071 260.615 85.6938C259.203 86.3914 257.221 86.5132 256.033 85.5724C255.469 89.2231 254.82 93.6532 254.69 97.1607C254.675 97.5764 254.672 98.029 254.929 98.3496C255.184 98.6657 255.614 98.7515 256.008 98.8124C263.395 99.9693 270.977 99.7701 278.296 98.2331C275.674 90.4778 276.27 82.0173 275.211 73.8832Z" fill="#009297"/>
<path d="M263.412 64.6719C263.434 66.0471 263.141 67.4276 262.56 68.6858C263.478 69.3514 264.741 69.3052 265.88 69.1491C266.443 69.0713 267.009 68.9731 267.526 68.7445C267.584 68.7187 267.645 68.6889 267.679 68.6378C267.715 68.584 267.717 68.5164 267.719 68.452C267.765 65.9817 267.773 63.5106 267.746 61.0403C266.628 61.4192 265.38 61.24 264.245 61.5699C264.136 61.6014 264.023 61.6401 263.941 61.717C263.839 61.8109 263.796 61.9478 263.759 62.0794C263.499 63.0069 263.401 63.9619 263.412 64.6719Z" fill="#FA6E61"/>
<path d="M266.512 65.0027C267.326 63.8192 267.26 62.3431 267.744 61.0408C266.626 61.4192 265.379 61.2396 264.245 61.5695C264.134 61.6015 264.022 61.6397 263.94 61.7166C263.838 61.8104 263.795 61.9478 263.758 62.079C263.499 63.0069 263.401 63.9619 263.411 64.6719C263.424 65.4336 263.336 66.1956 263.159 66.939C264.499 66.7892 265.755 66.1036 266.512 65.0027Z" fill="#D75246"/>
<path d="M261.916 58.4052C261.663 59.2446 261.649 60.1325 261.433 60.9795C261.138 62.1377 260.471 63.3448 260.924 64.4496C261.292 65.3455 262.35 65.8524 263.345 65.8004C264.34 65.7474 265.259 65.2277 265.988 64.5657C267.388 63.2928 268.208 61.4419 268.195 59.5865C268.19 58.9734 268.14 58.4376 267.446 57.9299C266.658 57.3541 265.916 57.1145 264.947 56.9233C263.572 56.6539 262.168 57.5662 261.916 58.4052Z" fill="#FA6E61"/>
<path d="M263.803 55.9149C262.694 56.1742 261.821 57.1981 261.771 58.3012C261.766 58.3812 261.769 58.4683 261.822 58.5292C261.92 58.6426 262.11 58.5924 262.238 58.5092C262.363 58.4265 262.492 58.3145 262.644 58.3305C262.892 58.3567 262.951 58.6697 263.07 58.8814C263.288 59.2704 263.813 59.3731 264.27 59.374C264.724 59.3744 265.197 59.3113 265.58 59.0694C265.839 58.9058 266.045 58.6671 266.316 58.5226C266.588 58.3772 266.977 58.3607 267.158 58.6031C267.385 58.9049 267.133 59.3682 267.321 59.6946C267.449 59.9151 267.744 59.9956 268.004 59.9698C268.484 59.92 268.901 59.5701 269.088 59.1379C269.276 58.7062 269.255 58.2082 269.106 57.765C268.949 57.2968 268.651 56.8744 268.259 56.5627C267.328 55.8225 266.019 55.774 264.812 55.7589C264.336 55.754 263.806 55.7673 263.803 55.9149Z" fill="#141D30"/>
<path d="M264.98 55.7896C263.825 55.6651 262.67 55.5406 261.514 55.4157C261.197 55.3823 260.869 55.3481 260.557 55.4219C260.121 55.526 259.761 55.8305 259.507 56.1818C258.931 56.9816 258.858 58.0704 259.323 58.9143C259.642 59.4914 260.315 59.9769 260.997 59.8142C261.707 59.6426 262.059 58.8885 262.663 58.491C262.792 58.4061 262.956 58.3354 263.1 58.3879C263.185 58.419 263.247 58.4866 263.318 58.54C263.545 58.7111 263.877 58.7302 264.154 58.6324C264.432 58.5342 264.658 58.3341 264.831 58.1078C265.345 57.4333 265.402 56.4832 264.98 55.7896Z" fill="#141D30"/>
<path d="M266.744 58.0571C266.988 58.7481 267.057 59.499 266.942 60.2228C266.926 60.3198 266.908 60.4185 266.917 60.5167C266.929 60.6288 266.978 60.7328 267.026 60.8346C267.247 61.3019 267.468 61.7701 267.689 62.2374C268.515 61.6683 269.096 60.5492 269.214 58.6605C269.233 58.3266 269.169 58.2879 268.973 58.0167C268.653 57.5752 268.009 57.5445 267.462 57.593C267.282 57.6085 267.095 57.6308 266.947 57.7313C266.798 57.8313 266.705 58.0349 266.744 58.0571Z" fill="#141D30"/>
<path d="M266.96 60.6425C267.18 60.2219 267.668 59.9547 268.143 59.9956C268.986 60.0676 268.426 61.6985 267.077 62.1066C266.888 62.164 266.65 62.1795 266.528 62.0266C266.431 61.9056 266.452 61.7309 266.488 61.5802C266.59 61.1645 266.774 60.767 266.96 60.6425Z" fill="#FA6E61"/>
<path d="M232.035 50.351C222.542 53.2001 216.808 61.5658 219.67 71.124C221.501 77.2383 225.084 79.8695 231.868 83.8905C233.478 84.8451 234.222 89.2979 234.293 90.4534C236.634 89.1325 240.101 90.2066 243.398 89.2036C246.151 88.3633 246.807 88.2677 249.167 87.9823C248.287 86.4279 247.458 80.6982 248.863 79.4342C254.724 74.1616 256.114 67.7348 254.042 60.8127C251.179 51.2536 241.526 47.5051 232.035 50.351Z" fill="#FFBF00"/>
<path d="M243.236 89.1929L242.781 89.2934C242.732 89.0729 242.552 88.5007 242.36 87.8956C242.182 87.3385 241.993 86.7436 241.882 86.3386C241.396 84.5855 239.762 78.2614 238.682 72.774C238.26 72.8629 237.838 72.9029 237.422 72.8914C237.311 72.8874 237.199 72.882 237.087 72.8727C237.229 73.625 237.36 74.3826 237.488 75.1322C237.696 76.3433 237.893 77.4851 238.135 78.5646C238.26 79.1252 238.399 79.7303 238.543 80.3692C239.187 83.189 239.986 86.6969 240.607 90.1875L240.151 90.2698C239.531 86.7876 238.735 83.2859 238.093 80.4728C237.947 79.8331 237.807 79.2279 237.682 78.6668C237.439 77.5753 237.241 76.4269 237.032 75.2118C236.894 74.4168 236.756 73.6139 236.603 72.8202C233.751 72.4112 230.383 70.35 229.545 67.6054C228.794 65.1454 229.851 64.422 230.365 64.218C231.875 63.6133 234.319 64.9502 235.301 66.9149C236.108 68.5378 236.604 70.4394 236.994 72.3992C237.142 72.4134 237.289 72.4219 237.433 72.4268C237.816 72.437 238.204 72.4001 238.592 72.3178C237.932 68.889 237.508 65.8528 237.749 64.5656C238.124 62.5698 239.269 61.4703 240.817 61.625C242.57 61.802 244.425 63.648 244.39 66.1164C244.367 67.7917 243.549 69.5257 242.147 70.8729C241.245 71.7363 240.201 72.3521 239.133 72.6615C240.123 77.7003 241.599 83.5833 242.327 86.2127C242.439 86.6151 242.625 87.202 242.801 87.7551C243.004 88.3971 243.18 88.9497 243.236 89.1929ZM239.045 72.2031C240.023 71.911 240.99 71.3392 241.825 70.5367C243.139 69.2745 243.904 67.6623 243.926 66.1098C243.957 63.9298 242.288 62.2408 240.77 62.0874C239.47 61.9576 238.538 62.8917 238.206 64.6528C237.981 65.851 238.391 68.8019 239.045 72.2031ZM230.526 64.6541C229.725 64.9827 229.534 65.9808 229.989 67.4698C230.76 69.9939 233.84 71.9043 236.509 72.337C236.129 70.4647 235.649 68.656 234.885 67.123C233.942 65.2317 231.705 64.1824 230.536 64.6492C230.532 64.6514 230.528 64.6523 230.526 64.6541Z" fill="white"/>
<path opacity="0.4" d="M254.043 60.8136C253.103 57.6746 251.427 55.1666 249.269 53.3086C249.685 54.0142 250.055 54.7558 250.37 55.5374C253.236 62.6596 251.475 72.4432 245.437 77.4904C238.423 83.353 230.468 76.4544 227.131 70.1152C224.388 64.9057 222.789 59.213 224.74 54.208C219.91 58.2459 217.653 64.3873 219.671 71.124C221.501 77.2383 225.084 79.8695 231.868 83.8905C233.479 84.8451 234.222 89.2979 234.294 90.4534C236.635 89.1325 240.102 90.2066 243.399 89.2036C246.152 88.3633 246.807 88.2677 249.168 87.9823C248.287 86.4279 247.459 80.6982 248.864 79.4342C254.725 74.1625 256.114 67.7357 254.043 60.8136Z" fill="#FFA607"/>
<path d="M238.515 97.9699C239.612 99.9431 242.085 100.993 244.572 100.371C247.057 99.7466 248.746 97.6565 248.786 95.3988L238.515 97.9699Z" fill="#00FFF1"/>
<path d="M234.156 90.048L235.564 95.4251C236.082 97.404 238.15 98.576 240.182 98.0411L247.425 96.1436C249.458 95.6131 250.687 93.5737 250.168 91.5957L248.761 86.2212L234.156 90.048Z" fill="#009297"/>
<path d="M247.988 90.7002C246.734 90.5922 246.162 90.5023 245.321 90.0155C244.757 89.6892 243.667 89.2228 243.016 89.2597C242.846 89.2677 242.635 89.3801 242.676 89.5447C242.705 89.6602 242.84 89.706 242.954 89.7425C243.399 89.887 245.003 90.8025 244.6 90.6491C243.672 90.8007 242.182 90.7682 241.245 90.6957C241.027 90.6789 240.803 90.6566 240.594 90.7206C240.385 90.7842 240.068 90.991 240.182 91.1777C240.326 91.4116 242.378 91.464 243.475 91.6085C242.547 91.6321 241.62 91.6561 240.691 91.6788C240.465 91.685 240.132 91.8144 240.224 92.0216C240.349 92.2995 242.529 92.3083 243.682 92.4506L241.045 92.6098C240.693 92.632 240.044 92.8281 240.334 93.0313C240.862 93.4039 242.644 93.2398 243.904 93.2798C243.351 93.3598 242.798 93.4403 242.246 93.5203C242.064 93.5484 241.821 93.6773 241.903 93.8431C241.946 93.9298 242.056 93.9521 242.151 93.9632C244.257 94.2233 246.116 93.9294 248.489 93.9614C248.292 92.8717 248.501 91.7468 247.988 90.7002Z" fill="#FA6E61"/>
<path d="M275.349 73.4383C275.138 72.0582 274.804 70.6252 273.835 69.5697C272.866 68.5178 271.075 68.014 271.106 68.3657C267.979 69.8494 266.594 73.324 265.931 76.5572C265.269 79.7886 264.992 83.2374 263.037 85.97C262.507 86.7116 261.845 87.3945 260.999 87.8031C260.141 88.2171 259.158 88.3202 258.202 88.4162L246.765 89.5753C246.731 89.8972 246.691 90.2165 246.664 90.5392C246.524 92.1781 246.481 93.8071 246.553 95.4424L249.598 96.0733C253.622 96.9078 257.795 97.7446 261.827 96.9389C266.933 95.9146 271.188 92.259 273.439 87.8307C275.688 83.4024 276.089 78.2921 275.349 73.4383Z" fill="#00D3CD"/>
<path d="M165.997 189.625C177.527 189.625 186.874 187.336 186.874 184.512C186.874 181.688 177.527 179.399 165.997 179.399C154.467 179.399 145.12 181.688 145.12 184.512C145.12 187.336 154.467 189.625 165.997 189.625Z" fill="#00D3CD"/>
<path d="M156.957 182.033C158.111 183.851 160.686 184.125 162.15 185.687C162.254 185.798 162.357 185.92 162.396 186.068C162.481 186.391 162.226 186.725 161.92 186.837C161.614 186.949 161.277 186.896 160.957 186.844C159.145 186.543 157.332 186.243 155.52 185.943C155.323 185.91 155.121 185.876 154.951 185.769C154.584 185.539 154.469 185.054 154.387 184.62C154.14 183.312 154.263 182.214 154.017 180.906C155.226 181.093 155.796 181.514 156.957 182.033Z" fill="#FA6E61"/>
<path d="M162.396 186.068C162.357 185.92 162.255 185.798 162.15 185.687C161.567 185.065 160.806 184.648 160.03 184.255C159.693 184.734 159.035 184.912 158.409 184.883C157.982 184.862 157.558 184.804 157.133 184.758C156.706 184.712 156.283 184.637 155.88 184.485C155.263 184.252 154.691 183.888 154.24 183.406C154.268 183.799 154.307 184.198 154.387 184.62C154.469 185.054 154.584 185.539 154.951 185.769C155.121 185.875 155.324 185.91 155.52 185.943C157.333 186.244 159.145 186.544 160.957 186.844C161.277 186.896 161.614 186.949 161.92 186.837C162.226 186.725 162.482 186.391 162.396 186.068Z" fill="#132444"/>
<path d="M162.417 112.652C157.937 122.64 155.77 133.654 156.13 144.592C156.185 146.287 156.3 147.997 155.998 149.665C155.711 151.249 155.059 152.739 154.53 154.258C151.417 163.201 152.59 173.019 154.27 182.337C155.62 182.289 155.605 182.241 156.954 182.194C157.158 171.165 162.361 160.569 164.484 149.743C165.205 146.062 165.73 142.346 166.254 138.631C167.364 130.755 168.476 122.879 169.587 115.003C167.16 114.46 164.734 113.917 162.417 112.652Z" fill="#FA6E61"/>
<path d="M155.735 155.552C156.826 154.945 158.004 154.467 159.215 154.161C159.767 154.022 160.313 153.92 160.884 153.942C161.385 153.962 161.887 154.032 162.375 154.144C162.713 154.222 163.052 154.327 163.384 154.459C163.798 152.891 164.174 151.319 164.483 149.743C165.204 146.062 165.729 142.345 166.253 138.63C167.363 130.755 168.475 122.879 169.586 115.002C167.16 114.459 164.733 113.916 162.417 112.652C157.937 122.64 155.77 133.653 156.129 144.592C156.185 146.287 156.3 147.996 155.998 149.665C155.711 151.247 155.059 152.739 154.53 154.257C154.192 155.228 153.908 156.211 153.666 157.201C154.274 156.551 154.962 155.983 155.735 155.552Z" fill="#D75246"/>
<path d="M175.917 179.012C177.03 180.809 179.512 181.082 180.924 182.628C181.024 182.737 181.122 182.857 181.161 183.005C181.243 183.325 180.996 183.654 180.701 183.766C180.406 183.875 180.082 183.824 179.773 183.772C178.027 183.474 176.28 183.177 174.533 182.881C174.344 182.849 174.149 182.814 173.986 182.708C173.632 182.482 173.522 182.001 173.442 181.571C173.203 180.275 173.321 179.191 173.084 177.896C174.25 178.08 174.799 178.498 175.917 179.012Z" fill="#FA6E61"/>
<path d="M181.161 183.004C181.122 182.857 181.024 182.737 180.924 182.627C180.36 182.011 179.628 181.598 178.88 181.209C178.555 181.682 177.92 181.86 177.317 181.831C176.906 181.811 176.498 181.752 176.088 181.708C175.676 181.661 175.269 181.587 174.88 181.436C174.285 181.206 173.733 180.846 173.3 180.37C173.326 180.758 173.365 181.153 173.442 181.571C173.521 182.001 173.631 182.482 173.986 182.707C174.149 182.813 174.343 182.848 174.533 182.88C176.279 183.176 178.026 183.474 179.773 183.771C180.082 183.823 180.406 183.875 180.7 183.765C180.996 183.654 181.243 183.324 181.161 183.004Z" fill="#132444"/>
<path d="M166.484 116.386C164.785 126.179 165.797 136.426 169.379 145.699C169.879 146.993 170.432 148.286 170.612 149.66C170.77 150.856 170.639 152.069 170.548 153.271C170.11 159.087 170.824 164.579 171.565 170.364C171.98 173.599 172.822 175.622 173.289 179.275C174.182 179.137 176.256 179.211 176.119 179.301C176.56 175.852 179.344 154.174 177.65 140.422C176.675 132.506 175.193 124.672 173.314 116.921C173.242 116.623 173.156 116.3 172.915 116.11C172.639 115.892 172.25 115.913 171.899 115.943C169.875 116.12 167.85 116.299 166.484 116.386Z" fill="#FA6E61"/>
<path d="M170.612 149.66C170.77 150.856 170.638 152.069 170.547 153.271C170.529 153.517 170.515 153.763 170.501 154.008C170.71 153.848 170.925 153.691 171.149 153.551C171.433 153.372 171.729 153.212 172.028 153.063C172.838 152.634 173.696 152.299 174.61 152.102C175.787 151.849 176.999 151.808 178.186 151.962C178.219 147.89 178.079 143.902 177.65 140.422C176.674 132.505 175.193 124.672 173.314 116.92C173.241 116.622 173.155 116.3 172.914 116.11C172.638 115.891 172.249 115.912 171.898 115.942C169.874 116.119 167.849 116.299 166.483 116.386C164.784 126.179 165.796 136.426 169.378 145.699C169.878 146.993 170.432 148.286 170.612 149.66Z" fill="#D75246"/>
<path d="M160.188 111.033C153.389 121.94 151.647 135.338 150.073 148.237C150.032 148.574 149.998 148.943 150.172 149.227C150.312 149.46 150.565 149.588 150.805 149.7C160.271 154.164 171.313 152.543 181.396 149.838C181.729 149.748 182.111 149.611 182.22 149.272C182.271 149.116 182.251 148.946 182.23 148.783C181.797 145.28 181.362 141.778 180.929 138.276C180.506 134.868 180.084 131.46 179.521 128.074C178.68 123.009 177.528 118.003 176.074 113.095C175.956 112.701 175.827 112.288 175.54 112.006C174.986 111.461 174.108 111.607 173.36 111.754C168.915 112.626 164.267 112.316 160.188 111.033Z" fill="#00FFF1"/>
<path opacity="0.3" d="M159.658 143.091C159.046 141.047 158.616 138.94 158.486 136.809C158.423 135.772 158.425 134.732 158.497 133.697C158.562 132.746 158.742 131.794 159.554 131.185C160.02 130.836 160.484 130.861 161.032 130.985C161.323 131.052 161.613 131.067 161.886 131.188C162.106 131.286 162.329 131.377 162.554 131.461C163.54 131.828 164.577 132.09 165.624 132.218C167.724 132.473 169.855 132.267 171.896 131.731C174.682 130.996 177.216 129.671 179.507 127.988C178.667 122.952 177.521 117.974 176.074 113.094C175.957 112.701 175.827 112.288 175.541 112.006C174.987 111.461 174.109 111.606 173.36 111.754C168.915 112.627 164.267 112.317 160.188 111.034C153.389 121.942 151.647 135.338 150.073 148.237C150.032 148.574 149.998 148.943 150.172 149.227C150.312 149.461 150.565 149.589 150.805 149.701C155.135 151.743 159.795 152.509 164.543 152.483C162.341 149.696 160.678 146.495 159.658 143.091Z" fill="#00FFF1"/>
<path d="M167.554 143.71C171.9 142.6 175.844 139.991 178.564 136.431" stroke="#132444" stroke-width="0.289931" stroke-miterlimit="10"/>
<path d="M171.281 147.3C173.841 145.308 176.526 143.148 177.594 140.089" stroke="#132444" stroke-width="0.289931" stroke-miterlimit="10"/>
<path d="M173.34 101.267C174.671 105.227 176.395 111.713 178.229 114.001C179.17 115.178 180.365 116.112 181.676 116.832C185.318 118.835 188.146 118.42 192.098 119.604C192.117 118.456 192.103 119.158 192.488 118.091C189.116 116.499 179.82 113.469 179.353 105.581C178.984 99.3516 178.259 99.0408 176.729 95.6982C176.397 94.9704 175.347 93.5725 174.593 93.3369C173.841 93.1017 170.98 94.2466 173.34 101.267Z" fill="#FA6E61"/>
<path d="M189.695 118.55C190.516 119.189 191.346 119.832 192.294 120.257C192.596 120.393 192.964 120.63 193.251 120.465C193.266 120.22 193.131 120.28 192.737 120.068C192.522 119.953 192.207 119.822 192.098 119.604C192.916 120.04 193.864 120.231 194.789 120.143C194.771 119.978 194.627 119.851 194.472 119.796C194.316 119.738 194.147 119.737 193.982 119.717C193.561 119.669 193.154 119.509 192.813 119.259C193.589 119.512 194.445 119.763 195.205 119.457C195.22 119.326 195.115 119.207 194.995 119.157C194.874 119.106 194.738 119.107 194.606 119.101C194.116 119.079 193.63 118.942 193.201 118.707C193.906 118.893 194.656 118.909 195.368 118.749C195.376 118.512 195.054 118.439 194.816 118.421C194.172 118.375 193.571 118.215 193.133 117.945C193.065 117.903 192.674 117.724 192.682 117.645C192.687 117.582 193.363 117.232 193.579 117.055C193.769 116.901 193.892 116.604 193.736 116.417C192.551 116.957 191.231 117.507 189.992 117.119C189.935 117.635 189.801 118.142 189.695 118.55Z" fill="#FA6E61"/>
<path d="M170.251 81.4909C169.247 80.607 167.584 80.5977 166.568 81.4705C165.167 82.6762 165.17 85.0304 163.678 86.1224C161.947 87.3895 159.568 86.1606 157.427 85.9952C155.936 85.8783 154.387 86.3505 153.284 87.3589C152.182 88.3672 151.57 89.9185 151.793 91.3955C152.004 92.7866 152.906 94.1396 152.535 95.4974C152.392 96.0229 152.068 96.4796 151.851 96.9784C151.19 98.5008 151.653 100.433 152.931 101.492C154.212 102.55 156.2 102.644 157.575 101.714C158.251 101.256 158.798 100.576 159.575 100.324C160.465 100.034 161.422 100.377 162.355 100.449C164.33 100.601 166.275 99.4495 167.347 97.7876C168.421 96.1252 168.691 94.0324 168.385 92.0793C168.251 91.2132 168.026 90.2546 168.501 89.517C168.966 88.7949 169.945 88.5629 170.473 87.8844C171.85 86.1166 169.186 83.2022 170.251 81.4909Z" fill="#141D30"/>
<path d="M176.325 91.0901C175.303 91.5858 174.469 92.4604 174.022 93.5039C173.753 94.1334 173.622 94.8119 173.532 95.4913C173.118 98.6151 173.548 101.845 174.761 104.75C176.764 104.454 178.734 103.928 180.619 103.186C180.76 103.132 180.913 103.063 180.971 102.925C181.017 102.816 180.991 102.693 180.965 102.579C180.201 99.2491 179.143 95.9897 177.811 92.8472C177.548 92.2278 177.257 91.5894 176.737 91.1661C176.524 90.9923 176.045 91.0456 176.325 91.0901Z" fill="#FFA607"/>
<path d="M168.354 88.9907C166.111 89.0356 163.607 89.1912 162.077 90.8292C160.534 92.4822 160.571 95.0125 160.685 97.2689C160.973 102.987 161.064 109.099 158.029 113.955C163.97 116.563 170.864 116.932 177.05 114.974C176.466 111.045 175.999 107 176.891 103.128C177.693 99.6462 179.541 95.8835 177.852 92.7325C176.941 91.0368 175.139 89.9617 173.271 89.4873C171.403 89.0138 169.448 89.0641 168.354 88.9907Z" fill="#FFBF00"/>
<path d="M176.255 109.744C175.872 109.763 175.497 109.821 175.112 109.794C174.739 109.769 174.371 109.699 174.002 109.63C173.333 109.505 172.666 109.424 172.012 109.219C169.584 108.467 167.65 106.55 166.571 104.285C165.337 101.693 165.095 98.8725 165.13 96.0399C165.16 93.6373 165.554 91.1448 166.791 89.056C165.018 89.185 163.258 89.5651 162.077 90.8287C160.534 92.4817 160.571 95.012 160.685 97.2684C160.973 102.987 161.064 109.098 158.029 113.955C163.97 116.563 170.864 116.932 177.05 114.974C176.791 113.239 176.557 111.482 176.452 109.727C176.386 109.732 176.321 109.74 176.255 109.744Z" fill="#FFA607"/>
<path d="M168.713 100.71C171.851 99.5671 174.361 96.835 175.228 93.6129" stroke="#26395E" stroke-width="0.289931" stroke-miterlimit="10"/>
<path d="M172.288 101.507C173.738 100.464 174.894 99.0188 175.592 97.3796" stroke="#26395E" stroke-width="0.289931" stroke-miterlimit="10"/>
<path d="M172.958 86.5582C172.759 87.9036 172.859 89.293 173.248 90.5961C172.289 91.1381 171.092 90.9394 170.028 90.6486C169.503 90.505 168.976 90.34 168.513 90.0537C168.462 90.0212 168.408 89.9848 168.382 89.9305C168.355 89.8741 168.346 89.8029 168.368 89.7447C169.21 87.5706 169.377 85.4498 169.239 82.7466C170.256 83.2534 171.529 82.9564 172.568 83.4166C172.668 83.4606 172.768 83.5113 172.838 83.5962C172.922 83.7007 172.945 83.8412 172.963 83.9741C173.091 84.9154 173.061 85.8641 172.958 86.5582Z" fill="#FF7055"/>
<path d="M169.965 86.5085C169.344 85.2498 169.598 83.811 169.308 82.475C170.323 82.9823 171.532 82.9565 172.569 83.4171C172.669 83.4611 172.77 83.5118 172.84 83.5967C172.924 83.7012 172.947 83.8417 172.965 83.9746C173.092 84.9154 173.061 85.8642 172.959 86.5578C172.849 87.3034 172.834 88.0601 172.906 88.8111C171.649 88.5025 170.543 87.6791 169.965 86.5085Z" fill="#D75246"/>
<path d="M175.195 80.5951C175.327 81.4474 175.46 82.2023 175.555 83.0591C175.685 84.2297 175.929 85.1385 175.354 86.1673C174.888 87.0005 174.002 87.6239 172.868 87.494C171.919 87.386 171.128 86.8805 170.52 86.1429C169.352 84.7273 168.811 82.8128 169.066 80.9957C169.15 80.3945 169.265 79.8757 169.992 79.4631C170.818 78.9927 171.555 78.8469 172.501 78.7771C173.846 78.6788 175.064 79.7432 175.195 80.5951Z" fill="#FF7055"/>
<path d="M175.72 77.8083C176.812 78.6233 177.238 79.4538 176.607 80.275C176.191 80.8156 175.71 80.3777 175.537 80.3755C175.298 80.371 175.201 80.6707 175.061 80.8645C174.802 81.2198 174.29 81.2567 173.854 81.2015C173.421 81.1477 172.979 81.029 172.647 80.7458C172.422 80.5537 172.257 80.2954 172.017 80.1198C171.778 79.9446 171.408 79.8824 171.205 80.0971C170.949 80.3661 171.13 80.8512 170.908 81.1477C170.759 81.3487 170.467 81.3914 170.223 81.3349C169.772 81.2291 169.421 80.8352 169.299 80.3888C169.176 79.9429 169.259 79.4569 169.46 79.0407C169.67 78.6006 170.008 78.2227 170.422 77.9639C171.404 77.3512 172.289 78.0422 173.3 77.4739C174.144 77.0009 175.603 77.7211 175.72 77.8083Z" fill="#141D30"/>
<path d="M170.644 79.6725C170.323 80.3199 170.16 81.0473 170.175 81.7707C170.177 81.8685 170.182 81.9667 170.159 82.061C170.134 82.1699 170.074 82.2664 170.015 82.3602C169.744 82.7928 169.473 83.2241 169.201 83.6558C168.489 82.9978 167.527 82.1001 168.038 80.4382C168.135 80.1225 168.307 79.6081 168.528 79.3635C169.575 78.2031 170.364 79.2115 170.493 79.328C170.621 79.444 170.685 79.6548 170.644 79.6725Z" fill="#141D30"/>
<path d="M169.654 82.9542C169.327 82.6247 168.8 82.5189 168.378 82.6994C167.633 83.02 168.64 84.3863 169.995 84.3667C170.184 84.3645 170.405 84.308 170.47 84.1279C170.522 83.9843 170.449 83.8265 170.37 83.6953C170.151 83.3343 169.862 83.0155 169.654 82.9542Z" fill="#FF7055"/>
<path d="M192.921 105.132L144.292 119.554L152.356 146.794L200.985 132.372L192.921 105.132Z" fill="#008184"/>
<path d="M157.465 98.3456C156.239 102.179 153.862 108.207 154.018 111.016C154.098 112.462 154.524 113.86 155.169 115.157C156.961 118.759 159.501 120.02 162.021 123.158C162.705 122.275 162.285 122.815 163.219 122.198C161.407 119.065 155.62 111.492 159.837 105.079C163.166 100.014 162.757 99.3651 163.463 95.9003C163.617 95.1476 163.577 93.4687 163.103 92.8627C162.629 92.2563 159.638 91.5467 157.465 98.3456Z" fill="#FF7055"/>
<path d="M161.884 122.824C162.203 123.814 162.527 124.815 163.072 125.701C163.245 125.982 163.415 126.386 163.746 126.412C163.895 126.217 163.75 126.189 163.545 125.794C163.43 125.578 163.244 125.292 163.277 125.048C163.707 125.872 164.384 126.564 165.197 127.012C165.275 126.866 165.228 126.679 165.131 126.545C165.035 126.411 164.895 126.313 164.771 126.205C164.449 125.929 164.202 125.565 164.062 125.166C164.562 125.814 165.128 126.504 165.927 126.679C166.013 126.581 165.994 126.423 165.923 126.313C165.85 126.202 165.738 126.127 165.633 126.047C165.24 125.752 164.916 125.366 164.693 124.928C165.171 125.481 165.782 125.916 166.461 126.187C166.601 125.993 166.375 125.752 166.188 125.604C165.683 125.204 165.276 124.731 165.066 124.261C165.034 124.188 164.811 123.82 164.862 123.759C164.902 123.711 165.658 123.801 165.934 123.779C166.178 123.758 166.448 123.581 166.424 123.338C165.142 123.116 163.741 122.827 162.935 121.809C162.598 122.203 162.202 122.547 161.884 122.824Z" fill="#FF7055"/>
<path d="M164.206 89.8469C163.071 89.8056 161.925 90.1866 161.042 90.8993C160.51 91.3284 160.076 91.8677 159.678 92.4243C157.85 94.9902 156.716 98.0437 156.428 101.18C158.336 101.858 160.322 102.319 162.335 102.548C162.485 102.565 162.652 102.577 162.768 102.481C162.859 102.407 162.895 102.287 162.924 102.174C163.808 98.8734 164.401 95.4983 164.696 92.0962C164.754 91.4266 164.796 90.7264 164.534 90.1061C164.428 89.8545 163.981 89.6771 164.206 89.8469Z" fill="#FFBF00"/>
<path d="M48.2874 184.067C72.0833 184.067 91.3736 181.38 91.3736 178.065C91.3736 174.75 72.0833 172.063 48.2874 172.063C24.4915 172.063 5.20117 174.75 5.20117 178.065C5.20117 181.38 24.4915 184.067 48.2874 184.067Z" fill="#00D3CD"/>
<path d="M29.0291 136.559L28.8785 136.082C28.8163 135.885 28.7039 135.736 28.5636 135.613C27.2483 133.022 25.6213 130.535 24.6036 127.849C23.1831 124.099 23.8241 119.58 25.576 116.002C26.2076 114.709 23.5953 114.151 22.9703 115.431C21.3397 118.763 21.027 122.202 21.421 125.742C21.8768 129.845 24.652 133.348 26.4257 137.129C27.0227 138.409 29.4595 137.923 29.0291 136.559Z" fill="#26395E"/>
<path d="M36.8065 144.003H34.542V175.17H36.8065V144.003Z" fill="#26395E"/>
<path d="M24.22 174.602C26.9056 171.019 31.0361 168.716 35.6743 168.716C40.3152 168.716 44.4435 171.02 47.1304 174.602H49.3362C46.3859 169.914 41.371 166.828 35.6743 166.828C29.9829 166.828 24.9627 169.914 22.0146 174.602H24.22Z" fill="#26395E"/>
<path d="M25.3754 175.184C25.3754 176.314 24.4568 177.229 23.3228 177.229C22.1875 177.229 21.2676 176.314 21.2676 175.184C21.2676 174.057 22.1875 173.141 23.3228 173.141C24.4568 173.141 25.3754 174.057 25.3754 175.184Z" fill="#004242"/>
<path d="M37.7297 175.184C37.7297 176.314 36.8094 177.23 35.674 177.23C34.5405 177.23 33.6201 176.314 33.6201 175.184C33.6201 174.057 34.5409 173.141 35.674 173.141C36.8094 173.141 37.7297 174.057 37.7297 175.184Z" fill="#004242"/>
<path d="M50.7008 175.184C50.7008 176.314 49.7796 177.23 48.6447 177.23C47.5106 177.23 46.5898 176.314 46.5898 175.184C46.5898 174.057 47.5106 173.141 48.6447 173.141C49.7796 173.141 50.7008 174.057 50.7008 175.184Z" fill="#004242"/>
<path d="M34.5926 113.798C34.5926 117.293 31.7449 120.124 28.2341 120.124H20.1063C16.595 120.124 13.75 117.293 13.75 113.798C13.75 110.304 16.595 107.47 20.1063 107.47H28.2341C31.7445 107.47 34.5926 110.304 34.5926 113.798Z" fill="#00D3CD"/>
<path d="M50.0096 142.253C50.0096 145.226 47.5883 147.636 44.6007 147.636H25.7578C22.7693 147.636 20.3467 145.226 20.3467 142.253C20.3467 139.278 22.7693 136.869 25.7578 136.869H44.6007C47.5883 136.869 50.0096 139.278 50.0096 142.253Z" fill="#00D3CD"/>
<path d="M72.0617 164.176C73.4769 166.506 75.6485 167.344 77.1543 168.95C77.2614 169.064 77.3666 169.19 77.4071 169.342C77.495 169.675 77.232 170.018 76.9176 170.132C76.6026 170.248 76.2562 170.194 75.927 170.139C74.0641 169.831 72.1998 169.523 70.336 169.214C70.1339 169.18 69.9265 169.144 69.7515 169.036C69.3735 168.799 69.2558 168.299 69.1714 167.853C68.9177 166.508 69.1247 165.984 68.8711 164.639C70.1144 164.831 72.0617 164.176 72.0617 164.176Z" fill="#EA554E"/>
<path d="M77.4067 169.342C77.3663 169.19 77.2606 169.064 77.1539 168.95C76.5538 168.31 76.0253 167.633 75.2275 167.229C74.881 167.721 73.95 168.154 73.3064 168.123C72.8675 168.102 72.4313 168.042 71.9947 167.994C71.5554 167.948 71.1205 167.87 70.7057 167.714C70.0718 167.474 69.4833 167.1 69.0195 166.605C69.048 167.008 69.0884 167.419 69.1706 167.853C69.2549 168.299 69.3735 168.799 69.7507 169.036C69.9257 169.144 70.1336 169.18 70.3352 169.214C72.199 169.522 74.0633 169.831 75.9262 170.139C76.2554 170.194 76.6018 170.248 76.9163 170.132C77.2317 170.017 77.4942 169.674 77.4067 169.342Z" fill="#132444"/>
<path d="M72.1974 164.444C72.1841 164.399 72.165 164.352 72.1574 164.309C70.8564 157.297 68.6941 145.06 67.4415 140.275C65.5981 133.232 65.2578 130.816 54.126 128.018C42.061 124.987 25.0615 125.901 25.0615 125.901C25.0615 125.901 24.1736 132.035 24.4743 135.628C24.9074 140.875 34.1878 143.734 36.0329 143.829C41.0216 144.088 59.9551 139.95 59.9551 139.95C59.9551 139.95 60.9901 148.443 62.4106 152.241C63.9559 156.379 65.7398 158.316 69.4297 165.092C70.3478 164.857 71.2761 164.667 72.1974 164.444Z" fill="#EA554E"/>
<path d="M69.3267 169.287C69.7798 169.159 70.0499 169.096 70.4621 168.748C68.8186 161.421 66.1335 149.004 64.6566 144.118C63.4359 140.081 63.6931 136.834 60.7646 134.84C58.7395 133.461 55.4961 132.939 50.2529 131.829C37.5193 129.135 22.6182 128.682 22.6182 128.682C22.6182 128.682 28.7928 143.559 30.725 143.586C35.9514 143.66 56.8171 144.076 56.8171 144.076C56.8171 144.076 58.3202 152.939 59.9544 156.854C61.6752 160.983 63.4679 162.923 67.3204 169.334C67.9231 169.287 68.7271 169.457 69.3267 169.287Z" fill="#FA6E61"/>
<path d="M70.4625 168.748C71.8782 171.078 74.0493 171.916 75.5551 173.522C75.6622 173.637 75.7675 173.762 75.8079 173.914C75.8958 174.246 75.6324 174.59 75.318 174.704C75.003 174.82 74.6566 174.766 74.3274 174.712C72.4645 174.403 70.6002 174.094 68.7364 173.786C68.5343 173.752 68.3269 173.716 68.1519 173.607C67.7739 173.371 67.6561 172.871 67.5718 172.424C67.3181 171.08 67.5251 170.556 67.2715 169.211C68.5152 169.404 70.4625 168.748 70.4625 168.748Z" fill="#FA6E61"/>
<path d="M75.8081 173.914C75.7676 173.762 75.6619 173.637 75.5553 173.522C74.9548 172.882 74.4271 172.206 73.6289 171.802C73.2824 172.293 72.3518 172.726 71.7078 172.696C71.2689 172.674 70.8327 172.614 70.3961 172.567C69.9568 172.52 69.5223 172.442 69.107 172.286C68.4732 172.047 67.8851 171.673 67.4209 171.177C67.4493 171.581 67.4897 171.99 67.5719 172.425C67.6563 172.871 67.7749 173.371 68.152 173.608C68.327 173.717 68.5345 173.752 68.7366 173.786C70.6004 174.094 72.4647 174.403 74.3276 174.712C74.6567 174.766 75.0032 174.82 75.3181 174.704C75.6326 174.59 75.8956 174.246 75.8081 173.914Z" fill="#132444"/>
<path d="M22.6341 122.383C22.6341 122.383 21.1101 130.239 21.0133 134.251C20.7174 146.717 35.1789 146.379 37.2168 146.634C43.7557 147.452 55.5311 144.318 55.5311 144.318C55.5311 144.318 54.8084 138.418 58.3753 134.322C60.6402 131.72 62.8207 131.18 62.8207 131.18C62.8207 131.18 59.2743 126.468 40.4389 126.316C34.5548 126.268 22.6341 122.383 22.6341 122.383Z" fill="#008184"/>
<g opacity="0.3">
<path d="M29.666 137.886C31.3557 134.309 36.3662 134.181 39.7433 134.004C45.8047 133.687 51.8759 134.14 57.8857 134.936C58.0399 134.728 58.2011 134.523 58.3757 134.322C60.6406 131.72 62.8211 131.181 62.8211 131.181C62.8211 131.181 59.2747 126.469 40.4394 126.316C34.5552 126.268 22.6341 122.384 22.6341 122.384C22.6341 122.384 21.1101 130.239 21.0133 134.252C20.8298 141.983 26.3222 144.787 31.007 145.865C29.734 143.479 28.4561 140.448 29.666 137.886Z" fill="#00FFF1"/>
</g>
<path d="M38.0263 100.64C39.8439 100.099 41.5314 101.023 42.9208 102.795C46.4716 107.32 45.3216 109.474 45.6072 116.034C45.7787 119.963 59.2491 120.298 59.2491 120.298C59.2491 120.298 58.5069 121.493 58.6681 122.383C58.8836 123.567 58.7174 122.727 59.4424 124.497C59.4424 124.497 44.1521 124.708 38.5389 123.806C34.869 123.219 34.555 107.313 34.869 105.695C35.4846 102.522 37.1073 100.915 38.0263 100.64Z" fill="#FFA607"/>
<path d="M43.1338 103.188C44.4206 105.025 45.8878 112.407 42.8015 115.38C39.9068 118.167 41.23 125.708 40.4393 126.316C37.3402 128.703 34.7768 130.182 26.2409 128.682C25.6648 128.581 21.6777 127.994 21.6777 127.994C21.6777 127.994 22.4586 119.433 23.1116 115.681C24.7933 106.016 26.4243 101.988 28.898 100.071C30.8986 98.5201 34.1865 97.3068 36.7632 98.1675C38.5573 98.7673 41.2549 100.505 43.1338 103.188Z" fill="#FFBF00"/>
<g opacity="0.3">
<path d="M36.4394 116.897C35.1175 114.257 36.113 111.969 36.5913 108.972C37.1124 105.709 34.6498 101.229 34.6862 97.8856C32.5932 97.9491 30.3887 98.9153 28.898 100.07C26.4243 101.988 24.7933 106.015 23.1116 115.68C22.4591 119.433 21.6777 127.994 21.6777 127.994C21.6777 127.994 25.6648 128.58 26.2409 128.681C34.7768 130.181 37.3402 128.702 40.4393 126.315C40.876 125.979 40.669 123.527 40.8831 120.93C38.0549 120.543 37.9381 119.891 36.4394 116.897Z" fill="#FFA607"/>
</g>
<path d="M38.418 113.087C39.1846 112.165 40.0033 111.379 40.6638 110.339C41.1484 109.577 41.7383 108.09 42.2247 107.6" stroke="#26395E" stroke-width="0.289931" stroke-miterlimit="10"/>
<path d="M41.4639 112.782C41.8032 111.967 42.39 111.141 42.8342 110.344" stroke="#26395E" stroke-width="0.289931" stroke-miterlimit="10"/>
<path d="M28.059 101.944C29.2965 100.508 32.7047 100.21 34.0604 102.008C37.5246 106.6 35.0136 111.255 34.1897 118.156C33.7233 122.06 48.3659 123.242 48.3659 123.242L48.6804 127.183C48.6804 127.183 32.1024 128.368 27.2199 125.455C22.1459 122.427 25.536 109.584 25.8802 107.973C26.5554 104.811 27.2363 102.897 28.059 101.944Z" fill="#FFBF00"/>
<path d="M38.2567 88.5511C35.6857 88.8227 36.348 92.9038 34.8844 94.3576C33.6629 95.571 32.7976 94.744 31.5148 94.7596C30.1849 94.776 30.0286 95.7671 28.9088 96.3757C26.3947 97.7451 24.7583 94.6191 22.9735 93.5204C20.9138 92.2515 18.2363 89.2744 21.0489 86.9491C21.6521 86.4507 22.3979 86.5001 23.0584 86.1133C23.825 85.6638 24.2772 84.9608 24.9844 84.4251C26.8993 82.9743 27.976 84.2504 29.774 85.0987C31.3225 85.83 32.9895 84.626 34.3976 85.6891C35.5125 86.5308 35.7852 88.8449 37.5304 88.527C37.415 88.4795 37.2644 88.4341 37.1649 88.3585" fill="#141D30"/>
<path d="M38.3626 95.8076C38.073 97.1761 38.0877 98.6081 38.4053 99.9713C37.3858 100.466 36.1697 100.187 35.0965 99.8193C34.567 99.6396 34.0367 99.4365 33.5796 99.1132C33.5281 99.0768 33.4757 99.0359 33.453 98.9785C33.4277 98.9185 33.4224 98.8456 33.4508 98.7864C34.4507 96.6083 34.7576 94.4417 34.7873 91.6594C35.7979 92.244 37.1247 92.019 38.161 92.5579C38.2605 92.609 38.3613 92.6677 38.4266 92.7589C38.5065 92.8723 38.5221 93.0172 38.5318 93.1559C38.6029 94.1301 38.5119 95.1015 38.3626 95.8076Z" fill="#FF7055"/>
<path d="M35.2928 95.5671C34.7349 94.235 35.0871 92.7745 34.873 91.3842C35.8831 91.9689 37.126 92.02 38.1614 92.5589C38.2609 92.61 38.3617 92.6687 38.427 92.7598C38.5069 92.8732 38.5225 93.0182 38.5323 93.1569C38.6029 94.1301 38.5118 95.102 38.3626 95.8067C38.2018 96.5657 38.1392 97.342 38.1654 98.1174C36.8954 97.7208 35.8121 96.8044 35.2928 95.5671Z" fill="#D75246"/>
<path d="M41.0364 89.8293C41.1177 90.7119 41.207 91.4962 41.2505 92.3809C41.3105 93.5912 41.5019 94.5399 40.8472 95.5585C40.3159 96.3842 39.3676 96.968 38.2114 96.7639C37.2444 96.5918 36.4644 96.0232 35.8869 95.2278C34.7778 93.7001 34.3434 91.7007 34.7196 89.8524C34.8436 89.2407 34.9955 88.716 35.7675 88.3385C36.6443 87.9082 37.411 87.8055 38.3864 87.793C39.7723 87.7766 40.9551 88.9463 41.0364 89.8293Z" fill="#FF7055"/>
<path d="M41.751 87.0017C42.8197 87.9079 43.2044 88.7877 42.5057 89.5898C42.0442 90.1185 41.5791 89.6387 41.4014 89.6249C41.1563 89.6049 41.0372 89.9068 40.8809 90.0962C40.5939 90.4448 40.0649 90.4501 39.6211 90.3661C39.1805 90.2834 38.7345 90.134 38.4112 89.8219C38.1922 89.6098 38.0389 89.3342 37.8044 89.139C37.5694 88.9442 37.1937 88.8571 36.9716 89.0652C36.6922 89.3248 36.8472 89.8343 36.6002 90.1242C36.4336 90.3212 36.1329 90.3474 35.8851 90.2727C35.4298 90.1362 35.094 89.7099 34.9967 89.2439C34.899 88.7784 35.0149 88.2853 35.2472 87.871C35.4906 87.4321 35.8624 87.0658 36.3031 86.8261C37.3491 86.2592 38.214 87.0249 39.288 86.506C40.1848 86.0734 41.6373 86.9053 41.751 87.0017Z" fill="#141D30"/>
<path d="M36.4232 88.5934C36.0518 89.2377 35.8382 89.9735 35.8089 90.7173C35.8053 90.8178 35.8044 90.9196 35.7738 91.0143C35.7405 91.1242 35.6734 91.2198 35.6068 91.3113C35.3016 91.7391 34.9956 92.1645 34.6904 92.5905C34.001 91.8698 33.07 90.8867 33.7003 89.2137C33.8202 88.8953 34.0286 88.3787 34.2702 88.1413C35.4189 87.0173 36.1651 88.1017 36.2899 88.2293C36.4147 88.3574 36.4663 88.5779 36.4232 88.5934Z" fill="#141D30"/>
<path d="M35.1997 91.899C34.8847 91.5397 34.3504 91.3979 33.9066 91.5566C33.1209 91.8381 34.0679 93.3048 35.4599 93.3706C35.6545 93.38 35.8846 93.3364 35.9623 93.1554C36.025 93.0114 35.961 92.8455 35.8877 92.7055C35.6852 92.3205 35.4093 91.9754 35.1997 91.899Z" fill="#FF7055"/>
<path d="M63.7812 110.71C63.7812 111.208 64.1859 111.612 64.6834 111.612C65.1822 111.612 65.5855 111.208 65.5855 110.71C65.5855 110.208 65.1818 109.806 64.6834 109.806C64.1859 109.806 63.7812 110.208 63.7812 110.71Z" fill="white"/>
<path d="M7.74805 180.456L16.3555 129.111L20.395 129.35L9.33824 180.456H7.74805Z" fill="#26395E"/>
<path d="M91.0437 180.456L82.4367 129.111L78.3018 129.236L89.4544 180.456H91.0437Z" fill="#26395E"/>
<path d="M87.3698 128.056H11.0264V129.95H87.3698V128.056Z" fill="#26395E"/>
<path d="M47.6191 126.961H33.7471V128.056H47.6191V126.961Z" fill="#00FFF1"/>
<path d="M53.1167 107.414H51.5514L45.7432 126.962H47.619L53.1167 107.414Z" fill="#00FFF1"/>
<path d="M53.1179 107.414L47.0498 128.056H70.7499L76.7109 107.414H53.1179Z" fill="#00D3CD"/>
<path opacity="0.4" d="M61.5402 122.74C55.5454 120.251 52.8097 114.85 52.6764 108.918L47.0508 128.056H70.7509L71.9178 124.016C68.4224 124.464 64.8525 124.114 61.5402 122.74Z" fill="#00D3CD"/>
<path d="M43.1104 79.8521C43.1104 69.3891 51.6063 60.9073 62.0861 60.9073C72.5676 60.9073 81.0636 69.3895 81.0636 79.8521C81.0636 90.3168 72.5676 98.7991 62.0861 98.7991C51.6063 98.7991 43.1104 90.3164 43.1104 79.8521Z" fill="#008184"/>
<path d="M46.7383 79.852C46.7383 71.3894 53.6108 64.5291 62.0863 64.5291C70.5628 64.5291 77.4366 71.3898 77.4366 79.852C77.4366 88.3152 70.5628 95.1773 62.0863 95.1773C53.6103 95.1768 46.7383 88.3147 46.7383 79.852Z" fill="white"/>
<path d="M62.0869 65.4912V70.6443" stroke="#132444" stroke-width="0.289931" stroke-miterlimit="10"/>
<path d="M62.0869 89.0596V94.2121" stroke="#132444" stroke-width="0.289931" stroke-miterlimit="10"/>
<path d="M71.7141 69.1824L68.2588 73.0122" stroke="#132444" stroke-width="0.289931" stroke-miterlimit="10"/>
<path d="M55.9133 86.6933L52.458 90.5231" stroke="#132444" stroke-width="0.289931" stroke-miterlimit="10"/>
<path d="M47.7021 79.8521H52.8645" stroke="#132444" stroke-width="0.289931" stroke-miterlimit="10"/>
<path d="M71.3086 79.8521H76.4714" stroke="#132444" stroke-width="0.289931" stroke-miterlimit="10"/>
<path d="M51.915 69.6986L55.5654 73.3421" stroke="#132444" stroke-width="0.289931" stroke-miterlimit="10"/>
<path d="M68.6074 86.363L72.2586 90.0057" stroke="#132444" stroke-width="0.289931" stroke-miterlimit="10"/>
<path d="M61.0167 80.8489C60.7444 79.9477 61.2543 78.9971 62.1556 78.7237C63.0577 78.4507 64.0091 78.9602 64.281 79.8583C64.5533 80.7591 64.0434 81.7101 63.1412 81.9827C62.2408 82.2552 61.2894 81.7488 61.0167 80.8489Z" fill="#04A0A0"/>
<path d="M62.6997 80.5221L59.6406 76.0471L58.8828 72.6841L60.803 75.3051L62.6997 80.5221Z" fill="#04A0A0"/>
<path d="M62.3945 80.1162L63.8279 73.2874L65.9871 69.3175L65.2369 73.4133L62.3945 80.1162Z" fill="#04A0A0"/>
<path d="M84.9267 91.2176L109.412 90.7406C110.866 90.7121 112.067 91.869 112.096 93.3242L112.262 101.846C112.29 103.301 111.134 104.504 109.68 104.532L93.5653 104.847C92.5312 105.743 91.0743 107.193 90.8353 108.426C90.4582 110.37 90.7438 110.848 90.7438 110.848C90.7438 110.848 87.2281 107.202 87.6936 104.96L85.1946 105.01C83.7403 105.038 82.5383 103.881 82.5099 102.425L82.3442 93.9048C82.3171 92.4483 83.4725 91.2461 84.9267 91.2176Z" fill="white"/>
<path opacity="0.1" d="M83.9062 104.7C84.76 103.496 85.8465 102.484 87.2106 101.838C91.0777 100.011 95.647 101.354 99.7185 100.364C104.293 99.2513 109.87 95.9332 109.883 90.7753C111.117 90.9736 112.071 92.0296 112.096 93.3238L112.262 101.845C112.291 103.3 111.135 104.504 109.681 104.532L93.5656 104.846C92.5315 105.743 91.0746 107.192 90.8356 108.426C90.4585 110.369 90.7441 110.848 90.7441 110.848C90.7441 110.848 87.2283 107.201 87.6938 104.96L85.1948 105.009C84.7293 105.018 84.29 104.905 83.9062 104.7Z" fill="#00FFF1"/>
<path d="M101.765 96.3423C101.785 97.3346 102.604 98.1242 103.595 98.1051C104.587 98.0851 105.375 97.2644 105.356 96.2711C105.337 95.2796 104.517 94.49 103.526 94.5091C102.534 94.5282 101.746 95.349 101.765 96.3423Z" fill="#009297"/>
<path d="M95.4798 96.464C95.4994 97.4573 96.3184 98.2469 97.3108 98.2269C98.3017 98.2078 99.0902 97.3871 99.0706 96.3947C99.0515 95.4023 98.232 94.6127 97.2406 94.6318C96.2492 94.6518 95.4607 95.4712 95.4798 96.464Z" fill="#009297"/>
<path d="M89.1957 96.5863C89.2152 97.5796 90.0347 98.3692 91.0266 98.3501C92.0185 98.3301 92.806 97.5102 92.7869 96.5161C92.7678 95.5246 91.9483 94.735 90.9564 94.7541C89.965 94.7741 89.1761 95.5948 89.1957 96.5863Z" fill="#009297"/>
<path d="M196.312 132.005C196.585 131.928 196.743 131.645 196.666 131.372L191.236 112.232C191.159 111.96 190.875 111.802 190.603 111.879C190.33 111.957 190.172 112.24 190.249 112.513L195.679 131.652C195.756 131.925 196.04 132.083 196.312 132.005Z" fill="white"/>
<path d="M155.723 140.836L197.446 128.974C197.719 128.897 197.877 128.614 197.8 128.341C197.722 128.069 197.439 127.911 197.167 127.988L155.443 139.849C155.171 139.927 155.013 140.21 155.09 140.482C155.167 140.755 155.451 140.913 155.723 140.836Z" fill="white"/>
<path d="M191.651 128.114C191.729 128.092 191.802 128.051 191.865 127.991C192.07 127.796 192.077 127.471 191.882 127.267L188.034 123.233C187.913 123.105 187.735 123.049 187.563 123.084C187.388 123.122 187.248 123.239 187.185 123.403L185.582 127.591L179.428 122.639C179.301 122.537 179.132 122.501 178.975 122.543C178.972 122.544 178.969 122.545 178.967 122.546C178.813 122.59 178.687 122.703 178.629 122.853L175.803 130.116L168.827 122.638C168.698 122.499 168.503 122.443 168.321 122.492C168.128 122.53 167.997 122.686 167.953 122.87L165.385 133.771L156.135 120.956C155.969 120.726 155.648 120.676 155.42 120.841C155.19 121.006 155.139 121.327 155.304 121.557L165.21 135.282C165.328 135.445 165.53 135.524 165.726 135.485C165.922 135.444 166.079 135.295 166.125 135.099L168.731 124.038L175.61 131.412C175.73 131.542 175.908 131.599 176.082 131.566C176.253 131.532 176.398 131.413 176.462 131.249L179.33 123.877L185.487 128.831C185.615 128.934 185.784 128.969 185.942 128.926C186.091 128.889 186.228 128.768 186.287 128.614L187.852 124.527L191.14 127.974C191.276 128.117 191.474 128.164 191.651 128.114Z" fill="url(#paint0_linear_275_3720)"/>
<path d="M155.519 125.171C155.722 125.113 155.876 124.932 155.89 124.709L156.088 121.566L159.172 122.482C159.444 122.563 159.729 122.408 159.81 122.137C159.89 121.865 159.736 121.58 159.464 121.499L155.763 120.399C155.614 120.355 155.452 120.381 155.324 120.471C155.196 120.56 155.116 120.703 155.106 120.859L154.867 124.645C154.849 124.928 155.064 125.171 155.346 125.189C155.406 125.193 155.464 125.186 155.519 125.171Z" fill="url(#paint1_linear_275_3720)"/>
<path d="M176.721 118.565L172.972 119.631C172.7 119.709 172.416 119.551 172.339 119.278C172.262 119.006 172.42 118.722 172.692 118.645L176.441 117.579C176.713 117.502 176.997 117.66 177.074 117.932C177.151 118.204 176.993 118.488 176.721 118.565Z" fill="white"/>
<path d="M176.641 122.062L180.39 120.996C180.662 120.919 180.82 120.635 180.743 120.363C180.666 120.091 180.382 119.933 180.11 120.01L176.361 121.076C176.089 121.153 175.931 121.437 176.008 121.709C176.085 121.982 176.369 122.14 176.641 122.062Z" fill="white"/>
<path d="M185.89 122.64L189.639 121.574C189.911 121.496 190.069 121.213 189.992 120.94C189.914 120.668 189.631 120.51 189.359 120.587L185.61 121.653C185.338 121.731 185.18 122.014 185.257 122.287C185.334 122.559 185.618 122.717 185.89 122.64Z" fill="white"/>
<path d="M151.763 129.846L155.512 128.781C155.784 128.703 155.942 128.42 155.865 128.147C155.787 127.875 155.504 127.717 155.232 127.794L151.483 128.86C151.211 128.938 151.053 129.221 151.13 129.494C151.207 129.766 151.491 129.924 151.763 129.846Z" fill="white"/>
<path d="M152.418 132.154L156.167 131.088C156.439 131.011 156.597 130.728 156.52 130.455C156.443 130.183 156.16 130.025 155.887 130.102L152.139 131.168C151.866 131.245 151.708 131.529 151.785 131.801C151.863 132.074 152.146 132.232 152.418 132.154Z" fill="white"/>
<path d="M153.073 134.462L156.821 133.397C157.094 133.319 157.252 133.036 157.174 132.763C157.097 132.491 156.814 132.333 156.542 132.41L152.793 133.476C152.521 133.554 152.362 133.837 152.44 134.11C152.517 134.382 152.8 134.54 153.073 134.462Z" fill="white"/>
<path d="M153.728 136.77L157.477 135.704C157.749 135.627 157.907 135.343 157.83 135.071C157.752 134.799 157.469 134.64 157.197 134.718L153.448 135.784C153.176 135.861 153.018 136.145 153.095 136.417C153.172 136.689 153.456 136.847 153.728 136.77Z" fill="white"/>
<defs>
<linearGradient id="paint0_linear_275_3720" x1="157.398" y1="129.051" x2="189.84" y2="119.85" gradientUnits="userSpaceOnUse">
<stop offset="0.1885" stop-color="#FFD234"/>
<stop offset="0.9861" stop-color="#FFB000"/>
</linearGradient>
<linearGradient id="paint1_linear_275_3720" x1="154.397" y1="123.097" x2="159.736" y2="121.583" gradientUnits="userSpaceOnUse">
<stop offset="0.1885" stop-color="#FFD234"/>
<stop offset="0.9861" stop-color="#FFB000"/>
</linearGradient>
</defs>
</svg>
