<svg width="491" height="536" viewBox="0 0 491 536" fill="none" xmlns="http://www.w3.org/2000/svg">
<path d="M0 9.99976C0 4.47692 4.47715 -0.000244141 10 -0.000244141H481C486.523 -0.000244141 491 4.47691 491 9.99976V526C491 531.523 486.523 536 481 536H10C4.47716 536 0 531.523 0 526V9.99976Z" fill="#053777"/>
<path d="M0 9.99976C0 4.47692 4.47715 -0.000244141 10 -0.000244141H481C486.523 -0.000244141 491 4.47691 491 9.99976V526C491 531.523 486.523 536 481 536H10C4.47716 536 0 531.523 0 526V9.99976Z" fill="url(#paint0_linear_1_7281)"/>
<path d="M0 9.99976C0 4.47692 4.47715 -0.000244141 10 -0.000244141H481C486.523 -0.000244141 491 4.47691 491 9.99976V526C491 531.523 486.523 536 481 536H10C4.47716 536 0 531.523 0 526V9.99976Z" fill="black" fill-opacity="0.1"/>
<defs>
<linearGradient id="paint0_linear_1_7281" x1="162.377" y1="107.153" x2="389.733" y2="149.452" gradientUnits="userSpaceOnUse">
<stop stop-color="#FE3732"/>
<stop offset="1" stop-color="#FA5209"/>
</linearGradient>
</defs>
</svg>
