<svg width="270" height="52" viewBox="0 0 300 52" fill="none" xmlns="http://www.w3.org/2000/svg">
<path d="M54.5513 0.651001H0V51.9292H54.5513V0.651001Z" fill="white"/>
<path d="M286.76 51.7527V51.9292H0V0.651001H286.94V51.9292H286.76V51.7527H286.581V1.00681H0.35899V51.5762H286.76V51.7527H286.581H286.76Z" fill="url(#paint0_linear_515_1325)"/>
<path d="M286.76 51.7527V51.9292H0V0.651001H286.94V51.9292H286.76V51.7527H286.581V1.00681H0.35899V51.5762H286.76V51.7527H286.581H286.76Z" fill="white"/>
<path d="M17.7753 8.85181H10.2827V12.7507H17.7753V8.85181Z" fill="url(#paint1_linear_515_1325)"/>
<path d="M44.7166 8.85181H37.1033V12.7507H44.7166V8.85181Z" fill="url(#paint2_linear_515_1325)"/>
<path d="M10.2827 14.5885V43.6053H17.3582V38.7641L27.3447 17.9059C27.5141 17.5522 27.5914 17.1611 27.5693 16.7692C27.5472 16.3773 27.4265 15.9975 27.2185 15.6652C27.0104 15.3329 26.7218 15.0591 26.3797 14.8693C26.0376 14.6796 25.6531 14.5801 25.2623 14.5802L10.2827 14.5885Z" fill="url(#paint3_linear_515_1325)"/>
<path d="M28.7713 37.1743H37.2954V43.6053H44.7194V14.5885H36.0636L26.763 33.967C26.5997 34.3081 26.5251 34.6853 26.5464 35.0633C26.5677 35.4412 26.6841 35.8075 26.8847 36.128C27.0854 36.4484 27.3637 36.7125 27.6937 36.8955C28.0236 37.0785 28.3944 37.1744 28.7713 37.1743Z" fill="url(#paint4_linear_515_1325)"/>
<path d="M279.954 16.3271C279.485 16.3271 279.013 16.3408 278.544 16.3408C275.707 16.3408 272.87 16.3408 270.039 16.3408C269.707 16.3408 269.633 16.44 269.633 16.7569C269.633 25.519 269.633 34.2792 269.633 43.0376C269.633 43.6438 269.688 43.5419 269.117 43.5419C266.442 43.5419 263.767 43.5419 261.09 43.5419C260.771 43.5419 260.686 43.4702 260.686 43.1396C260.697 34.3683 260.697 25.598 260.686 16.8285C260.686 16.3133 260.777 16.3381 260.214 16.3381H250.941C250.393 16.3381 250.489 16.3767 250.489 15.8697C250.489 13.6654 250.489 11.4831 250.489 9.29261C250.489 8.97575 250.571 8.90686 250.878 8.90686C260.435 8.90686 269.991 8.90686 279.548 8.90686H279.965L279.954 16.3271Z" fill="white"/>
<path d="M86.2369 25.18C86.654 25.304 87.0792 25.4032 87.4852 25.552C90.7775 26.7588 92.6101 29.1533 93.0683 32.6085C93.3591 34.7962 92.9997 36.871 91.7432 38.7337C90.5196 40.5467 88.7884 41.6847 86.7802 42.4396C84.7643 43.1752 82.634 43.5438 80.4893 43.528C74.7526 43.5528 69.0159 43.528 63.2792 43.5445C63.024 43.5445 62.9609 43.4757 62.9609 43.2222C62.9609 31.8921 62.9609 20.5629 62.9609 9.23468C62.9609 8.98394 63.0185 8.90955 63.2764 8.90955C68.8293 8.90955 74.3849 8.90955 79.9406 8.92883C82.4975 8.94537 84.9886 9.3752 87.3069 10.5297C89.1533 11.45 90.6595 12.734 91.4551 14.7013C93.0134 18.5368 91.4798 23.4303 86.5662 25.0147L86.2342 25.1194V25.18M76.2972 29.2497C74.7937 29.2497 73.5207 29.2497 72.2477 29.2497C72.0365 29.2497 71.9185 29.2717 71.9185 29.5252C71.9295 31.7736 71.9295 34.0201 71.9185 36.2649C71.9185 36.4495 71.9542 36.5404 72.1654 36.5404C74.6346 36.5404 77.1038 36.5404 79.5729 36.5046C80.63 36.4975 81.6595 36.1647 82.5222 35.5512C82.9424 35.2561 83.2877 34.8661 83.5302 34.4124C83.7728 33.9588 83.9058 33.4542 83.9186 32.9395C83.9314 32.4247 83.8237 31.9141 83.604 31.4489C83.3843 30.9836 83.0589 30.5767 82.6539 30.2609C81.8289 29.6683 80.8497 29.3303 79.8363 29.2883C78.5853 29.2001 77.3342 29.269 76.3109 29.2497M75.9268 22.714C76.9639 22.6754 78.2478 22.7773 79.529 22.6644C81.754 22.466 82.9941 21.0111 82.8213 18.7875C82.7939 18.3785 82.6761 17.9807 82.4763 17.6232C82.2764 17.2657 81.9997 16.9575 81.6662 16.721C80.9256 16.1965 80.0342 15.9303 79.1285 15.9633C76.8267 15.9468 74.5276 15.9633 72.2258 15.9633C71.9844 15.9633 71.9185 16.0377 71.9213 16.2746C71.9213 18.3265 71.9213 20.3792 71.9213 22.4329C71.9213 22.6809 72.0008 22.7415 72.234 22.7387C73.3808 22.7387 74.5249 22.7387 75.9158 22.7387" fill="white"/>
<path d="M207.638 22.9264V23.3039C207.638 29.9168 207.638 36.5297 207.638 43.1426C207.638 43.4512 207.588 43.5586 207.245 43.5559C204.71 43.5393 202.173 43.5393 199.635 43.5559C199.36 43.5559 199.273 43.5008 199.273 43.2059C199.273 31.8979 199.273 20.5899 199.273 9.28183C199.273 9.00629 199.333 8.91812 199.624 8.92087C202.033 8.9319 204.441 8.9319 206.847 8.92087C206.946 8.91483 207.045 8.93571 207.133 8.9813C207.221 9.0269 207.295 9.09551 207.347 9.17988C212.4 15.9305 217.459 22.6775 222.521 29.4208L222.738 29.6964C222.856 29.6192 222.809 29.5117 222.807 29.4208C222.807 22.7785 222.796 16.1353 222.774 9.49124C222.774 8.78862 222.702 8.92087 223.35 8.91812C225.789 8.91812 228.23 8.91812 230.669 8.91812C230.982 8.91812 231.081 8.97598 231.081 9.31489C231.07 20.5899 231.07 31.8658 231.081 43.1426C231.081 43.4512 231.032 43.5586 230.689 43.5559C228.324 43.5393 225.958 43.5393 223.591 43.5559C223.484 43.5631 223.376 43.5414 223.28 43.4929C223.183 43.4445 223.101 43.3711 223.042 43.2803C218.011 36.5903 212.981 29.9039 207.953 23.2212C207.876 23.1193 207.797 23.0229 207.717 22.9209L207.646 22.943" fill="white"/>
<path d="M171.541 23.9044L173.602 21.5073C177.13 17.3981 180.656 13.2861 184.181 9.17146C184.246 9.08177 184.333 9.00971 184.433 8.96165C184.533 8.91359 184.643 8.89102 184.754 8.89592C187.953 8.89592 191.154 8.89592 194.356 8.89592H194.702C194.649 9.04346 194.553 9.17191 194.428 9.26514C190.382 13.806 186.331 18.3422 182.274 22.8739C182.228 22.9099 182.19 22.9554 182.162 23.0072C182.135 23.059 182.119 23.1161 182.115 23.1746C182.111 23.2332 182.119 23.2919 182.14 23.3469C182.16 23.4019 182.192 23.452 182.233 23.4939C186.6 30.0461 190.961 36.603 195.314 43.1645C195.38 43.2609 195.443 43.3601 195.517 43.4786C195.407 43.5247 195.286 43.5381 195.168 43.5171C191.84 43.5171 188.512 43.5171 185.185 43.5171C185.075 43.5276 184.964 43.5055 184.867 43.4536C184.769 43.4017 184.689 43.3222 184.636 43.2251C181.783 38.9653 178.92 34.6972 176.049 30.4209C175.824 30.0847 175.821 30.0847 175.555 30.385C174.263 31.8344 172.976 33.2865 171.678 34.7303C171.613 34.7989 171.561 34.8801 171.527 34.9691C171.493 35.0581 171.478 35.153 171.481 35.2483C171.481 37.8907 171.481 40.5358 171.481 43.181C171.481 43.4841 171.39 43.5475 171.105 43.5447C168.361 43.5447 165.618 43.5447 162.874 43.5447C162.6 43.5447 162.521 43.4703 162.521 43.1893C162.521 31.8812 162.521 20.5732 162.521 9.26514C162.521 8.9896 162.597 8.9097 162.877 8.9097C165.621 8.92072 168.364 8.92072 171.108 8.9097C171.399 8.9097 171.481 8.98134 171.481 9.27892C171.47 14.0071 171.47 18.7363 171.481 23.4663C171.46 23.6147 171.479 23.7658 171.536 23.9044" fill="white"/>
<path d="M123.782 36.2569C123.909 36.318 124.053 36.3355 124.191 36.3065H141.689C142.153 36.3065 142.153 36.3065 142.153 36.7749C142.153 38.8938 142.153 41.0099 142.153 43.1288C142.153 43.4319 142.106 43.5448 141.758 43.5448C131.866 43.5338 121.977 43.5338 112.089 43.5448C111.779 43.5448 111.7 43.4677 111.702 43.1563C111.719 41.437 111.702 39.7149 111.702 37.9955C111.695 37.7931 111.765 37.5955 111.9 37.4445C117.776 30.5064 123.641 23.5638 129.494 16.6166C129.606 16.4844 129.84 16.3411 129.768 16.1923C129.697 16.0435 129.456 16.1454 129.288 16.1454H112.78C112.358 16.1454 112.358 16.1454 112.358 15.7376C112.358 13.5774 112.358 11.4172 112.358 9.25702C112.358 8.99526 112.416 8.9126 112.69 8.9126C122.312 8.9126 131.934 8.9126 141.555 8.9126C141.829 8.9126 141.884 9.00352 141.881 9.25977C141.87 10.9901 141.87 12.7205 141.881 14.4509C141.89 14.6951 141.802 14.9329 141.637 15.1122C135.784 22.03 129.931 28.9506 124.078 35.8739C123.963 35.9832 123.869 36.1143 123.804 36.2596" fill="white"/>
<path d="M155.832 30.6386V43.1149C155.832 43.5392 155.832 43.5392 155.423 43.5392C152.696 43.5392 149.966 43.5392 147.236 43.5392C146.962 43.5392 146.885 43.4648 146.885 43.1838C146.885 35.4338 146.885 27.6848 146.885 19.9367C146.885 19.6832 146.951 19.5923 147.203 19.5399C149.965 18.9668 152.724 18.3808 155.481 17.782C155.799 17.7131 155.835 17.8096 155.835 18.0878C155.835 22.2687 155.835 26.4495 155.835 30.6303" fill="white"/>
<path d="M246.79 30.7735C246.79 34.9066 246.79 39.0396 246.79 43.1561C246.79 43.4895 246.697 43.5584 246.379 43.5584C243.635 43.5437 240.892 43.5437 238.148 43.5584C237.874 43.5584 237.808 43.5006 237.808 43.2278C237.808 35.5623 237.808 27.8978 237.808 20.2342C237.808 20.0083 237.852 19.9008 238.099 19.8485C240.881 19.2698 243.661 18.6811 246.439 18.0823C246.73 18.0189 246.774 18.0823 246.774 18.3578C246.774 22.4964 246.774 26.6349 246.774 30.7735" fill="white"/>
<path d="M107.038 30.7403C107.038 34.8679 107.038 38.9936 107.038 43.1175C107.038 43.539 107.038 43.539 106.627 43.539C103.897 43.539 101.17 43.539 98.4429 43.539C98.1686 43.539 98.0862 43.4812 98.0862 43.1891C98.0862 35.5071 98.0862 27.8252 98.0862 20.1432C98.0862 19.8676 98.1603 19.785 98.4237 19.7299C101.167 19.1623 103.911 18.5754 106.638 17.994C107.038 17.9086 107.038 17.9113 107.038 18.3246C107.038 22.4632 107.038 26.5963 107.038 30.7238" fill="white"/>
<path d="M242.313 8.91516C243.704 8.91516 245.095 8.91516 246.486 8.91516C246.725 8.91516 246.796 8.97853 246.796 9.22101C246.785 11.0579 246.785 12.8948 246.796 14.7317C246.796 14.966 246.714 15.0459 246.502 15.0899C243.691 15.6796 240.881 16.2748 238.072 16.8754C237.879 16.9168 237.83 16.8754 237.83 16.6881C237.83 14.1733 237.83 11.6595 237.83 9.14661C237.83 8.90965 237.951 8.92067 238.104 8.92067H242.308" fill="white"/>
<path d="M102.58 8.91516C103.952 8.91516 105.34 8.91516 106.72 8.91516C106.981 8.91516 107.044 8.99782 107.044 9.24581C107.044 11.0386 107.044 12.8324 107.044 14.627C107.044 14.8447 106.989 14.9439 106.756 14.9908C103.963 15.5749 101.174 16.1691 98.388 16.7735C98.1439 16.8258 98.0862 16.7735 98.0862 16.52C98.0972 14.0897 98.0972 11.6613 98.0862 9.23479C98.0862 8.97578 98.1603 8.91516 98.41 8.91516C99.7982 8.92894 101.189 8.91516 102.58 8.91516Z" fill="white"/>
<path d="M151.376 8.91516C152.748 8.91516 154.136 8.91516 155.519 8.91516C155.771 8.91516 155.845 8.98956 155.843 9.24029C155.843 10.9707 155.843 12.701 155.843 14.4314C155.843 14.6381 155.81 14.751 155.568 14.8006C152.775 15.3848 149.986 15.979 147.201 16.5834C146.967 16.633 146.893 16.6026 146.893 16.3381C146.904 13.974 146.904 11.6099 146.893 9.24581C146.893 8.97027 146.984 8.91516 147.239 8.91516C148.611 8.92894 149.999 8.91516 151.379 8.91516" fill="white"/>
<path d="M288 2.2917H289.688V7.00012H291.175V2.2917H292.88V1.00012H288V2.2917ZM298.388 1.00012L296.749 4.50904L295.097 1.00012H293.491V7.00012H294.813V3.20004L296.277 6.40286H297.221L298.685 3.20004V7.00012H300V1.00012H298.388Z" fill="white"/>
<defs>
<linearGradient id="paint0_linear_515_1325" x1="-1.823" y1="26.9011" x2="284.831" y2="26.9011" gradientUnits="userSpaceOnUse">
<stop stop-color="#FF0000"/>
<stop offset="0.13" stop-color="#FF140C"/>
<stop offset="0.72" stop-color="#FF7144"/>
<stop offset="0.99" stop-color="#FF965A"/>
<stop offset="1" stop-color="#FF965A"/>
</linearGradient>
<linearGradient id="paint1_linear_515_1325" x1="10.2827" y1="10.8026" x2="17.7753" y2="10.8026" gradientUnits="userSpaceOnUse">
<stop stop-color="#FF0000"/>
<stop offset="0.13" stop-color="#FF140C"/>
<stop offset="0.72" stop-color="#FF7144"/>
<stop offset="0.99" stop-color="#FF965A"/>
<stop offset="1" stop-color="#FF965A"/>
</linearGradient>
<linearGradient id="paint2_linear_515_1325" x1="37.1033" y1="10.8026" x2="44.7166" y2="10.8026" gradientUnits="userSpaceOnUse">
<stop stop-color="#FF0000"/>
<stop offset="0.13" stop-color="#FF140C"/>
<stop offset="0.72" stop-color="#FF7144"/>
<stop offset="0.99" stop-color="#FF965A"/>
<stop offset="1" stop-color="#FF965A"/>
</linearGradient>
<linearGradient id="paint3_linear_515_1325" x1="10.2827" y1="29.0982" x2="27.5751" y2="29.0982" gradientUnits="userSpaceOnUse">
<stop stop-color="#FF0000"/>
<stop offset="0.13" stop-color="#FF140C"/>
<stop offset="0.72" stop-color="#FF7144"/>
<stop offset="0.99" stop-color="#FF965A"/>
<stop offset="1" stop-color="#FF965A"/>
</linearGradient>
<linearGradient id="paint4_linear_515_1325" x1="26.5408" y1="29.0983" x2="44.7166" y2="29.0983" gradientUnits="userSpaceOnUse">
<stop stop-color="#FF0000"/>
<stop offset="0.13" stop-color="#FF140C"/>
<stop offset="0.72" stop-color="#FF7144"/>
<stop offset="0.99" stop-color="#FF965A"/>
<stop offset="1" stop-color="#FF965A"/>
</linearGradient>
</defs>
</svg>
