<svg width="250" height="52" viewBox="0 0 250 52" fill="none" xmlns="http://www.w3.org/2000/svg">
<g clip-path="url(#clip0_32_1623)">
<path d="M47.3485 7.56348H0V51.9998H47.3485V7.56348Z" fill="white"/>
<path d="M248.897 51.8469V51.9998H0V7.56348H249.053V51.9998H248.897V51.8469H248.741V7.87181H0.31159V51.6939H248.897V51.8469H248.741H248.897Z" fill="url(#paint0_linear_32_1623)"/>
<path d="M248.897 51.8469V51.9998H0V7.56348H249.053V51.9998H248.897V51.8469H248.741V7.87181H0.31159V51.6939H248.897V51.8469H248.741H248.897Z" fill="white"/>
<path d="M15.4282 14.6702H8.925V18.0488H15.4282V14.6702Z" fill="url(#paint1_linear_32_1623)"/>
<path d="M38.8123 14.6702H32.2043V18.0488H38.8123V14.6702Z" fill="url(#paint2_linear_32_1623)"/>
<path d="M8.925 19.6414V44.7866H15.0663V40.5914L23.7341 22.5163C23.8812 22.2097 23.9483 21.8708 23.9291 21.5312C23.9099 21.1916 23.8052 20.8625 23.6246 20.5745C23.444 20.2866 23.1935 20.0493 22.8966 19.8848C22.5997 19.7204 22.266 19.6342 21.9267 19.6343L8.925 19.6414Z" fill="url(#paint3_linear_32_1623)"/>
<path d="M24.9724 39.2138H32.371V44.7868H38.8147V19.6416H31.3018L23.2293 36.4345C23.0875 36.7301 23.0228 37.057 23.0412 37.3845C23.0597 37.712 23.1608 38.0294 23.3349 38.3071C23.5091 38.5848 23.7506 38.8137 24.037 38.9722C24.3234 39.1308 24.6452 39.2139 24.9724 39.2138Z" fill="url(#paint4_linear_32_1623)"/>
<path d="M242.99 21.1482C242.582 21.1482 242.173 21.1601 241.766 21.1601C239.303 21.1601 236.841 21.1601 234.384 21.1601C234.096 21.1601 234.031 21.2461 234.031 21.5207C234.031 29.1136 234.031 36.705 234.031 44.2948C234.031 44.8201 234.079 44.7318 233.584 44.7318C231.262 44.7318 228.94 44.7318 226.616 44.7318C226.34 44.7318 226.266 44.6697 226.266 44.3832C226.275 36.7822 226.275 29.1821 226.266 21.5827C226.266 21.1362 226.344 21.1577 225.856 21.1577H217.808C217.331 21.1577 217.415 21.1912 217.415 20.7518C217.415 18.8416 217.415 16.9505 217.415 15.0523C217.415 14.7777 217.486 14.718 217.753 14.718C226.048 14.718 234.342 14.718 242.637 14.718H242.999L242.99 21.1482Z" fill="white"/>
<path d="M74.8505 28.82C75.2124 28.9275 75.5815 29.0134 75.9339 29.1424C78.7915 30.1882 80.3821 32.2631 80.7798 35.2573C81.0322 37.1532 80.7203 38.9512 79.6297 40.5653C78.5676 42.1364 77.065 43.1225 75.3219 43.7768C73.5723 44.4142 71.7232 44.7336 69.8617 44.7199C64.8825 44.7414 59.9032 44.7199 54.924 44.7342C54.7025 44.7342 54.6478 44.6745 54.6478 44.4549C54.6478 34.6365 54.6478 24.819 54.6478 15.0022C54.6478 14.7849 54.6978 14.7205 54.9216 14.7205C59.7413 14.7205 64.5634 14.7205 69.3854 14.7372C71.6048 14.7515 73.767 15.124 75.7792 16.1244C77.3817 16.9219 78.6891 18.0346 79.3796 19.7395C80.7322 23.0632 79.4011 27.3038 75.1362 28.6767L74.8481 28.7675V28.82M66.2231 32.3467C64.9182 32.3467 63.8133 32.3467 62.7084 32.3467C62.525 32.3467 62.4226 32.3658 62.4226 32.5855C62.4321 34.5338 62.4321 36.4806 62.4226 38.4258C62.4226 38.5858 62.4536 38.6646 62.6369 38.6646C64.7801 38.6646 66.9232 38.6646 69.0664 38.6336C69.9839 38.6274 70.8774 38.3391 71.6262 37.8074C71.9909 37.5517 72.2906 37.2137 72.5011 36.8206C72.7116 36.4274 72.8271 35.9902 72.8382 35.5442C72.8494 35.0981 72.7558 34.6556 72.5652 34.2524C72.3745 33.8493 72.092 33.4966 71.7405 33.223C71.0245 32.7094 70.1746 32.4165 69.295 32.3801C68.2091 32.3037 67.1232 32.3634 66.235 32.3467M65.9016 26.683C66.8018 26.6496 67.9162 26.7379 69.0283 26.64C70.9595 26.4681 72.0358 25.2074 71.8858 23.2805C71.8621 22.926 71.7598 22.5813 71.5863 22.2715C71.4129 21.9617 71.1727 21.6946 70.8833 21.4897C70.2404 21.0351 69.4667 20.8044 68.6806 20.833C66.6827 20.8187 64.6872 20.833 62.6893 20.833C62.4798 20.833 62.4226 20.8975 62.425 21.1029C62.425 22.8809 62.425 24.6598 62.425 26.4394C62.425 26.6543 62.494 26.7069 62.6965 26.7045C63.6918 26.7045 64.6848 26.7045 65.8921 26.7045" fill="white"/>
<path d="M180.222 26.8668V27.1939C180.222 32.9245 180.222 38.655 180.222 44.3856C180.222 44.653 180.179 44.7461 179.881 44.7437C177.681 44.7294 175.479 44.7294 173.275 44.7437C173.037 44.7437 172.961 44.696 172.961 44.4405C172.961 34.6412 172.961 24.842 172.961 15.0428C172.961 14.804 173.014 14.7276 173.266 14.73C175.357 14.7395 177.447 14.7395 179.536 14.73C179.622 14.7247 179.707 14.7428 179.783 14.7823C179.86 14.8218 179.924 14.8813 179.969 14.9544C184.356 20.8043 188.746 26.6511 193.14 32.4947L193.328 32.7334C193.431 32.6666 193.39 32.5735 193.388 32.4947C193.388 26.7387 193.378 20.9818 193.359 15.2242C193.359 14.6153 193.297 14.73 193.859 14.7276C195.976 14.7276 198.095 14.7276 200.212 14.7276C200.484 14.7276 200.57 14.7777 200.57 15.0714C200.56 24.842 200.56 34.6134 200.57 44.3856C200.57 44.653 200.527 44.7461 200.229 44.7437C198.176 44.7294 196.123 44.7294 194.069 44.7437C193.975 44.75 193.882 44.7312 193.798 44.6892C193.715 44.6472 193.644 44.5836 193.592 44.505C189.225 38.7076 184.86 32.9133 180.495 27.1223C180.429 27.0339 180.36 26.9504 180.291 26.862L180.229 26.8811" fill="white"/>
<path d="M148.891 27.7145L150.68 25.6372C153.742 22.0763 156.803 18.513 159.862 14.9474C159.919 14.8696 159.994 14.8072 160.081 14.7655C160.168 14.7239 160.263 14.7043 160.359 14.7086C163.136 14.7086 165.914 14.7086 168.694 14.7086H168.994C168.948 14.8364 168.865 14.9477 168.756 15.0285C165.244 18.9635 161.728 22.8945 158.207 26.8215C158.167 26.8528 158.134 26.8921 158.11 26.937C158.086 26.9819 158.072 27.0314 158.069 27.0821C158.065 27.1329 158.073 27.1837 158.09 27.2314C158.108 27.2791 158.136 27.3225 158.171 27.3588C161.962 33.0368 165.747 38.7188 169.525 44.4048C169.582 44.4884 169.637 44.5743 169.701 44.677C169.606 44.7169 169.501 44.7285 169.399 44.7104C166.509 44.7104 163.621 44.7104 160.733 44.7104C160.638 44.7195 160.542 44.7003 160.457 44.6553C160.373 44.6104 160.303 44.5415 160.257 44.4573C157.781 40.7659 155.296 37.0673 152.804 33.3615C152.608 33.0702 152.606 33.0702 152.375 33.3305C151.253 34.5864 150.137 35.8448 149.01 37.0959C148.953 37.1554 148.909 37.2258 148.879 37.3029C148.85 37.38 148.836 37.4623 148.839 37.5448C148.839 39.8347 148.839 42.1269 148.839 44.4191C148.839 44.6818 148.76 44.7367 148.513 44.7343C146.131 44.7343 143.75 44.7343 141.369 44.7343C141.131 44.7343 141.062 44.6698 141.062 44.4263C141.062 34.627 141.062 24.8278 141.062 15.0285C141.062 14.7898 141.128 14.7205 141.371 14.7205C143.752 14.7301 146.134 14.7301 148.515 14.7205C148.767 14.7205 148.839 14.7826 148.839 15.0405C148.829 19.1378 148.829 23.236 148.839 27.3349C148.821 27.4634 148.837 27.5945 148.887 27.7145" fill="white"/>
<path d="M107.438 38.4187C107.548 38.4717 107.673 38.4868 107.793 38.4617H122.981C123.383 38.4617 123.383 38.4617 123.383 38.8676C123.383 40.7038 123.383 42.5376 123.383 44.3737C123.383 44.6364 123.343 44.7343 123.04 44.7343C114.455 44.7247 105.871 44.7247 97.2892 44.7343C97.0201 44.7343 96.951 44.6674 96.9534 44.3976C96.9677 42.9077 96.9534 41.4153 96.9534 39.9254C96.9467 39.75 97.0082 39.5788 97.1249 39.4479C102.226 33.4355 107.316 27.4193 112.396 21.399C112.494 21.2844 112.696 21.1602 112.634 21.0313C112.572 20.9023 112.363 20.9907 112.217 20.9907H97.8892C97.5225 20.9907 97.5225 20.9907 97.5225 20.6373C97.5225 18.7653 97.5225 16.8933 97.5225 15.0214C97.5225 14.7945 97.5725 14.7229 97.8107 14.7229C106.163 14.7229 114.514 14.7229 122.864 14.7229C123.102 14.7229 123.15 14.8017 123.147 15.0238C123.138 16.5232 123.138 18.0227 123.147 19.5222C123.155 19.7339 123.079 19.9399 122.935 20.0953C117.855 26.0901 112.775 32.0873 107.695 38.0868C107.595 38.1816 107.514 38.2951 107.457 38.4211" fill="white"/>
<path d="M135.256 33.5501V44.3617C135.256 44.7294 135.256 44.7294 134.901 44.7294C132.534 44.7294 130.165 44.7294 127.796 44.7294C127.557 44.7294 127.491 44.6649 127.491 44.4214C127.491 37.7055 127.491 30.9904 127.491 24.2761C127.491 24.0564 127.548 23.9776 127.767 23.9323C130.164 23.4356 132.559 22.9278 134.951 22.4089C135.228 22.3492 135.259 22.4328 135.259 22.6739C135.259 26.2969 135.259 29.9199 135.259 33.5429" fill="white"/>
<path d="M214.205 33.6671C214.205 37.2487 214.205 40.8303 214.205 44.3976C214.205 44.6865 214.124 44.7462 213.848 44.7462C211.466 44.7334 209.085 44.7334 206.704 44.7462C206.466 44.7462 206.408 44.696 206.408 44.4597C206.408 37.817 206.408 31.1751 206.408 24.534C206.408 24.3382 206.447 24.2451 206.661 24.1998C209.075 23.6983 211.489 23.1882 213.9 22.6692C214.152 22.6143 214.19 22.6692 214.19 22.908C214.19 26.4944 214.19 30.0807 214.19 33.6671" fill="white"/>
<path d="M92.9052 33.6383C92.9052 37.2152 92.9052 40.7904 92.9052 44.364C92.9052 44.7293 92.9052 44.7293 92.548 44.7293C90.1787 44.7293 87.8117 44.7293 85.4447 44.7293C85.2066 44.7293 85.1352 44.6792 85.1352 44.4261C85.1352 37.7691 85.1352 31.1121 85.1352 24.4551C85.1352 24.2163 85.1995 24.1447 85.4281 24.097C87.8093 23.6051 90.1906 23.0965 92.5576 22.5927C92.9052 22.5187 92.9052 22.5211 92.9052 22.8792C92.9052 26.4656 92.9052 30.0472 92.9052 33.624" fill="white"/>
<path d="M210.319 14.7251C211.526 14.7251 212.733 14.7251 213.94 14.7251C214.148 14.7251 214.21 14.78 214.21 14.9901C214.2 16.582 214.2 18.1738 214.21 19.7656C214.21 19.9686 214.138 20.0378 213.955 20.076C211.515 20.587 209.076 21.1027 206.637 21.6233C206.47 21.6591 206.428 21.6233 206.428 21.4609C206.428 19.2817 206.428 17.1033 206.428 14.9257C206.428 14.7203 206.532 14.7299 206.666 14.7299H210.314" fill="white"/>
<path d="M89.0357 14.7251C90.2263 14.7251 91.4312 14.7251 92.629 14.7251C92.8552 14.7251 92.91 14.7967 92.91 15.0116C92.91 16.5652 92.91 18.1197 92.91 19.6749C92.91 19.8635 92.8624 19.9495 92.66 19.99C90.2358 20.4962 87.8149 21.0112 85.3971 21.5349C85.1852 21.5803 85.1352 21.5349 85.1352 21.3152C85.1447 19.2093 85.1447 17.1049 85.1352 15.0021C85.1352 14.7776 85.1995 14.7251 85.4162 14.7251C86.6211 14.737 87.8284 14.7251 89.0357 14.7251Z" fill="white"/>
<path d="M131.389 14.7251C132.58 14.7251 133.785 14.7251 134.985 14.7251C135.204 14.7251 135.268 14.7896 135.266 15.0068C135.266 16.5063 135.266 18.0058 135.266 19.5053C135.266 19.6844 135.237 19.7823 135.028 19.8253C132.603 20.3315 130.182 20.8464 127.765 21.3702C127.562 21.4131 127.498 21.3869 127.498 21.1576C127.507 19.109 127.507 17.0603 127.498 15.0116C127.498 14.7729 127.577 14.7251 127.798 14.7251C128.989 14.737 130.194 14.7251 131.391 14.7251" fill="white"/>
<path d="M236.88 1.30613H238.583V5.82371H240.083V1.30613H241.802V0.0668945H236.88V1.30613ZM247.358 0.0668945L245.705 3.43359L244.038 0.0668945H242.419V5.82371H243.752V2.17765L245.229 5.25066H246.181L247.658 2.17765V5.82371H248.984V0.0668945H247.358Z" fill="white"/>
</g>
<defs>
<linearGradient id="paint0_linear_32_1623" x1="-1.58229" y1="30.3111" x2="247.222" y2="30.3111" gradientUnits="userSpaceOnUse">
<stop stop-color="#FF0000"/>
<stop offset="0.13" stop-color="#FF140C"/>
<stop offset="0.72" stop-color="#FF7144"/>
<stop offset="0.99" stop-color="#FF965A"/>
<stop offset="1" stop-color="#FF965A"/>
</linearGradient>
<linearGradient id="paint1_linear_32_1623" x1="8.925" y1="16.3607" x2="15.4282" y2="16.3607" gradientUnits="userSpaceOnUse">
<stop stop-color="#FF0000"/>
<stop offset="0.13" stop-color="#FF140C"/>
<stop offset="0.72" stop-color="#FF7144"/>
<stop offset="0.99" stop-color="#FF965A"/>
<stop offset="1" stop-color="#FF965A"/>
</linearGradient>
<linearGradient id="paint2_linear_32_1623" x1="32.2043" y1="16.3607" x2="38.8123" y2="16.3607" gradientUnits="userSpaceOnUse">
<stop stop-color="#FF0000"/>
<stop offset="0.13" stop-color="#FF140C"/>
<stop offset="0.72" stop-color="#FF7144"/>
<stop offset="0.99" stop-color="#FF965A"/>
<stop offset="1" stop-color="#FF965A"/>
</linearGradient>
<linearGradient id="paint3_linear_32_1623" x1="8.925" y1="32.2152" x2="23.9341" y2="32.2152" gradientUnits="userSpaceOnUse">
<stop stop-color="#FF0000"/>
<stop offset="0.13" stop-color="#FF140C"/>
<stop offset="0.72" stop-color="#FF7144"/>
<stop offset="0.99" stop-color="#FF965A"/>
<stop offset="1" stop-color="#FF965A"/>
</linearGradient>
<linearGradient id="paint4_linear_32_1623" x1="23.0364" y1="32.2154" x2="38.8123" y2="32.2154" gradientUnits="userSpaceOnUse">
<stop stop-color="#FF0000"/>
<stop offset="0.13" stop-color="#FF140C"/>
<stop offset="0.72" stop-color="#FF7144"/>
<stop offset="0.99" stop-color="#FF965A"/>
<stop offset="1" stop-color="#FF965A"/>
</linearGradient>
<clipPath id="clip0_32_1623">
<rect width="250" height="52" fill="white"/>
</clipPath>
</defs>
</svg>
